<?xml version="1.0" standalone="no"?>
<!DOCTYPE svg PUBLIC "-//W3C//DTD SVG 1.1//EN" "http://www.w3.org/Graphics/SVG/1.1/DTD/svg11.dtd" >
<svg xmlns="http://www.w3.org/2000/svg" xmlns:xlink="http://www.w3.org/1999/xlink" version="1.1">
<metadata>
Created by FontForge 20161116 at Wed Feb  7 09:20:57 2007
 By Jimmy Wärting
Copyright(c) Founder Corporation.2007
</metadata>
<defs>
<font id="FZLTTHCJW--GB1-0" horiz-adv-x="192" vert-adv-y="256" >
  <font-face 
    font-family="FZLanTingHeiS-HN-GB"
    font-weight="400"
    font-stretch="normal"
    units-per-em="256"
    panose-1="2 1 6 0 0 0 0 0 0 0"
    ascent="218"
    descent="-38"
    x-height="133"
    cap-height="179"
    bbox="-19 -89.2388 255 230"
    underline-thickness="12"
    underline-position="-32"
    unicode-range="U+0020-FFE5"
  />
<missing-glyph horiz-adv-x="256" 
 />
    <glyph glyph-name=".notdef" horiz-adv-x="256" 
 />
    <glyph glyph-name="glyph1" horiz-adv-x="128" vert-adv-y="128" 
 />
    <glyph glyph-name="space" unicode=" " horiz-adv-x="58" 
 />
    <glyph glyph-name="exclam" unicode="!" horiz-adv-x="61" 
d="M49 196l-6 -153h-29l-6 153h41zM47 -24h-37v46h37v-46z" />
    <glyph glyph-name="quotedbl" unicode="&#x22;" horiz-adv-x="92" 
d="M77 121l3 81h-31l4 -81h24zM34 121l4 81h-31l4 -81h23z" />
    <glyph glyph-name="numbersign" unicode="#" horiz-adv-x="146" 
d="M132 108l4 30h-22l8 61h-24l-8 -61h-22l8 61h-24l-8 -61h-25l-4 -30h25l-6 -45h-24l-4 -29h24l-8 -62h24l8 62h22l-8 -62h24l8 62h23l5 29h-24l6 45h22zM64 108h22l-6 -45h-22z" />
    <glyph glyph-name="dollar" unicode="$" horiz-adv-x="146" 
d="M82 -28v-27h-17v27q-49 6 -58 72l32 12q1 -41 26 -49v63q-3 2 -10 5q-4 1 -5 2q-39 14 -39 62q3 55 54 60v25h17v-26q39 -6 49 -57l-31 -11q-2 22 -18 30v-58q11 -4 21 -10q34 -19 33 -55q-2 -61 -54 -65zM65 109v53q-18 -7 -20 -25q-1 -20 20 -28zM82 63v-56q19 5 19 28
q0 18 -17 27q-1 0 -2 1z" />
    <glyph glyph-name="percent" unicode="%" horiz-adv-x="212" 
d="M72 -36l92 236h-28l-92 -236h28zM89 142q-1 -58 -41 -59q-39 2 -41 58q2 56 41 58q40 -1 41 -57zM65 142q0 29 -16.5 30t-16 -30.5t15.5 -31.5q17 0 17 32zM201 22q-1 -55 -41 -56q-39 2 -40 55q1 56 40 58q40 -1 41 -57zM177 22q0 30 -16.5 30t-16.5 -29.5t16.5 -29.5
t16.5 29z" />
    <glyph glyph-name="ampersand" unicode="&#x26;" horiz-adv-x="179" 
d="M175 3l-25 -30l-2 2q-14 13 -23 23q-21 -27 -59 -26q-57 2 -59 59q1 39 40 63q-19 29 -18 51q1 53 51 54q43 -3 47 -51q3 -38 -38 -58q9 -12 31 -35q3 -3 4 -5q7 17 10 43l29 -14q-4 -25 -17 -52q5 -4 16 -13q8 -7 13 -11zM96 147q-1 20 -16 21q-19 0 -19 -22
q0 -14 14 -33q21 15 21 34zM105 20q-19 21 -42 51q-20 -13 -20 -35q1 -31 27 -32q18 0 35 16z" />
    <glyph glyph-name="quotesingle" unicode="'" horiz-adv-x="50" 
d="M39 202l-4 -82h-23l-4 82h31z" />
    <glyph glyph-name="parenleft" unicode="(" horiz-adv-x="83" 
d="M72 -51h-28q-36 52 -36 130q1 75 36 133h28q-32 -60 -32 -132.5t32 -130.5z" />
    <glyph glyph-name="parenright" unicode=")" horiz-adv-x="83" 
d="M36 -51h-29q33 57 33 130q0 76 -33 133h29q36 -57 36.5 -133.5t-36.5 -129.5z" />
    <glyph glyph-name="asterisk" unicode="*" horiz-adv-x="101" 
d="M92 143l-30 -5l22 -29l-23 -18l-13 35l-14 -35l-22 18l22 29l-31 5l10 31l26 -16l-5 38h27l-5 -38l27 17z" />
    <glyph glyph-name="plus" unicode="+" horiz-adv-x="135" 
d="M124 69h-46v-62h-24v62h-47v32h47v61h24v-61h46v-32z" />
    <glyph glyph-name="comma" unicode="," horiz-adv-x="57" 
d="M13 -84l-9 17q23 17 23 43h-20v50h39v-44q2 -43 -33 -66z" />
    <glyph glyph-name="hyphen" unicode="-" horiz-adv-x="120" 
d="M111 68h-105v34h105v-34z" />
    <glyph glyph-name="period" unicode="." horiz-adv-x="58" 
d="M47 -24h-39v49h39v-49z" />
    <glyph glyph-name="slash" unicode="/" horiz-adv-x="71" 
d="M66 209l-38 -256h-26l38 256h26z" />
    <glyph glyph-name="zero" unicode="0" horiz-adv-x="146" 
d="M135 85q1 -114 -64 -113q-63 1 -64 112q2 113 64 116q63 -2 64 -115zM96 84q0 81 -25 79q-25 1 -25 -79q0 -77 25 -77.5t25 77.5z" />
    <glyph glyph-name="one" unicode="1" horiz-adv-x="116" 
d="M94 -24h-36v153q-25 -24 -53 -36v42q40 20 61 61h28v-220z" />
    <glyph glyph-name="two" unicode="2" horiz-adv-x="140" 
d="M50 14h79v-38h-122v29q21 40 48 68q41 39 37 59q-1 28 -23.5 29t-27.5 -38l-34 9q10 67 67 67q52 -3 56 -63q3 -41 -37 -73q-28 -27 -43 -49z" />
    <glyph glyph-name="three" unicode="3" horiz-adv-x="145" 
d="M7 29l38 10q4 -32 28 -32t24.5 31t-36.5 31h-15v37h14q32 0 32.5 28.5t-20.5 28.5q-21 -2 -26 -32l-36 9q12 59 65 60q51 -2 55 -57q1 -41 -34 -53v-1q35 -9 38 -53q-2 -61 -63 -63q-51 -3 -64 56z" />
    <glyph glyph-name="four" unicode="4" horiz-adv-x="146" 
d="M138 21h-20v-45h-33v45h-80v31l77 144h36v-140h20v-35zM87 149h-1q-1 -6 -6 -16l-41 -77h46v70q0 7 2 23z" />
    <glyph glyph-name="five" unicode="5" horiz-adv-x="144" 
d="M7 30l37 10q4 -33 27 -33q23 3 25 38q-1 36 -27 37q-18 -1 -25 -13h-30l6 126h103v-40h-73l-3 -52q14 13 32 13q52 -3 54 -69q-1 -72 -62 -74q-52 0 -64 57z" />
    <glyph glyph-name="six" unicode="6" horiz-adv-x="144" 
d="M130 145l-34 -8q-6 28 -23 27q-29 1 -30 -71q12 23 37 24q49 -4 53 -69q-3 -73 -60 -76q-68 -3 -66 114q2 111 65 114q47 0 58 -55zM98 45q-1 34 -27 35q-26 -1 -27 -34q1 -36 29 -38q23 3 25 37z" />
    <glyph glyph-name="seven" unicode="7" horiz-adv-x="137" 
d="M70 -24h-37q7 90 54 177h-82v40h122v-35q-51 -87 -57 -182z" />
    <glyph glyph-name="eight" unicode="8" horiz-adv-x="145" 
d="M43 89v1q-30 11 -31 51q5 56 60 59q54 -3 58 -59q1 -39 -34 -50v-2q38 -9 39 -53q0 -64 -67 -64q-59 2 -61 62q1 42 36 55zM93 138q-1 26 -22 27q-20 -1 -21 -27q0 -22 21 -30q22 8 22 30zM97 36q0 27 -27 35q-26 -9 -26 -35q1 -28 27 -30q26 1 26 30z" />
    <glyph glyph-name="nine" unicode="9" horiz-adv-x="143" 
d="M10 26l34 7q4 -27 23 -26q28 -1 30 70q-14 -22 -38 -23q-50 3 -52 69q3 74 61 77q67 3 65 -112q0 -115 -67 -116q-47 -1 -56 54zM96 124q-1 38 -28 39q-25 -2 -26 -38q1 -34 26 -35q27 1 28 34z" />
    <glyph glyph-name="colon" unicode=":" horiz-adv-x="63" 
d="M48 81h-38v52h38v-52zM48 -24h-38v49h38v-49z" />
    <glyph glyph-name="semicolon" unicode=";" horiz-adv-x="63" 
d="M50 82h-39v51h39v-51zM17 -84l-9 17q23 16 23 43h-20v49h39v-43q2 -44 -33 -66z" />
    <glyph glyph-name="less" unicode="&#x3c;" horiz-adv-x="139" 
d="M128 -6l-121 75v29l121 81v-43l-87 -52l87 -49v-41z" />
    <glyph glyph-name="equal" unicode="=" horiz-adv-x="136" 
d="M8 103h116v32h-116v-32zM8 35h116v32h-116v-32z" />
    <glyph glyph-name="greater" unicode="&#x3e;" horiz-adv-x="139" 
d="M8 -6v41l86 49l-86 52v43l121 -81v-29z" />
    <glyph glyph-name="question" unicode="?" horiz-adv-x="133" 
d="M77 48v-9h-31v12q-1 29 20 49q18 19 18 36q-2 21 -17 23q-21 0 -27 -36l-33 9q8 69 65 67q46 -4 50 -56q1 -33 -26 -59q-21 -19 -19 -36zM80 -24h-36v46h36v-46z" />
    <glyph glyph-name="at" unicode="@" horiz-adv-x="200" 
d="M115 118l2 18h24q-2 -31 -6 -94q-1 -21 8 -21q20 3 21 66q-2 81 -61 84q-66 -6 -70 -108q1 -92 67 -93q35 -1 51 22h23q-22 -49 -75 -49q-88 4 -91 120q7 128 94 136q82 -5 87 -111q-1 -87 -51 -88q-24 0 -25 28q-7 -28 -28 -28q-31 2 -32 58q3 76 43 81q17 0 19 -21z
M114 83q-1 26 -15 27q-20 -3 -21 -53q0 -33 14 -32q22 0 22 58z" />
    <glyph glyph-name="A" unicode="A" horiz-adv-x="173" 
d="M169 -24h-41l-12 47h-64l-12 -47h-40l62 220h45zM109 61l-21 76q-2 5 -4 17v2h-1q0 -4 -1.5 -10.5t-1.5 -9.5l-19 -75h48z" />
    <glyph glyph-name="B" unicode="B" horiz-adv-x="166" 
d="M93 -24h-80v220h77q54 -2 58 -52q0 -41 -32 -53q34 -8 39 -51q0 -64 -62 -64zM84 159h-34v-53h34q24 1 25 28q-1 24 -25 25zM88 69h-38v-59h37q27 1 28 30q-1 28 -27 29z" />
    <glyph glyph-name="C" unicode="C" horiz-adv-x="169" 
d="M157 131l-35 -11q-8 34 -35 36q-38 -3 -40 -71q2 -68 40 -72q31 1 36 48l36 -15q-13 -73 -72 -74q-76 5 -80 114q4 107 80 113q54 -3 70 -68z" />
    <glyph glyph-name="D" unicode="D" horiz-adv-x="166" 
d="M67 -24h-54v220h51q90 -1 91 -108q3 -116 -88 -112zM63 155h-12v-141h13q52 0 52 73q-1 67 -53 68z" />
    <glyph glyph-name="E" unicode="E" horiz-adv-x="154" 
d="M143 -24h-130v220h128v-41h-90v-48h84v-40h-84v-53h92v-38z" />
    <glyph glyph-name="F" unicode="F" horiz-adv-x="142" 
d="M131 155h-81v-53h71v-41h-71v-85h-37v220h118v-41z" />
    <glyph glyph-name="G" unicode="G" horiz-adv-x="176" 
d="M163 144l-35 -18q-11 30 -41 30q-37 -5 -40 -70q2 -68 43 -73q30 1 40 22v27h-49v41h83v-83q-16 -47 -75 -48q-79 4 -82 114q4 107 80 113q56 0 76 -55z" />
    <glyph glyph-name="H" unicode="H" horiz-adv-x="176" 
d="M160 -24h-38v88h-72v-88h-37v220h37v-89h72v89h38v-220z" />
    <glyph glyph-name="I" unicode="I" horiz-adv-x="66" 
d="M50 -24h-38v220h38v-220z" />
    <glyph glyph-name="J" unicode="J" horiz-adv-x="149" 
d="M7 47l36 13q1 -47 27 -47q25 -2 24 51v132h38v-134q0 -91 -60 -90q-56 0 -65 75z" />
    <glyph glyph-name="K" unicode="K" horiz-adv-x="174" 
d="M170 -24h-47l-48 93l-25 -35v-58h-37v220h37v-101l69 101h46l-66 -94z" />
    <glyph glyph-name="L" unicode="L" horiz-adv-x="146" 
d="M135 -24h-122v220h37v-182h85v-38z" />
    <glyph glyph-name="M" unicode="M" horiz-adv-x="203" 
d="M187 -24h-36v136q0 14 2 52h-1q-2 -27 -6 -40l-31 -148h-31l-31 152q-4 21 -6 36h-1q3 -37 2 -62v-126h-35v220h55l29 -147q2 -9 2 -28h1q0 18 2 28l29 147h56v-220z" />
    <glyph glyph-name="N" unicode="N" horiz-adv-x="176" 
d="M159 -24h-37l-66 137q-3 9 -9 21q1 -15 1 -38v-120h-35v220h40l63 -136q4 -6 9 -21q0 6 -1 19v15v123h35v-220z" />
    <glyph glyph-name="O" unicode="O" horiz-adv-x="184" 
d="M173 84q-4 -106 -83 -112q-78 7 -82 112q4 110 82 115q78 -6 83 -115zM131 84q-1 70 -41 72q-41 -4 -43 -72q2 -67 43 -71q40 2 41 71z" />
    <glyph glyph-name="P" unicode="P" horiz-adv-x="155" 
d="M78 53h-28v-77h-37v220h68q61 -2 63 -70q0 -73 -66 -73zM75 157h-25v-66h25q29 1 30 33q-1 32 -30 33z" />
    <glyph glyph-name="Q" unicode="Q" horiz-adv-x="182" 
d="M117 -23l39 -51l-42 -15l-35 61q-69 15 -72 112q4 110 83 115q76 -6 81 -115q-1 -83 -54 -107zM130 84q-1 70 -42 72q-40 -3 -42 -72q2 -67 42 -71q41 1 42 71z" />
    <glyph glyph-name="R" unicode="R" horiz-adv-x="164" 
d="M160 -24h-48l-40 85h-22v-85h-37v220h76q60 -2 63 -66q1 -56 -41 -66zM82 157h-32v-58h32q31 0 30 28q1 31 -30 30z" />
    <glyph glyph-name="S" unicode="S" horiz-adv-x="158" 
d="M7 45l37 10q4 -47 37 -46q25 1 26 26q1 19 -17 28q-9 5 -33 13q-45 13 -44 63q4 56 60 60q59 1 69 -62l-36 -10q-4 33 -31 33q-21 -1 -23 -21t29 -28q21 -5 39 -18q26 -19 27 -56q-2 -63 -65.5 -65t-74.5 73z" />
    <glyph glyph-name="T" unicode="T" horiz-adv-x="164" 
d="M153 155h-53v-179h-39v179h-53v41h145v-41z" />
    <glyph glyph-name="U" unicode="U" horiz-adv-x="176" 
d="M13 69v127h37v-127q1 -54 38 -56q35 0 35 57v126h38v-125q0 -99 -75 -99q-72 0 -73 97z" />
    <glyph glyph-name="V" unicode="V" horiz-adv-x="172" 
d="M168 196l-62 -220h-43l-62 220h40l39 -155q3 -11 5 -22h1q2 9 5 23l37 154h40z" />
    <glyph glyph-name="W" unicode="W" horiz-adv-x="220" 
d="M216 196l-36 -220h-42l-26 140q0 4 -0.5 12.5t-1.5 12.5h-1q0 -13 -3 -25l-26 -140h-44l-36 220h38l19 -147q2 -16 2 -27h1q2 22 3 27l25 147h41l26 -149q1 -5 2 -16q1 -5 1 -8h1q0 9 2 23q0 -1 0 2l18 148h37z" />
    <glyph glyph-name="X" unicode="X" horiz-adv-x="173" 
d="M169 -24h-47l-33 70q-1 2 -4 10q-1 3 -2 4q-3 -6 -6 -15l-34 -69h-43l58 109l-55 111h45l28 -67q4 -8 8 -18q1 3 4 10.5t4 8.5l27 66h44l-55 -111z" />
    <glyph glyph-name="Y" unicode="Y" horiz-adv-x="173" 
d="M169 196l-66 -134v-86h-37v85l-65 135h43l33 -74q5 -10 9 -22h1q5 13 8 22l31 74h43z" />
    <glyph glyph-name="Z" unicode="Z" horiz-adv-x="163" 
d="M153 -24h-147v38l96 141h-88v41h136v-41l-98 -141h101v-38z" />
    <glyph glyph-name="bracketleft" unicode="[" horiz-adv-x="81" 
d="M72 -48h-64v258h64v-32h-33v-194h33v-32z" />
    <glyph glyph-name="backslash" unicode="\" horiz-adv-x="71" 
d="M1 209h26l39 -256h-27z" />
    <glyph glyph-name="bracketright" unicode="]" horiz-adv-x="81" 
d="M6 -48v32h33v194h-33v32h63v-258h-63z" />
    <glyph glyph-name="asciicircum" unicode="^" horiz-adv-x="122" 
d="M117 77h-31l-26 81h-1l-27 -81h-31l48 122h19z" />
    <glyph glyph-name="underscore" unicode="_" horiz-adv-x="146" 
d="M136 -23h-128v26h128v-26z" />
    <glyph glyph-name="grave" unicode="`" horiz-adv-x="63" 
d="M57 153h-28l-28 54h34z" />
    <glyph glyph-name="a" unicode="a" horiz-adv-x="144" 
d="M136 -24h-34q-5 12 -5 24q-16 -26 -51 -27q-37 3 -38.5 44.5t43.5 50.5q25 6 44 15q2 22 -24 21q-19 0 -26 -20l-34 6q10 48 60 47q61 3 59 -68v-60q0 -21 6 -33zM97 48v8q-11 -8 -31 -14q-23 -6 -24 -22t19 -15q33 3 36 43z" />
    <glyph glyph-name="b" unicode="b" horiz-adv-x="147" 
d="M49 -2v-22h-36v234h36v-99q12 26 39 26q47 -2 48 -79q1 -86 -52 -85q-22 0 -35 25zM49 60v-14q1 -36 24 -38q26 -1 26 50q-1 39 -25 41q-24 -2 -25 -39z" />
    <glyph glyph-name="c" unicode="c" horiz-adv-x="149" 
d="M136 84l-37 -7q-7 21 -24 22q-29 -2 -29.5 -46.5t29.5 -44.5q20 2 24 29l39 -7q-13 -60 -64 -58q-65 2 -67 82q2 81 67 83q46 -2 62 -53z" />
    <glyph glyph-name="d" unicode="d" horiz-adv-x="147" 
d="M130 -24h-36v21q-9 -25 -37 -25q-48 4 -50 78q0 87 54 87q24 -2 33 -27v100h36v-234zM95 54v8q-2 35 -25 37q-25 -1 -25.5 -45.5t25 -45t25.5 45.5z" />
    <glyph glyph-name="e" unicode="e" horiz-adv-x="149" 
d="M136 52v-12h-91q2 -32 29 -35q21 0 26 19l38 -6q-13 -46 -63 -46q-65 3 -67 79q2 84 63 86q65 0 65 -85zM44 70h57q-2 32 -28 34q-27 -2 -29 -34z" />
    <glyph glyph-name="f" unicode="f" horiz-adv-x="101" 
d="M102 207l-11 -36q-6 4 -13 4q-15 1 -15 -22v-20h25v-36h-25v-121h-37v121h-19v36h19v19q-2 62 44 60q17 0 32 -5z" />
    <glyph glyph-name="g" unicode="g" horiz-adv-x="148" 
d="M9 -27l41 -5q1 -20 22 -21q22 1 22 39v21q-11 -24 -37 -24q-48 3 -50 76q0 77 53 78q24 -1 34 -22v18h37v-133q4 -93 -65 -88q-52 1 -57 61zM95 59v5q-1 35 -25 36q-24 -1 -25 -39q1 -42 25 -44q25 0 25 42z" />
    <glyph glyph-name="h" unicode="h" horiz-adv-x="145" 
d="M130 -24h-36v89q0 34 -22 34q-22 -2 -23 -37v-86h-36v234h36v-100q15 26 38 27q44 1 43 -65v-96z" />
    <glyph glyph-name="i" unicode="i" horiz-adv-x="65" 
d="M49 157h-37v42h37v-42zM49 -24h-37v156h37v-156z" />
    <glyph glyph-name="j" unicode="j" horiz-adv-x="65" 
d="M49 157h-37v42h37v-42zM-19 -81l6 32q4 -1 13 -1q12 -1 12 22v160h37v-162q2 -62 -43 -59q-15 1 -25 8z" />
    <glyph glyph-name="k" unicode="k" horiz-adv-x="147" 
d="M143 -24h-43l-32 65l-19 -25v-40h-36v234h36v-139l46 62h46l-49 -62z" />
    <glyph glyph-name="l" unicode="l" horiz-adv-x="65" 
d="M49 -24h-37v234h37v-234z" />
    <glyph glyph-name="m" unicode="m" horiz-adv-x="216" 
d="M202 -24h-37v89q1 35 -19 34q-22 -1 -22 -36v-87h-36v90q1 34 -19.5 32.5t-21.5 -35.5v-87h-36v157h36v-25q14 29 40 29q24 0 35 -29q14 29 41 29q38 -1 39 -64v-97z" />
    <glyph glyph-name="n" unicode="n" horiz-adv-x="143" 
d="M129 -24h-36v89q0 34 -22 34q-23 -2 -24 -37v-86h-36v157h36v-24q15 26 39 28q44 1 43 -65v-96z" />
    <glyph glyph-name="o" unicode="o" horiz-adv-x="146" 
d="M136 53q-3 -78 -65 -81q-61 5 -64 81q3 80 65 84q62 -2 64 -84zM98 53q-1 45 -27 46q-26 -1 -27 -46q1 -44 27.5 -44.5t26.5 44.5z" />
    <glyph glyph-name="p" unicode="p" horiz-adv-x="147" 
d="M49 -5v-80h-36v218h36v-24q13 27 40 28q45 -3 47 -79q0 -85 -52 -85q-24 1 -35 22zM49 58v-11q0 -38 24.5 -38.5t24.5 49.5q-1 41 -24 42q-25 0 -25 -42z" />
    <glyph glyph-name="q" unicode="q" horiz-adv-x="147" 
d="M130 -85h-36v80q-13 -21 -37 -22q-48 4 -50 77q0 87 53 87q23 -2 34 -28v24h36v-218zM95 51v10q-1 36 -26 38q-24 0 -24 -48q0 -42 24 -43q26 0 26 43z" />
    <glyph glyph-name="r" unicode="r" horiz-adv-x="104" 
d="M99 129l-12 -41q-6 6 -15 6q-25 -1 -25 -40v-78h-36v157h36v-29q9 33 32 33q11 -1 20 -8z" />
    <glyph glyph-name="s" unicode="s" horiz-adv-x="136" 
d="M7 20l37 6q3 -21 25 -21q19 0 19 17q1 11 -24 17q-5 1 -16 5q-7 3 -10 4q-26 10 -27 41q1 47 50.5 48.5t58.5 -43.5l-37 -4q-3 15 -19 15q-14 0 -15 -14q-1 -11 15 -16l21 -6q5 -1 7 -2q35 -10 33 -48q-1 -47 -54 -47q-57 -4 -64 48z" />
    <glyph glyph-name="t" unicode="t" horiz-adv-x="97" 
d="M23 22v75h-19v36h19v54l35 10v-64h29v-36h-29v-64q0 -26 15 -25q6 0 10 4l8 -31q-13 -9 -31 -9q-38 -1 -37 50z" />
    <glyph glyph-name="u" unicode="u" horiz-adv-x="144" 
d="M130 -24h-37v24q-12 -27 -37 -27q-44 1 -45 64v96h36v-92q0 -33 24 -33q21 3 22 37v88h37v-157z" />
    <glyph glyph-name="v" unicode="v" horiz-adv-x="136" 
d="M132 133l-46 -156h-41l-44 156h38l22 -98q3 -10 5 -26v-2h1q0 7 3 23q1 3 1 5l22 98h39z" />
    <glyph glyph-name="w" unicode="w" horiz-adv-x="208" 
d="M203 133l-41 -156h-40l-18 93q-2 9 -2 20h-1q0 -4 -1 -12v-8l-21 -93h-38l-41 156h38l21 -103q1 -2 1.5 -8.5t0.5 -9.5q2 14 2 18l20 103h36l21 -103q0 -4 2 -18h1q0 11 2 18l20 103h38z" />
    <glyph glyph-name="x" unicode="x" horiz-adv-x="145" 
d="M140 -23h-41l-28 59l-30 -59h-41l45 79l-41 77h39l28 -60l27 60h39l-42 -77z" />
    <glyph glyph-name="y" unicode="y" horiz-adv-x="136" 
d="M131 133l-49 -163q-16 -63 -52 -59q-14 0 -22 3l-3 39q8 -6 19 -6q14 0 19 15l7 19l-50 152h40l23 -93q0 -1 1 -4q2 -11 3 -17h1q1 11 4 21l20 93h39z" />
    <glyph glyph-name="z" unicode="z" horiz-adv-x="125" 
d="M117 -23h-112v31l64 89h-59v36h103v-32l-65 -90h69v-34z" />
    <glyph glyph-name="braceleft" unicode="{" horiz-adv-x="95" 
d="M28 2v36q-1 27 -21 28v27q21 0 21 30v33q0 32 11.5 44t44.5 12v-26q-26 -1 -27 -28v-32q1 -37 -19 -45v-2q20 -8 19 -46v-31q0 -11 5 -19q7 -8 22 -8v-26q-33 0 -44.5 12t-11.5 41z" />
    <glyph glyph-name="bar" unicode="|" horiz-adv-x="50" 
d="M39 -60h-31v282h31v-282z" />
    <glyph glyph-name="braceright" unicode="}" horiz-adv-x="95" 
d="M63 38v-36q0 -29 -11.5 -41t-44.5 -12v26q16 0 22 8q4 5 4 19v31q-1 38 20 46v1q-21 10 -20 46v32q-1 27 -26 28v26q33 0 44.5 -12t11.5 -44v-33q0 -29 20 -30v-26q-20 -1 -20 -29z" />
    <glyph glyph-name="asciitilde" unicode="~" horiz-adv-x="138" 
d="M7 55v42q15 19 35 19q15 1 29 -9.5t27 -10.5q15 1 29 19v-42q-12 -18 -32 -18q-15 -1 -29.5 9.5t-26.5 10.5q-17 1 -32 -20z" />
    <glyph glyph-name="currency" unicode="&#xa4;" 
d="M150 36l25 -32l-21 -26l-24 30q-13 -10 -33 -11t-35 12l-25 -32l-21 27l25 32q0 1 -1 2q-10 24 -10 48q0 21 10 39l-25 33l22 29l25 -33q15 15 35 15q20 -2 33 -14l25 33l22 -29l-26 -34q10 -15 11 -39q0 -27 -12 -50zM130 82q-4 42 -34 44q-31 -3 -34 -44q3 -42 34 -45
q30 2 34 45z" />
    <glyph glyph-name="section" unicode="&#xa7;" 
d="M93 115q-12 -5 -14 -27q1 -15 17 -21q14 6 16 24q-1 21 -19 24zM139 203v-37q-24 13 -38 13t-14 -13.5t24 -23.5q36 -14 36 -43.5t-23 -43.5q24 -16 24 -41q-2 -43 -56 -46q-13 0 -39 8q-2 1 -3 1v35q21 -12 38 -12q20 0 20 14t-20 20q-45 14 -44 51q1 28 25 41
q-21 13 -22 40q3 40 49 46q25 0 43 -9z" />
    <glyph glyph-name="dieresis" unicode="&#xa8;" 
d="M122 155h-19v30h19v-30zM89 155h-19v30h19v-30z" />
    <glyph glyph-name="degree" unicode="&#xb0;" 
d="M70 165q-3 -40 -32 -43q-29 4 -32 43q3 38 32 42q29 -3 32 -42zM55 165q-1 19 -17 21q-15 -2 -16 -21q1 -20 16 -22q15 2 17 22z" />
    <glyph glyph-name="plusminus" unicode="&#xb1;" 
d="M156 97h-47v-61h-26v61h-47v32h47v61h26v-61h47v-32zM156 -10h-120v30h120v-30z" />
    <glyph glyph-name="periodcentered" unicode="&#xb7;" 
d="M115 60h-38v51h38v-51z" />
    <glyph glyph-name="multiply" unicode="&#xd7;" 
d="M138 12l-42 54l-42 -54l-18 23l42 53l-42 53l17 23l43 -53l42 53l18 -23l-42 -53l42 -54z" />
    <glyph glyph-name="agrave" unicode="&#xe0;" 
d="M75 65q0 -43 20.5 -42.5t21.5 42.5q-2 41 -21 42q-21 0 -21 -42zM117 114v17h29v-105v-26h-28q-1 9 -1 18h-1q-8 -20 -29 -20q-38 2 -41 67q3 65 45 68q16 -1 25 -19h1zM72 185h26l16 -37h-15z" />
    <glyph glyph-name="aacute" unicode="&#xe1;" 
d="M75 65q0 -43 20.5 -42.5t21.5 42.5q-2 41 -21 42q-21 0 -21 -42zM117 114v17h29v-105v-26h-28q-1 9 -1 18h-1q-8 -20 -29 -20q-38 2 -41 67q3 65 45 68q16 -1 25 -19h1zM106 148h-26l26 37h16z" />
    <glyph glyph-name="egrave" unicode="&#xe8;" 
d="M65 185h25l16 -37h-15zM143 54h-64q-1 -33 17 -32q15 0 17 17h27q-4 -41 -44 -41q-47 -1 -46 66q3 66 46 69q30 0 41 -31q4 -11 5 -23t1 -25zM79 80h34q0 27 -16.5 27t-17.5 -27z" />
    <glyph glyph-name="eacute" unicode="&#xe9;" 
d="M143 54h-64q-1 -33 17 -32q15 0 17 17h27q-4 -41 -44 -41q-47 -1 -46 66q3 66 46 69q30 0 41 -31q4 -11 5 -23t1 -25zM79 80h34q0 27 -16.5 27t-17.5 -27zM106 148h-26l26 37h16z" />
    <glyph glyph-name="ecircumflex" unicode="&#xea;" 
d="M108 148l-13 22l-14 -22h-17l21 37h20l20 -37h-17zM143 54h-64q-1 -33 17 -32q15 0 17 17h27q-4 -41 -44 -41q-47 -1 -46 66q3 66 46 69q30 0 41 -31q4 -11 5 -23t1 -25zM79 80h34q0 27 -16.5 27t-17.5 -27z" />
    <glyph glyph-name="igrave" unicode="&#xec;" 
d="M74 185h26l15 -37h-15zM118 0h-28v129h28v-129z" />
    <glyph glyph-name="iacute" unicode="&#xed;" 
d="M103 0h-29v129h29v-129zM102 148h-25l26 37h15z" />
    <glyph glyph-name="ograve" unicode="&#xf2;" 
d="M66 185h26l16 -37h-16zM146 65q-2 -65 -50 -67q-48 2 -50 67q2 65 50 68q48 -3 50 -68zM76 65q-1 -44 20 -43q21 -1 20 43q1 43 -20 42q-21 1 -20 -42z" />
    <glyph glyph-name="oacute" unicode="&#xf3;" 
d="M146 65q-2 -65 -50 -67q-48 2 -50 67q2 65 50 68q48 -3 50 -68zM76 65q-1 -44 20 -43q21 -1 20 43q1 43 -20 42q-21 1 -20 -42zM110 148h-25l26 37h15z" />
    <glyph glyph-name="divide" unicode="&#xf7;" 
d="M81 135v38h30v-38h-30zM34 72v32h124v-32h-124zM81 1v38h30v-38h-30z" />
    <glyph glyph-name="ugrave" unicode="&#xf9;" 
d="M66 185h26l16 -37h-16zM114 0l-1 16q-11 -19 -30 -18q-25 3 -32 27q-2 16 -2 20v84h29v-77q0 -30 17 -30q16 2 18 30v77h29v-106q0 -11 1 -23h-29z" />
    <glyph glyph-name="uacute" unicode="&#xfa;" 
d="M114 0l-1 16q-11 -19 -30 -18q-25 3 -32 27q-2 16 -2 20v84h29v-77q0 -30 17 -30q16 2 18 30v77h29v-106q0 -11 1 -23h-29zM110 148h-26l27 37h15z" />
    <glyph glyph-name="udieresis" unicode="&#xfc;" 
d="M123 155h-20v30h20v-30zM90 155h-20v30h20v-30zM114 0l-1 16q-11 -19 -30 -18q-25 3 -32 27q-2 16 -2 20v84h29v-77q0 -30 17 -30q16 2 18 30v77h29v-106q0 -11 1 -23h-29z" />
    <glyph glyph-name="amacron" unicode="&#x101;" 
d="M75 65q0 -43 20.5 -42.5t21.5 42.5q-2 41 -21 42q-21 0 -21 -42zM117 114v17h29v-105v-26h-28q-1 9 -1 18h-1q-8 -20 -29 -20q-38 2 -41 67q3 65 45 68q16 -1 25 -19h1zM131 175v-18h-65v18h65z" />
    <glyph glyph-name="emacron" unicode="&#x113;" 
d="M143 54h-64q-1 -33 17 -32q15 0 17 17h27q-4 -41 -44 -41q-47 -1 -46 66q3 66 46 69q30 0 41 -31q4 -11 5 -23t1 -25zM79 80h34q0 27 -16.5 27t-17.5 -27zM129 175v-18h-66v18h66z" />
    <glyph glyph-name="ecaron" unicode="&#x11b;" 
d="M143 54h-64q-1 -33 17 -32q15 0 17 17h27q-4 -41 -44 -41q-47 -1 -46 66q3 66 46 69q30 0 41 -31q4 -11 5 -23t1 -25zM79 80h34q0 27 -16.5 27t-17.5 -27zM98 162l13 23h18l-20 -37h-22l-20 37h17z" />
    <glyph glyph-name="imacron" unicode="&#x12b;" 
d="M111 0h-29v129h29v-129zM129 175v-18h-66v18h66z" />
    <glyph glyph-name="nacute" unicode="&#x144;" 
d="M79 129v-15v-1q10 20 30 20q25 -5 31 -29q2 -7 2 -20v-84h-29v78q0 29 -17 29q-16 -2 -17 -29v-78h-29v129h29zM112 148h-26l26 37h15z" />
    <glyph glyph-name="ncaron" unicode="&#x148;" 
d="M79 129v-15v-1q10 20 30 20q25 -5 31 -29q2 -7 2 -20v-84h-29v78q0 29 -17 29q-16 -2 -17 -29v-78h-29v129h29zM108 162l14 23h18l-21 -37h-22l-20 37h18z" />
    <glyph glyph-name="omacron" unicode="&#x14d;" 
d="M146 65q-2 -65 -50 -67q-48 2 -50 67q2 65 50 68q48 -3 50 -68zM76 65q-1 -44 20 -43q21 -1 20 43q1 43 -20 42q-21 1 -20 -42zM128 175v-18h-65v18h65z" />
    <glyph glyph-name="umacron" unicode="&#x16b;" 
d="M114 0l-1 16q-11 -19 -30 -18q-25 3 -32 27q-2 16 -2 20v84h29v-77q0 -30 17 -30q16 2 18 30v77h29v-106q0 -11 1 -23h-29zM129 175v-18h-66v18h66z" />
    <glyph glyph-name="uni01CE" unicode="&#x1ce;" 
d="M75 65q0 -43 20.5 -42.5t21.5 42.5q-2 41 -21 42q-21 0 -21 -42zM117 114v17h29v-105v-26h-28q-1 9 -1 18h-1q-8 -20 -29 -20q-38 2 -41 67q3 65 45 68q16 -1 25 -19h1zM94 162l13 23h18l-20 -37h-23l-19 37h17z" />
    <glyph glyph-name="uni01D0" unicode="&#x1d0;" 
d="M110 0h-29v129h29v-129zM96 162l14 23h17l-20 -37h-23l-19 37h18z" />
    <glyph glyph-name="uni01D2" unicode="&#x1d2;" 
d="M146 65q-2 -65 -50 -67q-48 2 -50 67q2 65 50 68q48 -3 50 -68zM76 65q-1 -44 20 -43q21 -1 20 43q1 43 -20 42q-21 1 -20 -42zM97 162l13 23h18l-21 -37h-22l-20 37h18z" />
    <glyph glyph-name="uni01D4" unicode="&#x1d4;" 
d="M114 0l-1 16q-11 -19 -30 -18q-25 3 -32 27q-2 16 -2 20v84h29v-77q0 -30 17 -30q16 2 18 30v77h29v-106q0 -11 1 -23h-29zM96 162l14 23h17l-20 -37h-22l-20 37h18z" />
    <glyph glyph-name="uni01D6" unicode="&#x1d6;" 
d="M123 155h-20v30h20v-30zM90 155h-20v30h20v-30zM114 0l-1 16q-11 -19 -30 -18q-25 3 -32 27q-2 16 -2 20v84h29v-77q0 -30 17 -30q16 2 18 30v77h29v-106q0 -11 1 -23h-29zM129 219v-18h-66v18h66z" />
    <glyph glyph-name="uni01D8" unicode="&#x1d8;" 
d="M123 155h-20v30h20v-30zM90 155h-20v30h20v-30zM114 0l-1 16q-11 -19 -30 -18q-25 3 -32 27q-2 16 -2 20v84h29v-77q0 -30 17 -30q16 2 18 30v77h29v-106q0 -11 1 -23h-29zM100 192h-26l27 37h15z" />
    <glyph glyph-name="uni01DA" unicode="&#x1da;" 
d="M123 155h-20v30h20v-30zM90 155h-20v30h20v-30zM114 0l-1 16q-11 -19 -30 -18q-25 3 -32 27q-2 16 -2 20v84h29v-77q0 -30 17 -30q16 2 18 30v77h29v-106q0 -11 1 -23h-29zM97 206l13 23h18l-20 -37h-22l-20 37h17z" />
    <glyph glyph-name="uni01DC" unicode="&#x1dc;" 
d="M123 155h-20v30h20v-30zM90 155h-20v30h20v-30zM114 0l-1 16q-11 -19 -30 -18q-25 3 -32 27q-2 16 -2 20v84h29v-77q0 -30 17 -30q16 2 18 30v77h29v-106q0 -11 1 -23h-29zM76 229h26l16 -37h-16z" />
    <glyph glyph-name="uni0251" unicode="&#x251;" 
d="M75 65q0 -43 20.5 -42.5t21.5 42.5q-2 41 -21 42q-21 0 -21 -42zM117 114v17h29v-105v-26h-28q-1 9 -1 18h-1q-8 -20 -29 -20q-38 2 -41 67q3 65 45 68q16 -1 25 -19h1z" />
    <glyph glyph-name="uni0261" unicode="&#x261;" 
d="M78 67q0 -39 18.5 -39t18.5 39.5t-18.5 39.5t-18.5 -40zM144 129v-117q2 -62 -47 -60q-45 -1 -45 41h27q2 -15 16 -16q24 -1 20 43q-9 -17 -27 -17q-37 3 -40 64q3 63 41 66q19 0 26 -19v15h29z" />
    <glyph glyph-name="caron" unicode="&#x2c7;" 
d="M96 162l14 23h17l-20 -37h-23l-19 37h18z" />
    <glyph glyph-name="uni02C9" unicode="&#x2c9;" 
d="M143 151h-94v29h94v-29z" />
    <glyph glyph-name="Alpha" unicode="&#x391;" 
d="M51 0h-18l52 178h20l54 -178h-18l-17 56h-57zM118 75l-24 80l-22 -80h46z" />
    <glyph glyph-name="Beta" unicode="&#x392;" 
d="M46 178h52q28 0 38 -30q7 -40 -14 -54q-1 0 0 -1q27 -11 24 -53q-8 -38 -38 -40h-62v178zM62 159v-57h36q21 1 23 29q-1 27 -22 28h-37zM62 83v-63h39q25 1 28 31q-2 30 -26 32h-41z" />
    <glyph glyph-name="Gamma" unicode="&#x393;" 
d="M52 178h88v-19h-73v-158h-15v177z" />
    <glyph glyph-name="uni0394" unicode="&#x394;" 
d="M94 182l66 -182h-128zM94 131l-36 -110h75z" />
    <glyph glyph-name="Epsilon" unicode="&#x395;" 
d="M123 102v-20h-55v-62h71v-20h-86v178h83v-19h-68v-57h55z" />
    <glyph glyph-name="Zeta" unicode="&#x396;" 
d="M52 178h96l-75 -158h75v-19h-104l75 158h-67v19z" />
    <glyph glyph-name="Eta" unicode="&#x397;" 
d="M129 105v73h16v-177h-16v85h-66v-85h-16v177h16v-73h66z" />
    <glyph glyph-name="Theta" unicode="&#x398;" 
d="M63 102h66v-19h-66v19zM96 167q-45 -1 -46 -75q2 -71 46 -75q45 3 46 76q-3 72 -46 74zM97 187q59 -4 61 -95q-2 -90 -62 -93q-60 4 -62 92q2 94 63 96z" />
    <glyph glyph-name="Iota" unicode="&#x399;" 
d="M88 178h16v-177h-16v177z" />
    <glyph glyph-name="Kappa" unicode="&#x39a;" 
d="M120 178h22q-24 -51 -63 -84v-1q40 -38 67 -92h-23q-26 49 -62 83v-83h-15v177h15v-76q39 35 59 76z" />
    <glyph glyph-name="Lambda" unicode="&#x39b;" 
d="M86 178h20l54 -178h-20l-44 154l-45 -154h-19z" />
    <glyph glyph-name="Mu" unicode="&#x39c;" 
d="M36 178h22l39 -101l38 101h21v-177h-15v149l-42 -113h-6l-42 115v-151h-15v177z" />
    <glyph glyph-name="Nu" unicode="&#x39d;" 
d="M47 178h15l68 -124v124h15v-177h-8l-75 140v-140h-15v177z" />
    <glyph glyph-name="Xi" unicode="&#x39e;" 
d="M46 179h99l-61 -77h61l-63 -82h64v-20h-100l62 83h-61l60 77h-61v19z" />
    <glyph glyph-name="Omicron" unicode="&#x39f;" 
d="M96 166q-45 -1 -46 -75q1 -70 46 -74q45 3 46 76q-3 71 -46 73zM97 186q60 -3 61 -95q-2 -90 -62 -92q-60 4 -62 92q2 93 63 95z" />
    <glyph glyph-name="Pi" unicode="&#x3a0;" 
d="M67 0h-15v157h-17v20h122v-20h-17v-157h-15v157h-58v-157z" />
    <glyph glyph-name="Rho" unicode="&#x3a1;" 
d="M53 178h43q41 -1 43 -56q-3 -50 -41 -53h-30v-68h-15v177zM68 158v-68h29q24 2 26 32q-2 34 -26 36h-29z" />
    <glyph glyph-name="Sigma" unicode="&#x3a3;" 
d="M46 180h99v-19h-75l59 -73l-60 -68h78v-20h-102v21l58 68l-57 69v22z" />
    <glyph glyph-name="Tau" unicode="&#x3a4;" 
d="M104 0h-16v157h-49v20h114v-20h-49v-157z" />
    <glyph glyph-name="Upsilon" unicode="&#x3a5;" 
d="M32 178h19l45 -85l45 85h19l-56 -107v-70h-16v69z" />
    <glyph glyph-name="Phi" unicode="&#x3a6;" 
d="M104 0h-16v17q-54 6 -55 74q1 67 55 74v13h16v-13q53 -8 55 -75q-1 -67 -55 -73v-17zM88 37v108q-40 -5 -39.5 -53.5t39.5 -54.5zM104 144v-107q40 7 39.5 53t-39.5 54z" />
    <glyph glyph-name="Chi" unicode="&#x3a7;" 
d="M54 1h-20l52 90l-50 87h21l39 -69l40 69h20l-50 -87l52 -90h-20l-42 72z" />
    <glyph glyph-name="Psi" unicode="&#x3a8;" 
d="M34 178h16q0 -63 38 -77v76h16v-77q38 11 38 78h16q0 -88 -54 -99v-78h-16v78q-53 13 -54 99z" />
    <glyph glyph-name="uni03A9" unicode="&#x3a9;" 
d="M149 21v-20h-44v25q34 29 35 79q-5 52 -43 56q-42 -2 -45 -53q1 -50 35 -82v-25h-44v20h26q-31 36 -32 88q4 68 59 72q55 -4 59 -76q-1 -53 -32 -84h26z" />
    <glyph glyph-name="alpha" unicode="&#x3b1;" 
d="M148 123v-22q-20 -7 -20 -41q1 -28 20 -39v-21q-21 9 -26 28q0 2 -1 0q-11 -28 -37 -28q-38 2 -40 61q1 62 43 64q22 0 34 -26q0 -1 2 0q7 20 25 24zM58 61q1 -39 27 -41q27 3 28 45q-4 38 -26 41q-29 0 -29 -45z" />
    <glyph glyph-name="beta" unicode="&#x3b2;" 
d="M103 90h-23v17h8q22 2 24 28q-1 30 -21 32q-23 0 -24 -33v-106q14 -12 29 -12q27 4 29 39q-1 34 -22 35zM67 -52h-16v187q2 49 40 51q35 -1 36 -49q0 -20 -9 -31v-1q22 -15 23 -49q-3 -54 -44 -57q-16 -1 -30 7v-58z" />
    <glyph glyph-name="gamma" unicode="&#x3b3;" 
d="M140 122l13 -16q-47 -64 -71 -160h-16q7 37 21 70q-7 82 -48 85l5 19q42 -2 54 -74q22 48 42 76z" />
    <glyph glyph-name="delta" unicode="&#x3b4;" 
d="M137 160l-6 -19q-44 32 -56 14q-1 -15 25 -31q38 -18 37 -67q-4 -54 -41 -57q-40 3 -41 60q0 42 26 55q-28 23 -21 50q6 17 31.5 15.5t45.5 -20.5zM96 101q-25 -2 -26 -44q1 -35 26 -39q24 3 26 40q-2 42 -26 43z" />
    <glyph glyph-name="epsilon" unicode="&#x3b5;" 
d="M125 116l-5 -19q-31 18 -37 -8q-1 -18 16 -21h21v-19h-20q-18 -1 -19 -18q5 -28 41 -4l4 -20q-54 -23 -60 23q0 16 11 29q0 1 -1 3q-8 13 -7 29q10 49 56 25z" />
    <glyph glyph-name="zeta" unicode="&#x3b6;" 
d="M126 166l14 -10l-29 -63q-37 27 -44 -11q0 -11 19 -33q7 -8 11 -13q13 -17 13 -33q-2 -31 -33 -32h-12l2 20h8q19 1 19.5 11.5t-17.5 30.5q-24 28 -24 46q7 59 52 39z" />
    <glyph glyph-name="eta" unicode="&#x3b7;" 
d="M141 71v-125h-15v125q-1 30 -17 31q-21 -3 -23 -31v-71h-15v88v1q1 14 -14 -3l-7 15q13 18 22.5 19.5t10.5 -14.5q1 0 6 7.5t23 7.5q28 -2 29 -50z" />
    <glyph glyph-name="theta" unicode="&#x3b8;" 
d="M119 77h-46q3 -59 22 -61q22 2 24 61zM96 176q36 -1 37 -85q1 -89 -36 -92q-38 -1 -38 92q1 84 37 85zM73 97h46q-3 58 -23.5 58.5t-22.5 -58.5z" />
    <glyph glyph-name="iota" unicode="&#x3b9;" 
d="M84 119h14v-92q-1 -11 9 -10l1 -16q-23 -5 -24 14v104z" />
    <glyph glyph-name="kappa" unicode="&#x3ba;" 
d="M117 121l13 -14q-18 -21 -39 -43l15 -15q19 -20 29 -32l-10 -16q-26 30 -53 57v-57h-15v119h15v-50q24 24 45 51z" />
    <glyph glyph-name="lambda" unicode="&#x3bb;" 
d="M143 12l-9 -16q-12 4 -26 69q-5 22 -8 34l-33 -98h-15l41 123q-9 34 -17 32q-8 2 -23 -10l-4 20q18 12 28 10q21 2 33 -56q3 -15 9 -39q13 -70 24 -69z" />
    <glyph glyph-name="uni03BC" unicode="&#x3bc;" 
d="M56 117h15v-65q2 -33 22 -35q18 2 22 33v67h15v-72q-1 -26 6 -37l-11 -10q-6 7 -7 15q-8 -14 -25 -14q-14 0 -22 11v-46h-15v153z" />
    <glyph glyph-name="nu" unicode="&#x3bd;" 
d="M118 117h16q-9 -88 -46 -117h-12q-4 95 -18 109l12 13q15 -13 19 -100q25 34 29 95z" />
    <glyph glyph-name="xi" unicode="&#x3be;" 
d="M130 176v-20q-48 15 -52 -22q1 -26 25 -28h27v-19h-23q-33 -4 -34 -35q2 -28 28 -33q32 -5 32 -32q-2 -39 -35 -41q-9 0 -18 4l4 19q34 -10 33 23q-3 8 -18 10q-17 3 -25 10q-14 13 -15 38q0 36 22 47q-20 9 -18 43q8 51 67 36z" />
    <glyph glyph-name="omicron" unicode="&#x3bf;" 
d="M95 108q-23 -4 -25 -44q3 -43 25 -44q27 0 27 44q-2 43 -27 44zM95 127q40 -2 41 -62q0 -65 -41 -65q-38 4 -39 66q3 59 39 61z" />
    <glyph glyph-name="pi" unicode="&#x3c0;" 
d="M81 1h-16v100h-10q-5 1 -13 -1q-6 -1 -9 -1v19q2 0 6 1q8 2 12 2h108v-20h-32v-66q0 -9 7 -10l-1 -23q-21 0 -22 26v73h-30v-100z" />
    <glyph glyph-name="rho" unicode="&#x3c1;" 
d="M71 15v-66h-16v96q2 74 44 76q34 -3 38 -62q-3 -58 -38 -59q-20 0 -28 15zM98 101q-23 -4 -27 -41q3 -38 26 -43q24 2 25 40q-1 41 -24 44z" />
    <glyph glyph-name="sigma" unicode="&#x3c3;" 
d="M144 116v-17h-25q10 -16 10 -42q-2 -57 -40 -59q-39 1 -41 59q2 57 40 61q6 0 11 -2h45zM88 98q-23 -2 -25 -41q1 -39 26 -41q24 1 25 41q-2 39 -26 41z" />
    <glyph glyph-name="tau" unicode="&#x3c4;" 
d="M116 20v-20q-23 -1 -23 21v75h-25q-2 0 -7.5 -1t-8.5 -2v19q2 0 5 1q7 2 11 2h72v-19h-32v-67q0 -9 8 -9z" />
    <glyph glyph-name="upsilon" unicode="&#x3c5;" 
d="M55 121h16v-41q1 -60 26 -62q23 3 24 64v39h16v-39q-1 -82 -41 -83q-41 1 -41 81v41z" />
    <glyph glyph-name="phi" unicode="&#x3c6;" 
d="M88 21v82q-23 -6 -24 -40q1 -34 24 -42zM88 123v51h15v-51q39 -7 40 -62q-2 -53 -40 -60v-49h-15v49q-37 10 -39 62q1 51 39 60zM103 103v-83q24 7 25 41q0 36 -25 42z" />
    <glyph glyph-name="chi" unicode="&#x3c7;" 
d="M61 -38h-18l44 86q-20 49 -24 52q-4 5 -10 3q-1 -1 -2 -1l-4 20q21 8 30 -12q10 -22 19 -43l28 56h17l-37 -76q5 -12 15 -37q5 -13 7 -19q7 -16 17 -13q2 1 3 1l3 -17q-8 -5 -14 -4q-13 -1 -23 26q-9 25 -18 44z" />
    <glyph glyph-name="psi" unicode="&#x3c8;" 
d="M37 88v29h14v-30q1 -63 38 -70v100h14v-100q37 9 38 76v24h14v-25q-1 -86 -52 -93v-51h-14v51q-52 5 -52 89z" />
    <glyph glyph-name="omega" unicode="&#x3c9;" 
d="M70 122l3 -22q-26 -9 -29 -45q1 -33 22 -37q20 0 22 46v16h15v-17q2 -42 23 -45q20 3 20 37.5t-28 46.5l2 20q40 -12 43 -64q0 -56 -36 -59q-20 0 -31 22q0 1 0 0.5t-1 -0.5q-7 -21 -29 -22q-36 1 -37 56q4 57 41 67z" />
    <glyph glyph-name="uni0401" unicode="&#x401;" 
d="M144 1h-96v177h93v-22h-76v-53h69v-22h-69v-59h79v-21zM88 221v-26h-18v26h18zM119 221v-25h-17v25h17z" />
    <glyph glyph-name="uni0410" unicode="&#x410;" 
d="M36 0l49 178h21l50 -178h-19l-13 45h-57l-12 -45h-19zM95 153l-23 -86h47z" />
    <glyph glyph-name="uni0411" unicode="&#x411;" 
d="M44 0v179h94v-22h-77v-48h42q44 -4 45 -53q-2 -55 -43 -56h-61zM103 86h-42v-63h45q24 1 24 31.5t-27 31.5z" />
    <glyph glyph-name="uni0412" unicode="&#x412;" 
d="M44 0v181h62q32 -1 36 -44q0 -33 -21 -42q26 -8 27 -44q-1 -50 -41 -51h-63zM103 158h-42v-54h35q27 0 27 31q-2 22 -20 23zM102 82h-41v-59h41q28 -1 28 27q2 28 -28 32z" />
    <glyph glyph-name="uni0413" unicode="&#x413;" 
d="M71 0h-17v178h84v-22h-67v-156z" />
    <glyph glyph-name="uni0414" unicode="&#x414;" 
d="M65 138v43h81v-158h18l-1 -60h-15v38h-103v-38h-16l-1 60h12q26 34 25 115zM129 23v136h-48v-20q1 -81 -20 -116h68z" />
    <glyph glyph-name="uni0415" unicode="&#x415;" 
d="M144 1h-96v177h93v-22h-76v-53h69v-22h-69v-59h79v-21z" />
    <glyph glyph-name="uni0416" unicode="&#x416;" 
d="M69 96l-59 82h23l55 -77v77h17v-77l56 77h21l-60 -81l62 -96h-23l-56 89v-89h-17v91l-58 -92l-23 1z" />
    <glyph glyph-name="uni0417" unicode="&#x417;" 
d="M61 131h-17q4 54 53 54q43 -1 47 -46q2 -32 -21 -42q26 -4 28 -46q-5 -51 -50 -51q-55 -4 -60 57h17q1 -40 40 -39q32 1 37 33q0 33 -31 35h-21v22h18q27 2 27 30q-4 26 -32 27q-34 0 -35 -34z" />
    <glyph glyph-name="uni0418" unicode="&#x418;" 
d="M43 0v178h17v-140l70 140h19v-178h-17v143l-71 -143h-18z" />
    <glyph glyph-name="uni0419" unicode="&#x419;" 
d="M43 0v178h17v-140l70 140h19v-178h-17v143l-72 -143h-17zM64 230h15q2 -17 18 -17.5t19 17.5h14q-5 -33 -34 -35q-27 2 -32 35z" />
    <glyph glyph-name="uni041A" unicode="&#x41a;" 
d="M44 1v178h16v-78l61 77h23l-63 -81l68 -97h-23l-66 92v-91h-16z" />
    <glyph glyph-name="uni041B" unicode="&#x41b;" 
d="M71 179h83v-179h-17v156h-49v-50q3 -107 -50 -106v24q21 0 27 22q7 17 6 84v49z" />
    <glyph glyph-name="uni041C" unicode="&#x41c;" 
d="M28 0v178h26l43 -143l41 143h26v-178h-17v149l-44 -148h-14l-44 146v-147h-17z" />
    <glyph glyph-name="uni041D" unicode="&#x41d;" 
d="M63 83v-82h-17v177h17v-73h66v73h17v-178h-17v83h-66z" />
    <glyph glyph-name="uni041E" unicode="&#x41e;" 
d="M95 164q-43 -2 -45 -72q3 -70 46 -73q46 1 46 73q-3 69 -47 72zM95 187q60 -2 64 -95q0 -92 -64 -94q-59 3 -62 94q3 90 62 95z" />
    <glyph glyph-name="uni041F" unicode="&#x41f;" 
d="M45 0v179h102v-179h-17v157h-68v-157h-17z" />
    <glyph glyph-name="uni0420" unicode="&#x420;" 
d="M46 0v178h55q42 -1 45 -51q0 -57 -43 -57h-40v-70h-17zM100 157h-37v-66h39q28 5 27 34q-5 32 -29 32z" />
    <glyph glyph-name="uni0421" unicode="&#x421;" 
d="M155 124h-18q-6 40 -40 40q-42 -5 -45 -71q1 -74 46 -74q35 -1 40 41h18q-6 -59 -57 -61q-62 1 -63 94q4 91 61 93q52 -2 58 -62z" />
    <glyph glyph-name="uni0422" unicode="&#x422;" 
d="M88 0v157h-44v21h104v-21h-43v-157h-17z" />
    <glyph glyph-name="uni0423" unicode="&#x423;" 
d="M91 47l-49 130l20 1l39 -103l30 103h19l-44 -146q-7 -41 -48 -31v22q29 -8 33 24z" />
    <glyph glyph-name="uni0424" unicode="&#x424;" 
d="M88 48v100q-52 1 -52.5 -50.5t52.5 -49.5zM88 169v27h16v-27q72 -1 68 -71q3 -68 -68 -71v-26h-16v26q-69 0 -68 71q-1 70 68 71zM104 148v-100q55 1 51 51q3 48 -51 49z" />
    <glyph glyph-name="uni0425" unicode="&#x425;" 
d="M84 90l-44 88h21l35 -69l34 69h21l-44 -87l48 -91h-23l-36 72l-37 -71h-22z" />
    <glyph glyph-name="uni0426" unicode="&#x426;" 
d="M36 0v178h16v-155h69v155h17v-156h18l-1 -58h-15v36h-104z" />
    <glyph glyph-name="uni0427" unicode="&#x427;" 
d="M50 131v47h17v-47q0 -29 20 -32h14q5 -1 13.5 0.5t11.5 1.5v77h17v-178h-17v78q-3 0 -10 -0.5t-10 -1.5h-15q-40 -1 -41 55z" />
    <glyph glyph-name="uni0428" unicode="&#x428;" 
d="M175 0h-158v179h17v-156h53v156h17v-156h54v156h17v-179z" />
    <glyph glyph-name="uni0429" unicode="&#x429;" 
d="M169 0h-163v178h17v-155h55v155h17v-155h55v155h16v-155h20l-1 -59h-16v36z" />
    <glyph glyph-name="uni042A" unicode="&#x42a;" 
d="M81 23h36q28 0 28 35q-2 32 -26 30h-38v-65zM64 1v156h-35v22h52v-68h40q39 -2 42 -53q-1 -56 -44 -57h-55z" />
    <glyph glyph-name="uni042B" unicode="&#x42b;" 
d="M147 178h17v-177h-17v177zM28 0v179h17v-69h40q37 -5 42 -51v-2q-1 -56 -44 -57h-55zM45 23h36q27 0 29 33q-3 30 -27 31h-38v-64z" />
    <glyph glyph-name="uni042C" unicode="&#x42c;" 
d="M47 0v179h16v-69h40q40 -4 43 -52q-1 -58 -45 -58h-54zM63 23h37q27 1 28 34q-3 30 -26 31h-39v-65z" />
    <glyph glyph-name="uni042D" unicode="&#x42d;" 
d="M56 130h-19q11 60 59 58q56 -6 60 -94q-3 -89 -60 -95q-56 1 -59 62h19q0 -40 40 -41q39 5 42 65h-65v23h65q-7 56 -43 57q-32 2 -39 -35z" />
    <glyph glyph-name="uni042E" unicode="&#x42e;" 
d="M114 164q-43 -3 -45 -70q0 -74 45 -75q46 1 45.5 72.5t-45.5 72.5zM52 87h-20v-84h-17v179h17v-74h20q8 77 63 78q60 -1 62 -94q-1 -92 -63 -93q-58 1 -62 88z" />
    <glyph glyph-name="uni042F" unicode="&#x42f;" 
d="M67 1h-22l33 70q-32 8 -33 53q0 55 44 55h58v-178h-17v70h-31zM130 157h-39q-29 0 -29.5 -32t28.5 -32h40v64z" />
    <glyph glyph-name="uni0430" unicode="&#x430;" 
d="M133 94v-63q1 -12 9 -10v-20h-12q-11 1 -12 16q0 1 -2 0q-15 -22 -42 -17q-23 5 -24 33q0 37 33 41q1 0 5 1q26 3 28 16v2q1 23 -23 23q-22 -1 -24 -23h-16q1 41 40 44q39 -1 40 -43zM116 53v14q-7 -8 -29 -10q-20 -1 -21 -24q0 -20 24 -17q23 7 26 37z" />
    <glyph glyph-name="uni0431" unicode="&#x431;" 
d="M121 189h16q-3 -32 -37 -34q-36 -2 -38 -49q11 25 36 26q42 -2 46 -66q-3 -65 -49 -67q-45 4 -47 76v20q2 52 23 71q12 7 28.5 8.5t21.5 14.5zM67 64q1 -41 27 -49q30 1 33 47q-2 52 -29 52q-30 -1 -31 -50z" />
    <glyph glyph-name="uni0432" unicode="&#x432;" 
d="M56 1v134h51q20 -1 26 -26q3 -30 -15 -38q20 -9 17 -40q-5 -29 -27 -30h-52zM100 117h-27v-37h27q16 1 17 19q-1 17 -17 18zM102 62h-29v-43h29q16 1 17 22q-1 20 -17 21z" />
    <glyph glyph-name="uni0433" unicode="&#x433;" 
d="M80 110v-109h-17v128h66v-19h-49z" />
    <glyph glyph-name="uni0434" unicode="&#x434;" 
d="M66 98v35h70v-114h17l-2 -48h-15v29h-80v-29h-16l-1 48h12q16 25 15 79zM70 19h49v95h-36v-19q-2 -52 -13 -76z" />
    <glyph glyph-name="uni0435" unicode="&#x435;" 
d="M142 61h-75q2 -37 28 -44q23 2 28 24h19q-13 -44 -46 -43q-44 5 -46 72q4 69 47 70q47 -2 45 -79zM68 81h56q-2 36 -26 39q-27 0 -30 -39z" />
    <glyph glyph-name="uni0436" unicode="&#x436;" 
d="M71 70l-42 61h22l36 -55v55h17v-56l36 56h21l-41 -61l44 -69h-21l-39 65v-65h-17v65l-38 -66h-21l43 69v1z" />
    <glyph glyph-name="uni0437" unicode="&#x437;" 
d="M72 97h-16q6 39 42 41q34 -2 36 -38q0 -24 -14 -29q-1 -1 0 -2q18 -5 18 -31q-1 -38 -40 -39q-43 1 -44 45h16q0 -27 28 -29q23 2 25 22q-1 23 -21 23h-17v20h16q17 1 18 19q-2 19 -21 20t-26 -22z" />
    <glyph glyph-name="uni0438" unicode="&#x438;" 
d="M73 1h-19v130h17v-97l48 97h19v-130h-16v98z" />
    <glyph glyph-name="uni0439" unicode="&#x439;" 
d="M63 180h14q2 -18 18 -20q17 1 20 20h14q-6 -34 -34 -35q-28 2 -32 35zM73 1h-19v130h17v-97l48 97h19v-130h-16v98z" />
    <glyph glyph-name="uni043A" unicode="&#x43a;" 
d="M55 0v131h17v-59l41 59h21l-45 -63l48 -68h-22l-43 63v-63h-17z" />
    <glyph glyph-name="uni043B" unicode="&#x43b;" 
d="M74 82v49h68v-131h-17v112h-34v-46q1 -67 -34 -66h-7v20q16 -1 20 11q4 10 4 51z" />
    <glyph glyph-name="uni043C" unicode="&#x43c;" 
d="M58 0h-17v131h22l34 -103l33 103h21v-131h-17v97l-31 -96h-14l-31 99v-100z" />
    <glyph glyph-name="uni043D" unicode="&#x43d;" 
d="M55 1v130h17v-53h48v53h17v-130h-17v58h-48v-58h-17z" />
    <glyph glyph-name="uni043E" unicode="&#x43e;" 
d="M96 118q-28 -4 -30 -50q2 -51 30 -53q29 1 30 52q-1 49 -30 51zM96 136q45 -2 47 -69q-2 -66 -46 -68q-46 2 -48 69q2 65 47 68z" />
    <glyph glyph-name="uni043F" unicode="&#x43f;" 
d="M55 1v130h82v-130h-17v111h-48v-111h-17z" />
    <glyph glyph-name="uni0440" unicode="&#x440;" 
d="M67 132v-17q12 22 34 22q38 -3 41 -72q-2 -64 -42 -67q-21 0 -33 20v-62h-17v176h17zM98 12q26 5 27 54q-2 53 -30 54q-26 -2 -28 -54q2 -50 31 -54z" />
    <glyph glyph-name="uni0441" unicode="&#x441;" 
d="M124 48h17q-6 -50 -44 -50q-45 2 -46 69q2 67 45 71q40 -3 44 -47h-17q-2 27 -26 28q-28 -2 -29 -52q1 -48 29 -52q24 2 27 33z" />
    <glyph glyph-name="uni0442" unicode="&#x442;" 
d="M54 114v18h83v-18h-33v-113h-17v113h-33z" />
    <glyph glyph-name="uni0443" unicode="&#x443;" 
d="M91 0l-42 129h20l31 -101l26 101h17l-40 -150q-8 -32 -36 -25q-1 1 -2 1v21q22 -9 26 24z" />
    <glyph glyph-name="uni0444" unicode="&#x444;" 
d="M88 19v98q-45 -3 -43 -50q-1 -48 43 -48zM88 139v44h17v-44q60 -3 59 -71q1 -68 -59 -69v-40h-17v40q-60 1 -60 68q1 69 60 72zM105 117v-98q43 1 42 49q1 46 -42 49z" />
    <glyph glyph-name="uni0445" unicode="&#x445;" 
d="M86 67l-34 64h20l24 -48l24 48h20l-34 -64l37 -67h-20l-26 52l-28 -51h-20z" />
    <glyph glyph-name="uni0446" unicode="&#x446;" 
d="M46 1v131h17v-113h49v113h17v-112h17l-2 -49h-14v30h-84z" />
    <glyph glyph-name="uni0447" unicode="&#x447;" 
d="M58 83v48h17v-43q-1 -18 26 -17h16v60h17v-130h-17v51h-29q-30 0 -30 31z" />
    <glyph glyph-name="uni0448" unicode="&#x448;" 
d="M30 0v132h17v-113h41v113h16v-113h41v113h17v-132h-132z" />
    <glyph glyph-name="uni0449" unicode="&#x449;" 
d="M153 1h-130v131h17v-112h40v112h17v-112h39v112h17v-112h16l-1 -47h-15v28z" />
    <glyph glyph-name="uni044A" unicode="&#x44a;" 
d="M68 0v112h-25v18h42v-49h33q30 -1 31 -41q-2 -39 -30 -40h-51zM116 63h-31v-44h30q16 0 17 21q-2 21 -16 23z" />
    <glyph glyph-name="uni044B" unicode="&#x44b;" 
d="M151 0h-17v130h17v-130zM41 0v130h17v-48h33q28 -2 31 -39q-1 -42 -30 -43h-51zM89 63h-31v-44h30q16 1 17 22q-1 21 -16 22z" />
    <glyph glyph-name="uni044C" unicode="&#x44c;" 
d="M56 0v130h17v-48h32q30 -2 31 -42q-1 -38 -30 -40h-50zM103 63h-30v-44h29q17 0 18 22q-1 21 -17 22z" />
    <glyph glyph-name="uni044D" unicode="&#x44d;" 
d="M68 92h-16q6 45 44 47q44 -1 45 -70q-1 -69 -45 -70q-39 1 -45 50h17q5 -31 28 -32q26 2 28 44h-41v19h41q-5 37 -28 38q-23 -1 -28 -26z" />
    <glyph glyph-name="uni044E" unicode="&#x44e;" 
d="M113 120q-29 -1 -30 -51q1 -53 30 -54q28 1 28.5 53t-28.5 52zM66 64h-16v-61h-17v130h17v-53h17q5 56 46 58q45 -1 46 -70q-1 -69 -47 -70q-42 1 -46 66z" />
    <glyph glyph-name="uni044F" unicode="&#x44f;" 
d="M87 132h49v-131h-16v52h-20l-25 -53h-19l25 53q-23 8 -24 40q1 38 30 39zM120 114h-32q-15 -1 -16 -22q1 -19 18 -20h30v42z" />
    <glyph glyph-name="uni0451" unicode="&#x451;" 
d="M142 62h-75q2 -38 29 -44q21 0 27 23h19q-13 -43 -47 -42q-43 6 -45 71q4 69 47 71q47 -2 45 -79zM68 82h56q-2 36 -26 38q-27 -1 -30 -38zM117 183q7 -1 8 -11q-1 -10 -8 -11q-7 1 -8 11q1 10 8 11zM74 183q7 -1 8 -11q-1 -10 -8 -11q-7 1 -8 11q1 10 8 11z" />
    <glyph glyph-name="emdash" unicode="&#x2014;" 
d="M0 73v34h192v-34h-192z" />
    <glyph glyph-name="uni2016" unicode="&#x2016;" 
d="M83 -26h-8v235h8v-235zM117 -26h-8v235h8v-235z" />
    <glyph glyph-name="quoteleft" unicode="&#x2018;" 
d="M143 166h17v-44h-33v39q-2 37 28 56l8 -15q-20 -13 -20 -36z" />
    <glyph glyph-name="quoteright" unicode="&#x2019;" 
d="M37 122l-8 15q20 14 20 36h-17v44h33v-39q2 -37 -28 -56z" />
    <glyph glyph-name="quotedblleft" unicode="&#x201c;" 
d="M166 166h17v-44h-33v39q-2 37 28 56l8 -15q-20 -14 -20 -36zM122 166h17v-44h-33v39q-1 37 27 56l8 -15q-19 -13 -19 -36z" />
    <glyph glyph-name="quotedblright" unicode="&#x201d;" 
d="M62 122l-8 15q20 13 20 36h-17v44h33v-39q2 -37 -28 -56zM18 122l-8 15q20 14 20 36h-17v44h33v-39q1 -37 -28 -56z" />
    <glyph glyph-name="ellipsis" unicode="&#x2026;" 
d="M57 66h-39v52h39v-52zM116 66h-39v52h39v-52zM173 66h-39v52h39v-52z" />
    <glyph glyph-name="perthousand" unicode="&#x2030;" 
d="M37 -30h-24l79 236h24zM125 13q-1 -43 -31 -44q-30 1 -31 43q1 45 31 47q30 -1 31 -46zM107 12q0 23 -12 23.5t-12 -23.5q0 -21 12 -21.5t12 21.5zM191 12q-1 -43 -31 -44q-29 2 -30 44q1 44 30 46q30 -1 31 -46zM172 12q0 23 -11 23.5t-11 -23t11.5 -23t10.5 22.5z
M62 153q0 -45 -31 -46q-29 2 -30 46q1 44 30 46q30 -1 31 -46zM43 152q0 24 -11.5 24.5t-11.5 -24t11.5 -25t11.5 24.5z" />
    <glyph glyph-name="minute" unicode="&#x2032;" 
d="M39 205l-4 -82h-23l-4 82h31z" />
    <glyph glyph-name="second" unicode="&#x2033;" 
d="M77 125h-24l-4 80h31zM34 125h-23l-4 80h31z" />
    <glyph glyph-name="uni203B" unicode="&#x203b;" 
d="M30 13l61 80l-57 77q-3 4 -1 7.5t6 -0.5l58 -77l60 80q7 1 3 -8l-58 -79l59 -79q2 -8 -4 -8l-60 81l-60 -81q-7 -1 -7 7zM46 112q13 -1 14 -19q-1 -17 -14 -19q-13 2 -14 19q1 18 14 19zM97 44q12 -2 14 -19q-1 -17 -14 -19q-14 2 -15 19q2 17 15 19zM146 112
q13 -1 14 -19q-1 -17 -14 -19q-13 2 -14 19q1 18 14 19zM97 182q12 -2 14 -19q-1 -17 -14 -19q-14 2 -15 19q2 17 15 19z" />
    <glyph glyph-name="Euro" unicode="&#x20ac;" horiz-adv-x="158" 
d="M32 47h-20v22h18q-1 9 0 17h-18v22h20q14 65 62 67q45 -2 58 -57l-29 -10q-6 29 -28 30q-22 -1 -29 -30h43v-22h-47v-17h47v-22h-43q8 -30 29 -31q26 1 29 41l29 -13q-10 -63 -58 -64q-49 1 -63 67z" />
    <glyph glyph-name="uni2103" unicode="&#x2103;" 
d="M188 135l-34 -11q-8 35 -33 36q-37 -3 -39 -71q2 -69 39 -73q30 1 35 49l34 -15q-11 -74 -69 -75q-73 5 -76 114q4 108 76 114q53 -3 67 -68zM57 176q-2 -34 -28 -37q-25 3 -27 37q2 34 27 37q26 -3 28 -37zM44 176q-1 18 -15 20q-14 -2 -15 -20q2 -17 15 -19q13 2 15 19
z" />
    <glyph glyph-name="uni2116" unicode="&#x2116;" 
d="M107 -14h-27l-47 134q-4 12 -6 20h-1q1 -14 1 -37v-117h-25v214h29l45 -131q3 -10 6 -21q0 6 -0.5 17.5t-0.5 15.5v119h26v-214zM190 84q-1 -65 -40 -67q-38 4 -40 67q2 65 41 68q37 -2 39 -68zM167 84q0 36 -17 36.5t-17 -36t17 -37t17 36.5zM186 -14h-68v22h68v-22z
" />
    <glyph glyph-name="uni2160" unicode="&#x2160;" 
d="M108 204v-218h-24v218h24z" />
    <glyph glyph-name="uni2161" unicode="&#x2161;" 
d="M130 204v-218h-22v218h22zM84 204v-218h-21v218h21z" />
    <glyph glyph-name="uni2162" unicode="&#x2162;" 
d="M106 204v-218h-20v218h20zM145 204v-218h-21v218h21zM68 204v-218h-21v218h21z" />
    <glyph glyph-name="uni2163" unicode="&#x2163;" 
d="M110 16l40 188h22l-52 -218h-21l-52 218h21l41 -188h1zM39 204v-219h-19v219h19z" />
    <glyph glyph-name="uni2164" unicode="&#x2164;" 
d="M96 16l44 188h23l-56 -218h-22l-56 218h23z" />
    <glyph glyph-name="uni2165" unicode="&#x2165;" 
d="M82 16l42 188h22l-54 -219h-21l-54 219h23zM175 204v-218h-20v218h20z" />
    <glyph glyph-name="uni2166" unicode="&#x2166;" 
d="M178 204v-218h-17v218h17zM152 204v-218h-18v218h18zM71 16l36 188h20l-47 -219h-19l-47 219h20z" />
    <glyph glyph-name="uni2167" unicode="&#x2167;" 
d="M64 16l37 188h19l-47 -218h-18l-47 218h19zM162 204v-218h-17v218h17zM185 204v-218h-18v218h18zM140 204v-218h-17v218h17z" />
    <glyph glyph-name="uni2168" unicode="&#x2168;" 
d="M38 204v-219h-19v219h19zM122 97l51 -111h-24l-39 88l-41 -88h-23l52 111l-49 107h24l37 -84l37 84h24z" />
    <glyph glyph-name="uni2169" unicode="&#x2169;" 
d="M109 96l54 -110h-26l-41 88l-42 -88h-24l54 110l-51 108h26l38 -85l39 85h24z" />
    <glyph glyph-name="uni216A" unicode="&#x216a;" 
d="M94 96l52 -111h-25l-39 89l-40 -89h-24l52 111l-48 108h24l37 -85l37 85h23zM174 204v-218h-20v218h20z" />
    <glyph glyph-name="uni216B" unicode="&#x216b;" 
d="M179 204v-218h-17v218h17zM154 204v-218h-18v218h18zM82 96l47 -111h-22l-36 89l-37 -89h-22l48 111l-45 108h23l34 -85l34 85h21z" />
    <glyph glyph-name="uni2170" unicode="&#x2170;" 
d="M107 144v-158h-22v158h22zM107 173h-22v31h22v-31z" />
    <glyph glyph-name="uni2171" unicode="&#x2171;" 
d="M84 144v-158h-21v158h21zM84 173h-21v31h21v-31zM129 144v-158h-21v158h21zM129 173h-21v31h21v-31z" />
    <glyph glyph-name="uni2172" unicode="&#x2172;" 
d="M106 144v-158h-20v158h20zM106 173h-20v31h20v-31zM144 144v-158h-20v158h20zM144 173h-20v31h20v-31zM68 144v-158h-20v158h20zM68 173h-20v31h20v-31z" />
    <glyph glyph-name="uni2173" unicode="&#x2173;" 
d="M51 143v-158h-18v158h18zM51 172h-18v31h18v-31zM107 12l32 131h20l-42 -158h-20l-41 158h22z" />
    <glyph glyph-name="uni2174" unicode="&#x2174;" 
d="M96 13l37 131h24l-51 -158h-23l-48 158h26l34 -131h1z" />
    <glyph glyph-name="uni2175" unicode="&#x2175;" 
d="M84 14l32 130h21l-44 -158h-20l-42 158h23l29 -130h1zM161 144v-158h-19v158h19zM161 173h-19v31h19v-31z" />
    <glyph glyph-name="uni2176" unicode="&#x2176;" 
d="M172 144v-158h-18v158h18zM172 173h-18v31h18v-31zM146 144v-158h-19v158h19zM146 173h-19v31h19v-31zM70 13l31 130h20l-41 -157h-20l-40 157h21z" />
    <glyph glyph-name="uni2177" unicode="&#x2177;" 
d="M58 14l28 130h18l-37 -158h-18l-36 158h19zM126 144v-157h-16v157h16zM126 173h-16v30h16v-30zM153 144v-157h-17v157h17zM153 173h-17v30h17v-30zM179 144v-157h-17v157h17zM179 173h-17v30h17v-30z" />
    <glyph glyph-name="uni2178" unicode="&#x2178;" 
d="M49 144v-158h-19v158h19zM49 173h-19v31h19v-31zM121 66l41 -80h-25l-28 58l-28 -58h-24l40 80l-38 78h24l27 -56l26 56h24z" />
    <glyph glyph-name="uni2179" unicode="&#x2179;" 
d="M110 66l45 -80h-28l-32 59l-31 -59h-27l45 80l-43 78h28l30 -56l30 56h26z" />
    <glyph glyph-name="arrowleft" unicode="&#x2190;" 
d="M192 95v-10h-157q15 -22 14 -45q-20 36 -49 51q30 14 49 50q1 -26 -14 -46h157z" />
    <glyph glyph-name="arrowup" unicode="&#x2191;" 
d="M101 -36h-9v207q-17 -19 -34 -19q27 28 38 66q10 -36 40 -65q-19 -1 -35 19v-208z" />
    <glyph glyph-name="arrowright" unicode="&#x2192;" 
d="M0 95h157q-13 18 -14 46q19 -35 49 -50q-29 -16 -49 -51q-2 18 14 45h-157v10z" />
    <glyph glyph-name="arrowdown" unicode="&#x2193;" 
d="M101 218v-210q14 19 34 19q-30 -29 -39 -63q-10 36 -39 63q16 2 34 -19v210h10z" />
    <glyph glyph-name="element" unicode="&#x2208;" 
d="M155 24v-14h-69q-48 1 -49 78q1 76 49 77h69v-14h-70q-35 -4 -36 -56h103v-14h-103q0 -56 35 -57h71z" />
    <glyph glyph-name="product" unicode="&#x220f;" 
d="M152 161v-160q-1 -20 19 -19v-6h-59v6q19 -1 18 19v177h-68v-177q-1 -20 18 -19v-6h-59v6q20 -1 19 19v160q0 25 -18 25v6h148v-6q-18 0 -18 -25z" />
    <glyph glyph-name="summation" unicode="&#x2211;" 
d="M146 190l1 -40h-3q0 1 -1 4q-3 26 -29 25h-50l52 -92l-56 -86h71q18 -2 26 28h4q-4 -21 -7 -43q0 -7 -1 -12q-2 0 -5 1q-7 2 -10 2h-96q-2 0 -6 -0.5t-6 -0.5l68 100l-67 116q3 0 9.5 -1t10.5 -1h95z" />
    <glyph glyph-name="radical" unicode="&#x221a;" 
d="M93 0l96 218h3v-10l-102 -235h-4l-62 155l-21 -16l-3 8l36 26z" />
    <glyph glyph-name="proportional" unicode="&#x221d;" 
d="M36 83q2 45 31 47q21 -1 30 -36q13 35 38 34q18 -1 21 -7q0 -3 -2.5 -3.5t-6 0t-5.5 0.5q-26 3 -38 -42q12 -28 36 -26q8 0 12 2q4 0 4 -4q-5 -11 -21 -12q-24 -1 -34 33q-13 -37 -34 -35q-29 2 -31 49zM41 80q1 -29 23 -30q16 0 30 36q1 2 1 3q-10 26 -28 26
q-25 -2 -26 -35z" />
    <glyph glyph-name="infinity" unicode="&#x221e;" 
d="M37 77q1 47 29 49q19 -2 26 -30q12 30 32 30q28 -3 31 -46q-1 -48 -29 -50q-19 2 -26 30q-13 -31 -32 -30q-29 3 -31 47zM150 81q-1 24 -19.5 25t-27.5 -38q7 -14 24 -15q22 2 23 28zM42 76q1 -25 19 -26q16 0 27 36q1 2 1 3q-9 13 -24 14q-22 -2 -23 -27z" />
    <glyph glyph-name="angle" unicode="&#x2220;" 
d="M30 1l92 161l6 -7l-81 -143h114v-11h-131z" />
    <glyph glyph-name="uni2225" unicode="&#x2225;" 
d="M81 -30h-7l94 248h8zM24 -30h-8l95 248h7z" />
    <glyph glyph-name="logicaland" unicode="&#x2227;" 
d="M150 -6h-10l-42 184l-46 -182h-10l50 199h12z" />
    <glyph glyph-name="logicalor" unicode="&#x2228;" 
d="M52 193l44 -188l45 188h9l-48 -201h-12l-48 201h10z" />
    <glyph glyph-name="intersection" unicode="&#x2229;" 
d="M144 0v93q-1 57 -48 59q-47 -2 -48 -59v-93h-11v92q2 72 59 74q57 -2 59 -74v-92h-11z" />
    <glyph glyph-name="union" unicode="&#x222a;" 
d="M144 69v92h11v-91q-1 -72 -59 -73q-58 1 -59 73v91h11v-92q1 -57 48 -59q47 2 48 59z" />
    <glyph glyph-name="integral" unicode="&#x222b;" 
d="M92 35l2 85q2 57 19 58q6 -1 7 -8q0 -5 -5 -5q-2 0 -3.5 3t-2.5 3q-7 4 -8 -51l-2 -86q-2 -85 -21 -81q-6 0 -6 7q0 5 5 5q2 0 3.5 -2.5t2.5 -2.5q7 -6 9 75z" />
    <glyph glyph-name="uni222E" unicode="&#x222e;" 
d="M100 89l-1 -48q14 3 15 24q-1 20 -14 24zM92 42l1 47q-14 -4 -15 -24q1 -19 14 -23zM101 120l-1 -25q18 -5 19 -30q-1 -25 -20 -30v-1q-1 -31 -5 -54q-3 -27 -16 -27q-6 0 -6 7q0 5 5 5q2 0 3.5 -2.5t2.5 -2.5q8 1 8 56l1 20q-18 5 -19 29q1 26 20 30l1 25q3 57 19 58
q6 -1 7 -8q0 -5 -5 -5q-2 0 -3.5 3t-2.5 3q-8 0 -8 -51z" />
    <glyph glyph-name="therefore" unicode="&#x2234;" 
d="M44 17q1 15 13 17q11 -1 12 -17q-1 -16 -12 -17q-12 2 -13 17zM123 17q1 16 12 17q12 -2 13 -17q-1 -15 -13 -17q-11 1 -12 17zM83 106q1 15 13 17q12 -2 13 -17q-1 -15 -13 -17q-12 2 -13 17z" />
    <glyph glyph-name="uni2235" unicode="&#x2235;" 
d="M44 105q1 15 13 17q11 -1 12 -17q-1 -15 -12 -16q-12 1 -13 16zM123 105q1 16 12 17q12 -2 13 -17q-1 -15 -13 -16q-11 1 -12 16zM83 17q1 15 13 17q12 -2 13 -17q-1 -15 -13 -16q-12 1 -13 16z" />
    <glyph glyph-name="uni2236" unicode="&#x2236;" 
d="M113 113h-33v44h33v-44zM113 21h-33v44h33v-44z" />
    <glyph glyph-name="uni2237" unicode="&#x2237;" 
d="M129 140q8 -1 9 -13q-1 -11 -9 -12q-9 1 -10 12q1 12 10 13zM129 50q8 -1 9 -13q-1 -12 -9 -13q-9 1 -10 13q1 12 10 13zM63 140q9 -1 10 -13q-1 -11 -10 -12q-8 1 -9 12q1 12 9 13zM63 50q9 -1 10 -13q-1 -12 -10 -13q-8 1 -9 13q1 12 9 13z" />
    <glyph glyph-name="uni223D" unicode="&#x223d;" 
d="M169 50h-7q-2 52 -31 54q-13 0 -32 -26q-21 -29 -38 -29q-36 -1 -39 66h8q1 -54 30 -55q15 0 34.5 27.5t36.5 27.5q36 -2 38 -65z" />
    <glyph glyph-name="approxequal" unicode="&#x2248;" 
d="M159 119v-14q-15 -17 -32 -17q-12 0 -33 11q-18 9 -28 9q-16 0 -33 -19v14q16 18 32 17q12 0 33 -11q18 -10 28 -10q16 0 33 20zM159 80v-14q-15 -17 -32 -17q-12 0 -33 11q-18 9 -28 9q-16 0 -33 -19v14q16 18 32 17q12 0 33 -11q18 -9 28 -9q16 0 33 19z" />
    <glyph glyph-name="uni224C" unicode="&#x224c;" 
d="M171 12h-153v11h153v-11zM171 49h-153v10h153v-10zM169 87h-7q-2 53 -31 55q-13 0 -32 -26q-21 -29 -38 -29q-36 -1 -39 65h8q1 -53 30 -54q15 0 34 26q20 28 37 28q36 -2 38 -65z" />
    <glyph glyph-name="notequal" unicode="&#x2260;" 
d="M76 58h-44v11h51l15 27h-66v12h73l34 59h10l-34 -59h45v-12h-52l-15 -27h67v-11h-74l-34 -59h-9z" />
    <glyph glyph-name="equivalence" unicode="&#x2261;" 
d="M159 111h-126v12h126v-12zM159 41h-126v12h126v-12zM159 76h-126v12h126v-12z" />
    <glyph glyph-name="lessequal" unicode="&#x2264;" 
d="M161 59v-15l-130 47v16l130 48v-15l-114 -40v-1zM161 12v-13l-130 47v15z" />
    <glyph glyph-name="greaterequal" unicode="&#x2265;" 
d="M161 61v-15l-130 -47v13zM161 107v-16l-130 -47v15l114 40v1l-114 40v15z" />
    <glyph glyph-name="uni226E" unicode="&#x226e;" 
d="M85 61l17 52l-58 -30zM160 21v-12l-70 38l-17 -48h-8l17 52l-50 27v10l74 40l13 39h9l-11 -34l43 23v-12l-48 -25l-19 -62z" />
    <glyph glyph-name="uni226F" unicode="&#x226f;" 
d="M73 -1h-8l11 34l-44 -23v12l48 25l20 62l-68 36v12l71 -38l16 48h8l-16 -52l49 -27v-10l-73 -39zM108 105l-17 -52l57 30z" />
    <glyph glyph-name="uni2299" unicode="&#x2299;" 
d="M96 77q-10 1 -11 14q1 14 11 15q10 -1 11 -15q-1 -13 -11 -14zM96 9q56 7 61 82q-5 76 -61 83q-56 -7 -61 -83q5 -75 61 -82zM96 185q64 -8 70 -94q-6 -84 -70 -91q-64 7 -70 91q6 86 70 94z" />
    <glyph glyph-name="perpendicular" unicode="&#x22a5;" 
d="M39 12h53v150h8v-150h53v-11h-114v11z" />
    <glyph glyph-name="uni2312" unicode="&#x2312;" 
d="M176 58l-1 -2q-3 0 -10 11q-30 43 -67 45h-5q-37 -2 -66 -45q-7 -11 -10 -11l-1 2q27 72 80.5 72.5t79.5 -72.5z" />
    <glyph glyph-name="uni2460" unicode="&#x2460;" 
d="M96 219q86 -11 94 -125q-8 -113 -94 -123q-86 10 -94 123q8 114 94 125zM104 179v-170h-16v120h-29v17q30 -1 33 33h12zM96 212q-81 -10 -89 -118q7 -107 89 -117q82 10 89 117q-8 108 -89 118z" />
    <glyph glyph-name="uni2461" unicode="&#x2461;" 
d="M96 219q86 -11 94 -125q-8 -113 -94 -123q-86 10 -94 123q8 114 94 125zM71 118h-16q1 59 45 61q38 -4 40 -51q1 -34 -34 -57l-14 -10q-19 -13 -22 -32h70v-20h-88q1 46 30 67l17 13q26 17 24 40q-2 29 -26 29.5t-26 -40.5zM96 212q-81 -10 -89 -118q7 -107 89 -117
q82 10 89 117q-8 108 -89 118z" />
    <glyph glyph-name="uni2462" unicode="&#x2462;" 
d="M96 219q86 -11 94 -125q-8 -113 -94 -123q-86 10 -94 123q8 114 94 125zM86 90v18q2 0 4.5 -0.5t3.5 -0.5q25 1 24.5 28t-24 27t-24.5 -37h-16q1 55 42 56q38 -2 40 -45q0 -25 -16 -35q21 -10 21 -40q-3 -52 -47 -54q-13 1 -24 7q-17 12 -19 49h17q0 -37 27 -37
q28 2 28.5 33t-30.5 31h-7zM96 212q-81 -10 -89 -118q7 -107 89 -117q82 10 89 117q-8 108 -89 118z" />
    <glyph glyph-name="uni2463" unicode="&#x2463;" 
d="M96 219q86 -11 94 -125q-8 -113 -94 -123q-86 10 -94 123q8 114 94 125zM142 50h-19v-41h-17v41h-56v21l59 108h14v-111h19v-18zM106 146l-41 -78h41v78zM96 212q-81 -10 -89 -118q7 -107 89 -117q82 10 89 117q-8 108 -89 118z" />
    <glyph glyph-name="uni2464" unicode="&#x2464;" 
d="M96 219q86 -11 94 -125q-8 -113 -94 -123q-86 10 -94 123q8 114 94 125zM78 158l-5 -46q10 10 25 10q40 -4 42 -54q-2 -59 -47 -60q-37 2 -41 47h16q3 -27 28 -28q25 2 27 39q-1 35 -29 37q-13 0 -24 -16l-13 1l9 91h67v-21h-55zM96 212q-81 -10 -89 -118q7 -107 89 -117
q82 10 89 117q-8 108 -89 118z" />
    <glyph glyph-name="uni2465" unicode="&#x2465;" 
d="M96 219q86 -11 94 -125q-8 -113 -94 -123q-86 10 -94 123q8 114 94 125zM137 136h-15q-4 26 -23 26q-27 -2 -30 -63q9 20 31 20q39 -4 40 -53q1 -26 -12 -43q-10 -17 -33 -16q-21 1 -33 24q-10 20 -10 59q2 89 48 91q35 -3 37 -45zM71 63q2 -36 27 -37q24 2 25 39
q-2 34 -26 35q-24 -2 -26 -37zM96 212q-81 -10 -89 -118q7 -107 89 -117q82 10 89 117q-8 108 -89 118z" />
    <glyph glyph-name="uni2466" unicode="&#x2466;" 
d="M96 219q86 -11 94 -125q-8 -113 -94 -123q-86 10 -94 123q8 114 94 125zM51 156v21h90v-19q-42 -61 -54 -147h-17q9 73 53 145h-72zM96 212q-81 -10 -89 -118q7 -107 89 -117q82 10 89 117q-8 108 -89 118z" />
    <glyph glyph-name="uni2467" unicode="&#x2467;" 
d="M96 219q86 -11 94 -125q-8 -113 -94 -123q-86 10 -94 123q8 114 94 125zM136 137q0 -26 -17 -35q20 -12 21 -42q-2 -51 -44 -53q-18 0 -31 13q-14 15 -13 40q1 31 22 41q-18 10 -18 33q3 46 40 47q37 -2 40 -44zM96 91q-25 -2 -27 -31q1 -33 27.5 -33.5t26 31.5t-26.5 33
zM96 109q21 2 23 27q-1 25 -24 26q-21 0 -22 -27q1 -24 23 -26zM96 212q-81 -10 -89 -118q7 -107 89 -117q82 10 89 117q-8 108 -89 118z" />
    <glyph glyph-name="uni2468" unicode="&#x2468;" 
d="M96 219q86 -11 94 -125q-8 -113 -94 -123q-86 10 -94 123q8 114 94 125zM54 52h16q2 -27 22 -28q26 -2 31 64q-8 -19 -30 -20q-38 2 -40 55q2 55 41 58q45 -1 46 -79q-3 -93 -47 -95q-36 1 -39 45zM96 87q24 2 24 39q-1 35 -26 36q-24 -2 -24.5 -38.5t26.5 -36.5zM96 212
q-81 -10 -89 -118q7 -107 89 -117q82 10 89 117q-8 108 -89 118z" />
    <glyph glyph-name="uni2469" unicode="&#x2469;" 
d="M96 219q86 -11 94 -125q-8 -113 -94 -123q-86 10 -94 123q8 114 94 125zM73 179v-170h-17v120h-31v17q32 -1 35 33h13zM150 94q0 67 -28 68q-28 -1 -28 -68t28 -68q28 1 28 68zM167 94q-1 -86 -45 -87q-44 1 -45 87q1 86 45 87q44 -1 45 -87zM96 212q-81 -10 -89 -118
q7 -107 89 -117q82 10 89 117q-8 108 -89 118z" />
    <glyph glyph-name="uni2474" unicode="&#x2474;" 
d="M33 214h11q-16 -40 -20 -63q-6 -26 -6 -64q-1 -45 26 -112h-11q-33 62 -33 118q0 60 33 121zM159 -25h-11q28 59 26 125q1 48 -27 114h12q35 -65 33 -120q1 -59 -33 -119zM105 184v-180h-18v128h-31v18q33 -2 36 34h13z" />
    <glyph glyph-name="uni2475" unicode="&#x2475;" 
d="M33 214h11q-16 -40 -20 -63q-6 -26 -6 -64q-1 -45 26 -112h-11q-33 62 -33 118q0 60 33 121zM159 -25h-11q28 59 26 125q1 48 -27 114h12q35 -65 33 -120q1 -59 -33 -119zM70 119h-17q0 64 47 65q40 -3 42 -54q1 -37 -36 -60l-14 -10q-20 -15 -23 -35h73v-21h-92
q1 49 31 71l18 14q27 16 25 42q-2 32 -27 32.5t-27 -44.5z" />
    <glyph glyph-name="uni2476" unicode="&#x2476;" 
d="M33 214h11q-16 -40 -20 -63q-6 -26 -6 -64q-1 -45 26 -112h-11q-33 62 -33 118q0 60 33 121zM159 -25h-11q28 59 26 125q1 48 -27 114h12q35 -65 33 -120q1 -59 -33 -119zM86 89v20q5 -1 8 -1q26 0 26 29q-2 28 -25 29q-25 0 -26 -39h-17q1 58 44 59q40 -2 42 -47
q0 -29 -18 -37v-1q23 -11 23 -42q-3 -56 -49 -58q-11 0 -25 8q-19 13 -20 52h18q-1 -39 28 -39q28 2 30 34q0 34 -32 33h-7z" />
    <glyph glyph-name="uni2477" unicode="&#x2477;" 
d="M33 214h11q-16 -40 -20 -63q-6 -26 -6 -64q-1 -45 26 -112h-11q-33 62 -33 118q0 60 33 121zM159 -25h-11q28 59 26 125q1 48 -27 114h12q35 -65 33 -120q1 -59 -33 -119zM144 48h-20v-44h-17v44h-59v22l62 114h14v-117h20v-19zM107 149l-43 -82h43v82z" />
    <glyph glyph-name="uni2478" unicode="&#x2478;" 
d="M33 214h11q-16 -40 -20 -63q-6 -26 -6 -64q-1 -45 26 -112h-11q-33 62 -33 118q0 60 33 121zM159 -25h-11q28 59 26 125q1 48 -27 114h12q35 -65 33 -120q1 -59 -33 -119zM78 162l-6 -49q11 11 26 11q42 -5 44 -57q-2 -63 -49 -64q-39 2 -43 50h17q3 -29 29 -30
q26 2 28 41q-1 38 -30 40q-15 0 -25 -17l-14 1l10 96h70v-22h-57z" />
    <glyph glyph-name="uni2479" unicode="&#x2479;" 
d="M33 214h11q-16 -40 -20 -63q-6 -26 -6 -64q-1 -45 26 -112h-11q-33 62 -33 118q0 60 33 121zM159 -25h-11q28 59 26 125q1 48 -27 114h12q35 -65 33 -120q1 -59 -33 -119zM139 138h-16q-4 28 -23 28q-30 -2 -33 -67h1q9 22 32 22q40 -5 42 -57q0 -27 -13 -45
q-11 -19 -33.5 -18t-35.5 26q-10 21 -10 63q3 94 50 96q36 -3 39 -48zM70 61q2 -38 28 -39q26 2 27 41q-2 37 -28 38q-26 -1 -27 -40z" />
    <glyph glyph-name="uni247A" unicode="&#x247a;" 
d="M33 214h11q-16 -40 -20 -63q-6 -26 -6 -64q-1 -45 26 -112h-11q-33 62 -33 118q0 60 33 121zM159 -25h-11q28 59 26 125q1 48 -27 114h12q35 -65 33 -120q1 -59 -33 -119zM49 160v22h94v-20q-44 -65 -56 -156h-18q9 78 55 154h-75z" />
    <glyph glyph-name="uni247B" unicode="&#x247b;" 
d="M33 214h11q-16 -40 -20 -63q-6 -26 -6 -64q-1 -45 26 -112h-11q-33 62 -33 118q0 60 33 121zM159 -25h-11q28 59 26 125q1 48 -27 114h12q35 -65 33 -120q1 -59 -33 -119zM137 140q0 -28 -17 -38q21 -12 22 -44q-3 -55 -46 -57q-20 1 -32 14q-15 16 -14 43q0 31 23 44
q-18 9 -18 35q3 48 40 49q39 -2 42 -46zM96 91q-26 -1 -28 -34q1 -34 28.5 -34.5t27 33t-27.5 35.5zM96 110q22 2 24 29q-2 26 -26 27q-20 -1 -22 -28q2 -26 24 -28z" />
    <glyph glyph-name="uni247C" unicode="&#x247c;" 
d="M33 214h11q-16 -40 -20 -63q-6 -26 -6 -64q-1 -45 26 -112h-11q-33 62 -33 118q0 60 33 121zM159 -25h-11q28 59 26 125q1 48 -27 114h12q35 -65 33 -120q1 -59 -33 -119zM52 49h17q2 -28 23 -29q26 -1 32 67v1q-8 -21 -31 -22q-40 3 -42 58q3 59 43 62q47 0 47 -83
q-2 -100 -49 -102q-36 2 -40 48zM96 87q26 2 25.5 40t-27.5 39q-25 -2 -25.5 -41t27.5 -38z" />
    <glyph glyph-name="uni247D" unicode="&#x247d;" 
d="M33 214h11q-16 -40 -20 -63q-6 -26 -6 -64q-1 -45 26 -112h-11q-33 62 -33 118q0 60 33 121zM159 -25h-11q28 59 26 125q1 48 -27 114h12q35 -65 33 -120q1 -59 -33 -119zM72 184v-180h-18v128h-30v18q32 -2 35 34h13zM151 94q0 71 -27.5 71.5t-27.5 -71.5t27.5 -71.5
t27.5 71.5zM168 94q-1 -91 -45 -92q-43 1 -44 92q1 91 44 92q44 -1 45 -92z" />
    <glyph glyph-name="uni247E" unicode="&#x247e;" 
d="M33 214h11q-16 -40 -20 -63q-6 -26 -6 -64q-1 -45 26 -112h-11q-33 62 -33 118q0 60 33 121zM159 -25h-11q28 59 26 125q1 48 -27 114h12q35 -65 33 -120q1 -59 -33 -119zM81 184v-180h-18v128h-30v18q32 -2 35 34h13zM148 184v-180h-17v128h-30v18q31 -2 35 34h12z" />
    <glyph glyph-name="uni247F" unicode="&#x247f;" 
d="M33 214h11q-16 -40 -20 -63q-6 -26 -6 -64q-1 -45 26 -112h-11q-33 62 -33 118q0 60 33 121zM159 -25h-11q28 59 26 125q1 48 -27 114h12q35 -65 33 -120q1 -59 -33 -119zM71 184v-180h-17v128h-28v18q30 -2 33 34h12zM92 119h-15q0 64 43 65q36 -3 38 -54q1 -36 -33 -60
l-13 -11q-18 -14 -21 -34h67v-21h-84q1 49 29 71l16 14q24 17 23 42q-2 32 -24.5 32.5t-25.5 -42.5v-2z" />
    <glyph glyph-name="uni2480" unicode="&#x2480;" 
d="M33 214h11q-16 -40 -20 -63q-6 -26 -6 -64q-1 -45 26 -112h-11q-33 62 -33 118q0 60 33 121zM159 -25h-11q28 59 26 125q1 48 -27 114h12q35 -65 33 -120q1 -59 -33 -119zM73 184v-180h-17v128h-30v18q32 -2 35 34h12zM111 89v20q3 -1 8 -1q25 1 24.5 29t-23.5 29
q-25 0 -25 -39h-16q1 58 42 59q38 -2 40 -47q0 -28 -17 -37v-1q22 -10 22 -42q-2 -55 -47 -57q-13 0 -24 7q-17 13 -19 52h17q0 -39 27 -39q27 2 27.5 35t-29.5 33q-1 0 -3.5 -0.5t-3.5 -0.5z" />
    <glyph glyph-name="uni2481" unicode="&#x2481;" 
d="M33 214h11q-16 -40 -20 -63q-6 -26 -6 -64q-1 -45 26 -112h-11q-33 62 -33 118q0 60 33 121zM159 -25h-11q28 59 26 125q1 48 -27 114h12q35 -65 33 -120q1 -59 -33 -119zM73 184v-180h-17v128h-31v18q32 -2 35 34h13zM167 47h-19v-43h-17v43h-56v22l59 115h14v-117h19
v-20zM131 149l-41 -82h41v82z" />
    <glyph glyph-name="uni2482" unicode="&#x2482;" 
d="M33 214h11q-16 -40 -20 -63q-6 -26 -6 -64q-1 -45 26 -112h-11q-33 62 -33 118q0 60 33 121zM159 -25h-11q28 59 26 125q1 48 -27 114h12q35 -65 33 -120q1 -59 -33 -119zM103 162l-6 -49q11 11 25 11q39 -5 42 -57q-2 -62 -46 -63q-38 1 -41 49h16q3 -29 27 -30
q25 2 27 41q-1 38 -28 40q-15 0 -24 -17l-14 1l10 96h66v-22h-54zM73 184v-180h-17v127h-30v18q31 -2 34 35h13z" />
    <glyph glyph-name="uni2483" unicode="&#x2483;" 
d="M33 214h11q-16 -40 -20 -63q-6 -26 -6 -64q-1 -45 26 -112h-11q-33 62 -33 118q0 60 33 121zM159 -25h-11q28 59 26 125q1 48 -27 114h12q35 -65 33 -120q1 -59 -33 -119zM74 184v-180h-17v128h-31v18q32 -2 35 34h13zM163 138h-16q-4 28 -23 28q-28 -2 -31 -67h1
q9 22 31 22q40 -5 41 -57q0 -26 -13 -45q-10 -18 -33 -17q-21 1 -33 26q-10 21 -10 62q2 94 48 96q35 -3 38 -48zM96 62q2 -39 27 -40q25 2 26 41q-2 37 -26 38q-26 -1 -27 -39z" />
    <glyph glyph-name="uni2484" unicode="&#x2484;" 
d="M33 214h11q-16 -40 -20 -63q-6 -26 -6 -64q-1 -45 26 -112h-11q-33 62 -33 118q0 60 33 121zM159 -25h-11q28 59 26 125q1 48 -27 114h12q35 -65 33 -120q1 -59 -33 -119zM71 184v-180h-17v128h-30v18q32 -2 34 34h13zM78 182h81v-20q-40 -65 -51 -156h-17q8 77 50 154
h-63v22z" />
    <glyph glyph-name="uni2485" unicode="&#x2485;" 
d="M33 214h11q-16 -40 -20 -63q-6 -26 -6 -64q-1 -45 26 -112h-11q-33 62 -33 118q0 60 33 121zM159 -25h-11q28 59 26 125q1 48 -27 114h12q35 -65 33 -120q1 -59 -33 -119zM74 184v-180h-17v128h-31v18q32 -2 35 34h13zM161 140q0 -28 -17 -38q21 -12 22 -44
q-3 -54 -44 -56q-19 0 -32 13q-14 16 -13 43q1 33 22 44q-18 10 -18 35q3 47 40 49q37 -2 40 -46zM121 91q-25 -2 -27 -33q2 -35 28 -35.5t25.5 33.5t-26.5 35zM121 110q21 2 23 29q-1 26 -24 27q-21 -1 -22 -28q2 -26 23 -28z" />
    <glyph glyph-name="uni2486" unicode="&#x2486;" 
d="M33 214h11q-16 -40 -20 -63q-6 -26 -6 -64q-1 -45 26 -112h-11q-33 62 -33 118q0 60 33 121zM159 -25h-11q28 59 26 125q1 48 -27 114h12q35 -65 33 -120q1 -59 -33 -119zM80 50h16q2 -29 22 -30q25 -2 32 68h-1q-8 -20 -30 -21q-38 3 -40 57q2 59 41 62q46 0 46 -83
q-3 -99 -47 -101q-36 1 -39 48zM122 87q25 2 24.5 40t-26.5 39q-24 -2 -24.5 -40.5t26.5 -38.5zM74 184v-180h-17v127h-31v18q32 -1 35 35h13z" />
    <glyph glyph-name="uni2487" unicode="&#x2487;" 
d="M33 214h11q-16 -40 -20 -63q-6 -26 -6 -64q-1 -45 26 -112h-11q-33 62 -33 118q0 60 33 121zM159 -25h-11q28 59 26 125q1 48 -27 114h12q35 -65 33 -120q1 -59 -33 -119zM50 119h-12q0 64 34 65q29 -3 30 -54q1 -38 -26 -60l-10 -10q-14 -15 -17 -35h53v-21h-67
q1 48 23 72l13 13q19 16 18 42q-1 32 -19 33q-20 0 -20 -45zM157 94q0 72 -20.5 71.5t-20.5 -71.5t20.5 -71.5t20.5 71.5zM170 94q-1 -91 -33 -92q-33 2 -34 92q1 90 34 92q32 -1 33 -92z" />
    <glyph glyph-name="uni2488" unicode="&#x2488;" 
d="M89 184v-180h-19v128h-31v18q33 -2 36 34h14zM153 26v-22h-16v22h16z" />
    <glyph glyph-name="uni2489" unicode="&#x2489;" 
d="M49 119h-17q1 63 46 65q41 -3 43 -54q1 -37 -37 -60l-14 -10q-20 -16 -23 -35h74v-21h-93q1 48 32 71l18 14q27 17 25 42q-2 32 -27 33q-27 0 -27 -45zM164 26v-22h-16v22h16z" />
    <glyph glyph-name="uni248A" unicode="&#x248a;" 
d="M64 89v20q5 -1 9 -1q26 1 26 29q-2 28 -25 29q-26 0 -26 -39h-17q1 58 44 59q39 -2 41 -47q0 -28 -17 -37v-1q23 -11 23 -42q-3 -56 -49 -58q-11 0 -25 8q-19 13 -20 52h17q1 -40 28.5 -38.5t29.5 33.5q0 34 -31 33h-8zM164 26v-22h-16v22h16z" />
    <glyph glyph-name="uni248B" unicode="&#x248b;" 
d="M123 48h-20v-44h-16v44h-60v22l62 114h14v-117h20v-19zM86 149l-43 -82h44v82h-1zM165 26v-22h-16v22h16z" />
    <glyph glyph-name="uni248C" unicode="&#x248c;" 
d="M56 162l-6 -49q11 11 27 11q41 -5 44 -57q-3 -63 -49 -64q-40 2 -44 50h18q2 -29 28 -30q27 2 29 41q-1 38 -30 40q-15 0 -25 -17l-15 1l11 96h69v-22h-57zM164 26v-22h-16v22h16z" />
    <glyph glyph-name="uni248D" unicode="&#x248d;" 
d="M118 138h-17q-4 28 -23 28q-29 -2 -32 -67q10 22 32 22q41 -4 42 -57q0 -28 -12 -45q-12 -19 -34.5 -18t-34.5 26q-11 21 -11 63q3 94 50 96q37 -3 40 -48zM48 61q2 -37 29 -39q25 2 26 41q-2 37 -27 38q-27 -1 -28 -40zM164 26v-22h-16v22h16z" />
    <glyph glyph-name="uni248E" unicode="&#x248e;" 
d="M28 160v22h93v-20q-43 -68 -55 -156h-19q10 77 55 154h-74zM164 26v-22h-16v22h16z" />
    <glyph glyph-name="uni248F" unicode="&#x248f;" 
d="M115 140q0 -28 -17 -38q21 -12 22 -44q-3 -55 -46 -57q-18 1 -32 14q-15 16 -14 43q0 31 23 44q-18 10 -18 35q3 48 41 49q38 -2 41 -46zM74 91q-26 -1 -28 -34q2 -34 29 -34.5t26.5 33.5t-27.5 35zM74 110q22 2 24 29q-1 26 -25 27q-21 -1 -23 -28q2 -25 24 -28zM164 26
v-22h-16v22h16z" />
    <glyph glyph-name="uni2490" unicode="&#x2490;" 
d="M30 49h17q2 -28 23 -29q26 -1 32 67v1q-9 -20 -31 -22q-40 3 -42 58q3 59 43 62q47 0 47 -83q-2 -100 -49 -102q-36 2 -40 48zM73 87q27 2 26.5 40t-27.5 39q-25 -2 -25.5 -40.5t26.5 -38.5zM163 26v-22h-16v22h16z" />
    <glyph glyph-name="uni2491" unicode="&#x2491;" 
d="M59 184v-180h-17v127h-31v18q32 -2 36 35h12zM146 94q0 71 -27 72q-28 -1 -28 -72t28 -72q27 1 27 72zM164 94q-2 -90 -45 -92q-44 1 -45 92q1 91 45 92q43 -2 45 -92zM181 26v-22h-16v22h16z" />
    <glyph glyph-name="uni2492" unicode="&#x2492;" 
d="M64 184v-180h-17v128h-30v18q32 -2 35 34h12zM140 184v-180h-18v128h-30v18q32 -2 35 34h13zM175 26v-22h-16v22h16z" />
    <glyph glyph-name="uni2493" unicode="&#x2493;" 
d="M58 184v-180h-17v128h-29v18q30 -2 34 34h12zM87 119h-16q0 64 43 65q36 -3 38 -54q1 -37 -33 -60l-13 -11q-18 -15 -21 -34h67v-21h-84q1 49 29 71l16 14q24 17 23 42q-2 32 -24 33q-25 0 -25 -45zM180 26v-22h-16v22h16z" />
    <glyph glyph-name="uni2494" unicode="&#x2494;" 
d="M60 184v-180h-17v127h-30v18q31 -2 34 35h13zM105 89v20q5 -1 8 -1q25 1 25 29q-2 28 -24 29q-24 0 -25 -39h-16q1 58 42 59q38 -2 40 -47q0 -28 -17 -37v-1q22 -10 22 -42q-2 -55 -47 -57q-15 1 -24 7q-17 13 -19 52h17q0 -39 27 -39q27 2 29 35q0 33 -31 33
q-1 0 -3.5 -0.5t-3.5 -0.5zM179 26v-22h-16v22h16z" />
    <glyph glyph-name="uni2495" unicode="&#x2495;" 
d="M60 184v-180h-18v128h-30v18q32 -2 35 34h13zM161 47h-19v-43h-16v43h-57v22l60 115h13v-117h19v-20zM125 149l-41 -82h42v82h-1zM180 26v-22h-16v22h16z" />
    <glyph glyph-name="uni2496" unicode="&#x2496;" 
d="M97 162l-5 -49q9 11 24 11q40 -5 43 -57q-3 -62 -47 -63q-37 1 -41 49h16q3 -29 27 -30q26 3 28 41q-1 38 -29 40q-15 -1 -23 -17l-14 1l9 96h67v-22h-55zM60 184v-180h-18v127h-30v18q32 -1 35 35h13zM180 26v-22h-16v22h16z" />
    <glyph glyph-name="uni2497" unicode="&#x2497;" 
d="M60 184v-180h-17v127h-30v18q31 -2 34 35h13zM157 138h-16q-3 28 -22 28q-28 -2 -31 -67q9 22 31 22q39 -5 40 -57q0 -28 -12 -45q-10 -18 -33 -17q-21 1 -33 26q-10 21 -10 62q2 94 48 96q35 -3 38 -48zM90 62q2 -39 27 -40q25 2 26 41q-2 37 -27 38q-24 -2 -26 -39z
M179 26v-22h-16v22h16z" />
    <glyph glyph-name="uni2498" unicode="&#x2498;" 
d="M58 184v-180h-17v128h-29v18q31 -2 34 34h12zM68 160v22h86v-20q-41 -68 -51 -156h-17q8 77 50 154h-68zM180 26v-22h-16v22h16z" />
    <glyph glyph-name="uni2499" unicode="&#x2499;" 
d="M60 184v-180h-17v127h-30v18q31 -2 34 35h13zM155 140q0 -28 -17 -38q21 -12 22 -44q-3 -54 -44 -56q-19 1 -32 13q-14 16 -13 43q0 30 22 44q-17 9 -17 35q3 48 39 49q37 -2 40 -46zM115 91q-24 -1 -26 -33q1 -35 27 -35.5t25.5 33.5t-26.5 35zM115 110q21 2 23 29
q-1 26 -24 27q-20 -1 -22 -28q2 -26 23 -28zM180 26v-22h-16v22h16z" />
    <glyph glyph-name="uni249A" unicode="&#x249a;" 
d="M74 50h16q2 -29 22 -30q27 -1 31 68q-8 -20 -30 -21q-38 3 -40 57q2 59 41 62q46 0 46 -83q-3 -99 -47 -101q-36 1 -39 48zM116 87q25 2 24.5 40t-26.5 39q-24 -2 -24.5 -40.5t26.5 -38.5zM60 184v-180h-17v127h-30v18q31 -2 34 35h13zM179 26v-22h-16v22h16z" />
    <glyph glyph-name="uni249B" unicode="&#x249b;" 
d="M23 119h-15q0 63 42 65q37 -3 39 -54q1 -37 -33 -60l-12 -10q-19 -16 -22 -35h67v-21h-84q1 49 29 71l16 14l2 2q22 15 21 40q-2 31 -24.5 31.5t-25.5 -41.5v-2zM160 94q0 72 -25.5 71.5t-25.5 -71.5t25.5 -71.5t25.5 71.5zM177 94q-1 -91 -43 -92q-41 1 -42 92
q1 91 42 92q42 -1 43 -92zM187 26v-22h-16v22h16z" />
    <glyph glyph-name="SF100000" unicode="&#x2500;" 
d="M0 96h192v-13h-192v13z" />
    <glyph glyph-name="uni2501" unicode="&#x2501;" 
d="M0 104h192v-29h-192v29z" />
    <glyph glyph-name="SF110000" unicode="&#x2502;" 
d="M91 218h10v-254h-10v254z" />
    <glyph glyph-name="uni2503" unicode="&#x2503;" 
d="M84 218h22v-254h-22v254z" />
    <glyph glyph-name="uni2504" unicode="&#x2504;" 
d="M10 96h43v-13h-43v13zM75 96h42v-13h-42v13zM140 96h42v-13h-42v13z" />
    <glyph glyph-name="uni2505" unicode="&#x2505;" 
d="M10 104h43v-29h-43v29zM75 104h42v-29h-42v29zM140 104h42v-29h-42v29z" />
    <glyph glyph-name="uni2506" unicode="&#x2506;" 
d="M90 204h10v-56h-10v56zM100 118v-56h-10v56h10zM100 32v-54h-10v54h10z" />
    <glyph glyph-name="uni2507" unicode="&#x2507;" 
d="M106 204v-56h-22v56h22zM106 118v-56h-22v56h22zM106 32v-54h-22v54h22z" />
    <glyph glyph-name="uni2508" unicode="&#x2508;" 
d="M9 96h30v-13h-30v13zM57 96h30v-13h-30v13zM105 96h30v-13h-30v13zM153 96h30v-13h-30v13z" />
    <glyph glyph-name="uni2509" unicode="&#x2509;" 
d="M9 104h30v-29h-30v29zM57 104h30v-29h-30v29zM105 104h30v-29h-30v29zM153 104h30v-29h-30v29z" />
    <glyph glyph-name="uni250A" unicode="&#x250a;" 
d="M100 206v-40h-10v40h10zM100 142v-40h-10v40h10zM100 78v-40h-10v40h10zM100 14v-38h-10v38h10z" />
    <glyph glyph-name="uni250B" unicode="&#x250b;" 
d="M106 206v-40h-22v40h22zM106 142v-40h-22v40h22zM106 78v-40h-22v40h22zM106 14v-38h-22v38h22z" />
    <glyph glyph-name="SF010000" unicode="&#x250c;" 
d="M192 96v-13h-91v-119h-10v132h101z" />
    <glyph glyph-name="uni250D" unicode="&#x250d;" 
d="M192 104v-29h-91v-111h-10v140h101z" />
    <glyph glyph-name="uni250E" unicode="&#x250e;" 
d="M192 96v-13h-85v-119h-22v132h107z" />
    <glyph glyph-name="uni250F" unicode="&#x250f;" 
d="M192 104v-29h-85v-111h-22v140h107z" />
    <glyph glyph-name="SF030000" unicode="&#x2510;" 
d="M0 83v13h101v-132h-10v119h-91z" />
    <glyph glyph-name="uni2511" unicode="&#x2511;" 
d="M0 104h101v-140h-10v111h-91v29z" />
    <glyph glyph-name="uni2512" unicode="&#x2512;" 
d="M0 96h107v-132h-22v119h-85v13z" />
    <glyph glyph-name="uni2513" unicode="&#x2513;" 
d="M0 104h107v-140h-22v111h-85v29z" />
    <glyph glyph-name="SF020000" unicode="&#x2514;" 
d="M101 218v-122h91v-13h-101v135h10z" />
    <glyph glyph-name="uni2515" unicode="&#x2515;" 
d="M101 218v-114h91v-29h-101v143h10z" />
    <glyph glyph-name="uni2516" unicode="&#x2516;" 
d="M107 218v-122h85v-13h-107v135h22z" />
    <glyph glyph-name="uni2517" unicode="&#x2517;" 
d="M107 218v-114h85v-29h-107v143h22z" />
    <glyph glyph-name="SF040000" unicode="&#x2518;" 
d="M0 96h91v122h10v-135h-101v13z" />
    <glyph glyph-name="uni2519" unicode="&#x2519;" 
d="M0 104h91v114h10v-143h-101v29z" />
    <glyph glyph-name="uni251A" unicode="&#x251a;" 
d="M0 96h85v122h22v-135h-107v13z" />
    <glyph glyph-name="uni251B" unicode="&#x251b;" 
d="M0 104h85v114h22v-143h-107v29z" />
    <glyph glyph-name="SF080000" unicode="&#x251c;" 
d="M101 218v-122h91v-13h-91v-119h-10v254h10z" />
    <glyph glyph-name="uni251D" unicode="&#x251d;" 
d="M101 218v-114h91v-29h-91v-111h-10v254h10z" />
    <glyph glyph-name="uni251E" unicode="&#x251e;" 
d="M107 218v-122h85v-13h-91v-119h-10v127h-6v127h22z" />
    <glyph glyph-name="uni251F" unicode="&#x251f;" 
d="M101 218v-122h91v-13h-85v-119h-22v124h6v130h10z" />
    <glyph glyph-name="uni2520" unicode="&#x2520;" 
d="M107 218v-122h85v-13h-85v-119h-22v254h22z" />
    <glyph glyph-name="uni2521" unicode="&#x2521;" 
d="M107 218v-114h85v-29h-91v-111h-10v111h-6v143h22z" />
    <glyph glyph-name="uni2522" unicode="&#x2522;" 
d="M101 218v-114h91v-29h-85v-111h-22v140h6v114h10z" />
    <glyph glyph-name="uni2523" unicode="&#x2523;" 
d="M107 218v-114h85v-29h-85v-111h-22v254h22z" />
    <glyph glyph-name="SF090000" unicode="&#x2524;" 
d="M101 218v-254h-10v119h-91v13h91v122h10z" />
    <glyph glyph-name="uni2525" unicode="&#x2525;" 
d="M101 218v-254h-10v111h-91v29h91v114h10z" />
    <glyph glyph-name="uni2526" unicode="&#x2526;" 
d="M107 218v-127h-6v-127h-10v119h-91v13h85v122h22z" />
    <glyph glyph-name="uni2527" unicode="&#x2527;" 
d="M101 218v-130h6v-124h-22v119h-85v13h91v122h10z" />
    <glyph glyph-name="uni2528" unicode="&#x2528;" 
d="M107 218v-254h-22v119h-85v13h85v122h22z" />
    <glyph glyph-name="uni2529" unicode="&#x2529;" 
d="M107 218v-143h-6v-111h-10v111h-91v29h85v114h22z" />
    <glyph glyph-name="uni252A" unicode="&#x252a;" 
d="M101 218v-114h6v-140h-22v111h-85v29h91v114h10z" />
    <glyph glyph-name="uni252B" unicode="&#x252b;" 
d="M107 218v-254h-22v111h-85v29h85v114h22z" />
    <glyph glyph-name="SF060000" unicode="&#x252c;" 
d="M0 96h192v-13h-91v-119h-10v119h-91v13z" />
    <glyph glyph-name="uni252D" unicode="&#x252d;" 
d="M0 104h101v-8h91v-13h-91v-120h-10v112h-91v29z" />
    <glyph glyph-name="uni252E" unicode="&#x252e;" 
d="M0 96h91v8h101v-29h-91v-111h-10v119h-91v13z" />
    <glyph glyph-name="uni252F" unicode="&#x252f;" 
d="M0 104h192v-29h-91v-111h-10v111h-91v29z" />
    <glyph glyph-name="uni2530" unicode="&#x2530;" 
d="M0 96h192v-13h-85v-119h-22v119h-85v13z" />
    <glyph glyph-name="uni2531" unicode="&#x2531;" 
d="M0 104h107v-8h85v-13h-85v-119h-22v111h-85v29z" />
    <glyph glyph-name="uni2532" unicode="&#x2532;" 
d="M0 96h85v8h107v-29h-85v-111h-22v119h-85v13z" />
    <glyph glyph-name="uni2533" unicode="&#x2533;" 
d="M0 104h192v-29h-85v-111h-22v111h-85v29z" />
    <glyph glyph-name="SF070000" unicode="&#x2534;" 
d="M0 96h91v122h10v-122h91v-13h-192v13z" />
    <glyph glyph-name="uni2535" unicode="&#x2535;" 
d="M101 218v-122h91v-13h-91v-8h-101v29h91v114h10z" />
    <glyph glyph-name="uni2536" unicode="&#x2536;" 
d="M101 218v-114h91v-29h-101v8h-91v13h91v122h10z" />
    <glyph glyph-name="uni2537" unicode="&#x2537;" 
d="M101 218v-114h91v-29h-192v29h91v114h10z" />
    <glyph glyph-name="uni2538" unicode="&#x2538;" 
d="M107 218v-122h85v-13h-192v13h85v122h22z" />
    <glyph glyph-name="uni2539" unicode="&#x2539;" 
d="M107 218v-122h85v-13h-85v-8h-107v29h85v114h22z" />
    <glyph glyph-name="uni253A" unicode="&#x253a;" 
d="M107 218v-114h85v-29h-107v8h-85v13h85v122h22z" />
    <glyph glyph-name="uni253B" unicode="&#x253b;" 
d="M107 218v-114h85v-29h-192v29h85v114h22z" />
    <glyph glyph-name="SF050000" unicode="&#x253c;" 
d="M101 218v-122h91v-13h-91v-119h-10v119h-91v13h91v122h10z" />
    <glyph glyph-name="uni253D" unicode="&#x253d;" 
d="M101 218v-122h91v-13h-91v-119h-10v111h-91v29h91v114h10z" />
    <glyph glyph-name="uni253E" unicode="&#x253e;" 
d="M101 218v-114h91v-29h-91v-111h-10v119h-91v13h91v122h10z" />
    <glyph glyph-name="uni253F" unicode="&#x253f;" 
d="M101 218v-114h91v-29h-91v-111h-10v111h-91v29h91v114h10z" />
    <glyph glyph-name="uni2540" unicode="&#x2540;" 
d="M107 218v-122h85v-13h-91v-119h-10v119h-91v13h85v122h22z" />
    <glyph glyph-name="uni2541" unicode="&#x2541;" 
d="M101 218v-122h91v-13h-85v-119h-22v119h-85v13h91v122h10z" />
    <glyph glyph-name="uni2542" unicode="&#x2542;" 
d="M107 218v-122h85v-13h-85v-119h-22v119h-85v13h85v122h22z" />
    <glyph glyph-name="uni2543" unicode="&#x2543;" 
d="M107 218v-122h85v-13h-91v-119h-10v111h-91v29h85v114h22z" />
    <glyph glyph-name="uni2544" unicode="&#x2544;" 
d="M107 218v-114h85v-29h-91v-111h-10v119h-91v13h85v122h22z" />
    <glyph glyph-name="uni2545" unicode="&#x2545;" 
d="M101 218v-122h91v-13h-85v-119h-22v111h-85v29h91v114h10z" />
    <glyph glyph-name="uni2546" unicode="&#x2546;" 
d="M101 218v-114h91v-29h-85v-111h-22v119h-85v13h91v122h10z" />
    <glyph glyph-name="uni2547" unicode="&#x2547;" 
d="M107 218v-114h85v-29h-91v-111h-10v111h-91v29h85v114h22z" />
    <glyph glyph-name="uni2548" unicode="&#x2548;" 
d="M101 218v-114h91v-29h-85v-111h-22v111h-85v29h91v114h10z" />
    <glyph glyph-name="uni2549" unicode="&#x2549;" 
d="M107 218v-122h85v-13h-85v-119h-22v111h-85v29h85v114h22z" />
    <glyph glyph-name="uni254A" unicode="&#x254a;" 
d="M107 218v-114h85v-29h-85v-111h-22v119h-85v13h85v122h22z" />
    <glyph glyph-name="uni254B" unicode="&#x254b;" 
d="M107 218v-114h85v-29h-85v-111h-22v111h-85v29h85v114h22z" />
    <glyph glyph-name="filledbox" unicode="&#x25a0;" 
d="M173 -14h-154v203h154v-203z" />
    <glyph glyph-name="H22073" unicode="&#x25a1;" 
d="M173 -14h-154v203h154v-203zM28 177v-180h136v180h-136z" />
    <glyph glyph-name="triagup" unicode="&#x25b2;" 
d="M166 0h-140l70 189z" />
    <glyph glyph-name="uni25B3" unicode="&#x25b3;" 
d="M96 164l-57 -153h114zM166 0h-140l70 189z" />
    <glyph glyph-name="uni25C6" unicode="&#x25c6;" 
d="M96 0l-72 94l72 96l72 -96z" />
    <glyph glyph-name="uni25C7" unicode="&#x25c7;" 
d="M96 13l61 81l-61 82l-61 -82zM96 0l-72 94l72 96l72 -96z" />
    <glyph glyph-name="circle" unicode="&#x25cb;" 
d="M96 9q56 7 61 82q-5 76 -61 83q-56 -7 -61 -83q5 -75 61 -82zM96 185q64 -8 70 -94q-6 -84 -70 -91q-64 7 -70 91q6 86 70 94z" />
    <glyph glyph-name="uni25CE" unicode="&#x25ce;" 
d="M96 185q64 -9 70 -93q-6 -85 -70 -92q-64 7 -70 92q6 85 70 93zM96 178q-59 -7 -65 -86q6 -80 65 -87q59 7 65 87q-6 79 -65 86zM96 156q45 -6 49 -64q-4 -58 -49 -64q-45 6 -49 64q4 58 49 64zM96 149q-40 -5 -44 -57q4 -52 44 -57q40 5 44 57q-4 52 -44 57z" />
    <glyph glyph-name="H18533" unicode="&#x25cf;" 
d="M96 185q64 -8 70 -94q-6 -84 -70 -91q-64 7 -70 91q6 86 70 94z" />
    <glyph glyph-name="uni2605" unicode="&#x2605;" 
d="M96 179l18 -69h53l-43 -45l16 -67l-44 39l-44 -39l16 67l-43 45h53z" />
    <glyph glyph-name="uni2606" unicode="&#x2606;" 
d="M62 12l34 34l34 -33v1l-13 54l35 34h-43l-13 55l-14 -55h-42l34 -34l-12 -55v-1zM96 179l18 -69h53l-43 -45l16 -67l-44 40l-44 -40l16 67l-43 45h53z" />
    <glyph glyph-name="female" unicode="&#x2640;" 
d="M62 129q3 -41 34 -45q31 4 34 45q-3 42 -34 46q-31 -4 -34 -46zM63 20v11h29v42q-35 8 -38 56q3 52 42 57q39 -5 42 -57q-3 -48 -38 -56v-42h29v-11h-29v-29h-8v29h-29z" />
    <glyph glyph-name="male" unicode="&#x2642;" 
d="M62 46q2 -42 34 -45q32 3 34 45q-3 41 -34 45q-31 -4 -34 -45zM63 137l-2 5l7 7q20 20 26 37h4q9 -22 34 -42l-2 -6q-16 9 -30 25v-61q35 -9 38 -56q-4 -50 -42 -55q-38 5 -42 55q3 48 38 56v61q-14 -15 -29 -26z" />
    <glyph glyph-name="uni3000" unicode="&#x3000;" 
 />
    <glyph glyph-name="uni3001" unicode="&#x3001;" 
d="M29 49l24 17q30 -40 46 -63l-26 -16q-10 15 -38 53z" />
    <glyph glyph-name="uni3002" unicode="&#x3002;" 
d="M105 28q-4 -37 -43 -41q-38 4 -42 41q4 39 42 43q40 -3 43 -43zM84 28q-2 20 -22 22q-19 -2 -21 -22q2 -20 21 -22q20 2 22 22z" />
    <glyph glyph-name="uni3003" unicode="&#x3003;" 
d="M97 132l-34 -87h-2l21 85q2 10 9 10.5t6 -8.5zM131 132l-34 -87h-3l21 85q2 10 9.5 10.5t6.5 -8.5z" />
    <glyph glyph-name="uni3005" unicode="&#x3005;" 
d="M82 189l18 -12q1 0 0.5 -3.5t-4.5 -5.5q-1 -1 -2 -2.5t-3 -7.5q-6 -14 -10 -20h45q2 0 5.5 3t5.5 3q13 -9 16 -22q-1 -6 -4 -7h-5q-2 0 -4 -6q-10 -20 -35 -58q-2 -3 -3 -5q29 -30 8 -41q-5 0 -16 25q-4 8 -5 11q-9 17 -21 29l1 2q15 -7 26 -18q24 34 39 73q0 1 -1 2h-56
q-21 -31 -36 -39q-2 1 -2 4q48 58 38 90q1 7 5 5z" />
    <glyph glyph-name="uni3008" unicode="&#x3008;" 
d="M122 -31l-34 121l34 122h29l-36 -122l36 -121h-29z" />
    <glyph glyph-name="uni3009" unicode="&#x3009;" 
d="M70 -31h-29l36 121l-36 122h29l34 -122z" />
    <glyph glyph-name="uni300A" unicode="&#x300a;" 
d="M170 -31h-24l-33 121l33 122h24l-34 -122zM129 -31h-23l-34 121l34 122h23l-34 -122z" />
    <glyph glyph-name="uni300B" unicode="&#x300b;" 
d="M86 -31h-23l34 121l-34 122h23l34 -122zM46 -31h-24l34 121l-34 122h24l33 -122z" />
    <glyph glyph-name="uni300C" unicode="&#x300c;" 
d="M148 187h-28v-219h-26v246h54v-27z" />
    <glyph glyph-name="uni300D" unicode="&#x300d;" 
d="M43 -6h29v220h26v-246h-55v26z" />
    <glyph glyph-name="uni300E" unicode="&#x300e;" 
d="M77 208h68v-60h-23v-175h-45v235zM136 196h-50v-211h27v175h23v36z" />
    <glyph glyph-name="uni300F" unicode="&#x300f;" 
d="M115 -27h-68v58h23v177h45v-235zM56 -15h50v211h-27v-177h-23v-34z" />
    <glyph glyph-name="uni3010" unicode="&#x3010;" 
d="M141 -33h-54v247h54q-30 -51 -30 -124q0 -75 30 -123z" />
    <glyph glyph-name="uni3011" unicode="&#x3011;" 
d="M105 -33h-54q31 50 31 123q0 71 -31 124h54v-247z" />
    <glyph glyph-name="uni3013" unicode="&#x3013;" 
d="M41 157h110v-39h-110v39zM41 74h110v-39h-110v39z" />
    <glyph glyph-name="uni3014" unicode="&#x3014;" 
d="M149 -34l-64 10v230l64 9v-31l-39 -7v-176l39 -4v-31z" />
    <glyph glyph-name="uni3015" unicode="&#x3015;" 
d="M41 -34v31l39 4v176l-39 7v31l65 -9v-230z" />
    <glyph glyph-name="uni3016" unicode="&#x3016;" 
d="M80 -34v249h59q-22 -55 -26 -125q4 -72 30 -124h-63zM83 210v-238h51q-24 58 -25 118q0 56 22 120h-48z" />
    <glyph glyph-name="uni3017" unicode="&#x3017;" 
d="M113 -34h-63q26 55 30 124q-4 68 -27 125h60v-249zM109 210h-48q22 -64 22 -120q-1 -60 -25 -118h51v238z" />
    <glyph glyph-name="uni3041" unicode="&#x3041;" 
d="M86 94v-9q0 -11 1 -20q0 1 1 1v1q9 13 16 36q-9 -1 -18 -4v-5zM94 29l-14 -6q0 1 -0.5 3t-1.5 3q-2 -1 -2 -3q-25 -22 -38 -7q-6 6 -6 20v4q0 9 6 25q1 3 1 4q8 14 18 25q8 8 17 13v2.5t1 9t1 11.5v1q-6 -1 -18 -1h-14l-2 19q9 -1 17 -1h11h8q0 1 1 4t1 11v4q0 2 -0.5 6
t-0.5 7h4q3 0 8.5 -1t8.5 -1q-5 -13 -7 -28q19 4 33 9l2 -19q-19 -5 -38 -8q-2 -9 -2 -19q8 3 17 3h2q1 5 1 11h2l16 -4q0 -4 -2 -9q12 -3 21 -11q15 -14 15 -39v-5q0 -24 -12 -39q-9 -14 -26 -21q0 -1 -2 0l-10 13v3q12 3 22 13q12 12 12 30v5q-1 26 -24 36
q-11 -35 -29 -59q2 -8 3 -14zM72 78v11v2q-15 -11 -21 -27q-8 -21 -2 -28q5 -5 14 1q6 5 12 11q-3 14 -3 30z" />
    <glyph glyph-name="uni3042" unicode="&#x3042;" 
d="M68 75v7q-18 -14 -28 -38q-5 -9 -5 -20q1 -13 10 -14q11 0 19 11q3 5 6 9q-2 14 -2 45zM73 199h4q3 0 9.5 -1t9.5 -1q1 -4 -2 -10q-1 -3 -1 -5q-1 -10 -3 -21q2 1 4.5 1.5t3.5 0.5q18 3 34 10v-24q-20 -8 -41 -11h-2q-1 -1 -2 -1q0 -4 -0.5 -12t-0.5 -12q11 5 23 6
q0 3 1 8v2q-1 3 1 4l18 -4l1 -2q-1 -5 -3 -8q19 -3 30 -16q17 -22 17 -49v-7q-1 -37 -29 -60l-1 -1q-11 -9 -17 -9h-1q-7 11 -16 19q20 4 32 16q14 16 14 37v4q-1 23 -16 38q-1 1 -4 2.5l-5 2.5q-4 2 -9 2v-1q-11 -40 -32 -72q2 -9 5 -18q-2 -1 -7 -4t-8.5 -2.5t-4.5 5.5
q-1 -2 -5 -5q-1 -1 -2 -1q-15 -15 -28 -15h-3q-17 2 -19 34v4q1 31 22 59q12 15 28 24q0 4 0.5 14t0.5 15q-12 -2 -24 -2h-11q-1 0 -3 1q-3 9 -4.5 14t-0.5 10q8 -1 16 -1h11q8 0 18 2q2 15 2 30v10zM86 93v-24v-17l2 2l1 2q11 19 16 43q-4 -1 -14 -4q-3 -1 -5 -2z" />
    <glyph glyph-name="uni3043" unicode="&#x3043;" 
d="M30 154l18 -5q0 -5 -2 -8v-6q0 -33 10 -66q5 -17 10 -21q2 -1 3 -1q5 0 10 8q6 6 9 14h2l8 -19q0 -2 -0.5 -3.5t-3.5 -4.5q-5 -7 -8 -10q-9 -11 -17 -11q-14 0 -24 31q-9 23 -14 75q-1 8 -1 12q-2 8 -2 15h2zM164 77l-16 -8q-11 36 -28 69l12 8h2q22 -40 30 -69z" />
    <glyph glyph-name="uni3044" unicode="&#x3044;" 
d="M13 167l1 1q13 -3 25 -7q0 -2 -1 -6q-2 -8 -2 -12q-1 -6 -1 -12v-7q0 -25 4 -42q3 -21 9.5 -38.5t13 -17t10.5 6.5q8 9 13 20h2l9 -19q0 -2 -2 -8t-9 -13q-12 -14 -25 -14q-18 0 -28 31q-5 16 -8 34q-5 27 -8 55q0 3 -0.5 9.5t-1 11t-1 13.5t-0.5 14zM125 141l17 8h2
q17 -31 29 -66q6 -14 6 -22l-18 -11h-2q-9 38 -35 89z" />
    <glyph glyph-name="uni3045" unicode="&#x3045;" 
d="M130 175l-4 -21q-19 5 -39 14h-1q-4 2 -5 5l6 18q21 -12 43 -16zM138 91v-5q-1 -54 -38 -87l-13 14q24 18 32 48q1 5 2 17q1 5 1 8q0 10 -4 19q-7 13 -21 8q-7 -4 -15 -9q-4 -4 -10 -7q-2 -2 -5 -2l-13 23q1 1 2 1h4q5 0 17 5q3 2 5 3t5 2q15 6 22 6h3q11 -1 18 -12
q8 -14 8 -32z" />
    <glyph glyph-name="uni3046" unicode="&#x3046;" 
d="M76 183l7 24h1q31 -16 52 -21l1 -1q0 -4 -2 -11q-2 -10 -2 -15l-1 -1q-4 0 -13 4q-2 1 -3 1q-17 6 -39 18zM45 119h4q8 0 22 6q9 3 19 7q1 0 2 1q13 5 22 5h2q16 -1 25 -19q7 -14 7 -33v-9q-1 -62 -42 -107l-1 -1q-1 -2 -3 -2q-2 2 -4.5 5t-11.5 11v2q40 37 42 97v5
q-1 26 -17 27h-3q-6 0 -18 -6q-2 -1 -3 -2q-12 -6 -21 -15l-1 -1q-3 -4 -5 -3l-16 30z" />
    <glyph glyph-name="uni3047" unicode="&#x3047;" 
d="M125 165l-9 -19q-19 9 -38 22v2l9 16q22 -15 38 -21zM108 133l15 -11v-3q-10 -9 -25 -34l-3 -6h5q6 1 11 -5q3 -6 3 -12q1 -4 1.5 -13.5t1.5 -13.5q4 -11 13 -12h4q12 0 22 6v-24q-11 -3 -23 -3h-8q-12 0 -16.5 8t-6.5 18q0 4 -0.5 12t-1.5 12q-3 8 -8 9h-3q-2 0 -2 -1
q-4 -3 -11 -12q-3 -3 -4 -5q-2 -4 -7.5 -13.5t-8.5 -15t-6 -9.5l-14 15q36 48 57 91q-5 -2 -15 -4q-13 -3 -18 -6q-1 0 -2.5 -1.5t-3.5 -1.5l-7 24q7 1 21 2q26 2 39 9h1z" />
    <glyph glyph-name="uni3048" unicode="&#x3048;" 
d="M82 205h2l9 -6q18 -12 27 -17q5 -1 7 -5l-7 -21l-1 -1q-24 11 -45 28v2q5 9 8 20zM34 125h5q20 0 39 5q14 1 26 8l2 2l2 1h2l17 -14q1 -1 1 -5q-11 -10 -27 -38q-4 -7 -6 -10h5q8 0 14 -7q4 -7 6 -20.5t3 -25.5q4 -14 12 -14h9q13 0 26 5v-27q-12 -2 -24 -2h-16
q-14 0 -20 13q-4 5 -7 23q-1 5 -1 7q1 8 -2.5 16t-9.5 8q-8 0 -16 -12q-18 -27 -32 -55h-2q-7 9 -18 16v1q19 24 52 77q12 19 19 34l-2 2q-8 -5 -23 -9q-11 -2 -17 -5q-1 0 -2 -2q-3 -3 -5 -2z" />
    <glyph glyph-name="uni3049" unicode="&#x3049;" 
d="M123 138l8 16q15 -10 28 -24l-8 -16q-18 18 -28 24zM83 25v-4q-1 -11 -8.5 -15t-17.5 2q-24 12 -24 32q0 14 13 27q9 9 19 17v16v21q-9 -2 -19 -2h-6l-1 21q5 -1 11 -1h2q8 0 15 1v13v6q0 9 -2 18l1 1l20 -3l1 -2q-5 -13 -5 -27v-3q11 3 21 6v-19q-11 -4 -22 -6v-4v-26
q18 9 31 9h4q12 1 23 -8q12 -12 12 -29v-4q0 -21 -15 -35q-9 -10 -30 -15l-1 1l-8 16v2q38 7 38 33q-1 22 -23 23q-13 -1 -31 -13v-11q0 -20 2 -38zM49 40q1 -6 4 -9q5 -5 11 -5q3 1 3 3q0 10 -2 31q2 -15 0 3q-16 -16 -16 -23z" />
    <glyph glyph-name="uni304A" unicode="&#x304a;" 
d="M29 117h-5l-2 24l1 2q8 -2 16.5 -2t17.5 2q0 -5 0 2q0 25 -3 49h5q5 0 15 -2q5 -1 8 -1l1 -2q-5 -22 -6 -39v-2q13 4 25 11l1 -25q-13 -6 -27 -10q-1 -8 -1 -17v-17q24 13 41 13h3q18 0 29 -10q15 -15 16 -36v-4q0 -14 -5 -25.5t-13 -19.5q-18 -16 -40 -17q-2 4 -6 11
t-6 11q13 1 25 7q15 9 20.5 20.5t0.5 24.5q-7 13 -23 14h-4q-16 0 -36 -13v-9t1 -16q2 -21 2 -31v-6q-1 -18 -12 -23q-9 -4 -21 4q-27 13 -27 34q1 18 10 31q12 17 26 27v42q-13 -2 -27 -2zM172 139l1 -2l-9 -20l-2 -1q-18 16 -37 29v2l9 17l2 1q2 -1 6 -4q21 -13 30 -22z
M40 28q-2 -9 4 -15q9 -10 14 -4q2 2 2 9q0 2 -0.5 8t-0.5 9t-0.5 8t-1.5 7l-3 -3q-12 -10 -14 -19z" />
    <glyph glyph-name="uni304B" unicode="&#x304b;" 
d="M61 180v4v7q3 -1 9 -2q11 -2 16 -4q0 -3 -3 -8q-1 -2 -1 -3q-1 -4 -2 -13q-1 -4 -1 -6q-1 -10 -3 -21q2 0 7.5 0.5t8.5 0.5h11q10 0 15 -7q4 -9 4 -20v-4q0 -23 -6 -59q-8 -36 -22 -45q-8 -7 -25 -7h-4q-2 0 -2 1q-4 11 -9 25v2q2 0 5 -1q7 -2 11 -2h3q8 0 14 9q4 7 8 20
q7 21 7 48v6q0 12 -8 12q-5 0 -16 -2q-5 -1 -8 -1q-11 -43 -29 -82q-4 -11 -15 -28q-4 0 -10 5q-2 2 -3 2.5t-2 0.5q-4 1 -5 5q15 18 29 54q8 20 14 39q-12 -1 -21 -8q-3 -3 -6 -3l-11 29l1 2q8 -3 25 1q2 1 3 1q8 2 15 2q0 1 1 2q1 4 1 8q4 16 4 40zM128 149v2l14 14
q2 2 5 -4q1 -1 3 -3.5t8 -11.5q3 -5 5 -7q12 -21 23 -42v-3l-18 -15q-22 47 -40 70z" />
    <glyph glyph-name="uni304C" unicode="&#x304c;" 
d="M14 90l-9 28l2 2q1 0 4.5 -1t5.5 0q5 1 15 4t15 4q0 1 0.5 3t0.5 3q4 23 4 47v11l25 -8q0 -3 -2 -8q-2 -2 -2 -4q-1 -4 -2 -11q-1 -4 -1 -6q0 -5 -2 -15q-1 -5 -1 -7q2 1 6.5 1.5t6.5 0.5t5 0.5t4 0.5h3q9 0 14 -4q7 -8 7 -20v-12q0 -28 -7 -63q-5 -35 -20 -39
q-11 -6 -23 -6h-5q-1 4 -4 12.5t-5 12.5l1 2q2 0 5 -1q7 -2 10 -2h3q11 1 16 13q3 7 6 23q1 3 1 4q4 22 4 46q-1 13 -10 12q-12 -3 -22 -4q-14 -65 -42 -112l-1 -1q-4 3 -12 7q-4 3 -6 4v2q18 28 26 51q9 21 14 43q-2 -1 -5 -2q-6 -2 -17 -8q-3 -3 -6 -3zM166 94v-2l-16 -12
q-15 38 -37 69v2l14 11q21 -25 39 -68zM172 161v-2l-10 -10h-1q-2 2 -5 7q-8 14 -13 18v2l9 10q1 0 6 -5t14 -20zM161 195v2l9 10q2 0 3 -1l4 -4t9 -12q0 -1 1 -2q4 -5 3 -8l-8 -10h-2q-8 14 -19 25z" />
    <glyph glyph-name="uni304D" unicode="&#x304d;" 
d="M74 202l20 4q6 -16 10 -32q12 5 22 12h1q5 -10 7 -21q-7 -6 -23 -12q2 -5 5.5 -14.5t4.5 -14.5q16 7 27 14h3l6 -19v-2q-9 -5 -17 -8q-2 -1 -5.5 -2.5t-4.5 -1.5q0 -3 2 -6q5 -12 18 -34q2 -3 3 -5q4 -4 4 -10l-17 -21q-24 21 -60 21h-4q-8 0 -16 -4q-9 -8 -7 -22
q1 -4 8 -11q9 -7 18 -8q11 -3 22 -3h4q5 0 9 1l-1 -28h-6q-69 5 -72 54v5q1 17 15 29q14 9 30 9h7q17 0 37 -9l1 1l-9 21q-3 8 -5 13q-4 -2 -14 -4h-2q-20 -4 -41 -5l-2 1l-8 19v2h6q21 0 42 5q6 0 11 3q-1 2 -3 7q-5 13 -7 20q-16 -6 -32 -8q-1 4 -6 10q-1 3 -1.5 4t-1.5 2
q-2 3 -2 5q18 3 35 8q-5 12 -8 25q0 1 -1 3q-2 4 -2 7z" />
    <glyph glyph-name="uni304E" unicode="&#x304e;" 
d="M135 49l1 -2l-19 -16q-21 14 -44 14h-8q-12 0 -21 -6q-13 -14 -4 -28q4 -5 14 -9q8 -2 16 -2h4h11q1 0 2 1q4 1 6 0v-26h-20q-17 0 -34 9q-22 13 -22 37v5q1 20 18 33q14 7 32 7h8q6 0 19 -2q6 -1 9 -1q-8 14 -14 30q-1 0 -4 -0.5t-5 -1.5q-21 -6 -45 -6h-6l-8 24h9
q25 0 49 7q-1 3 -4 10l-6 15q-15 -6 -31 -6h-3l-9 22h4q4 0 12 2q-5 -2 2.5 -0.5t15.5 4.5q-7 18 -15 36l24 6h1q2 -19 8 -36q13 6 25 15l8 -19v-3q-7 -6 -22 -14q-2 -1 -3 -1q1 -2 3 -6.5t3 -7.5q2 -6 5 -12q15 6 29 15l7 -20q-12 -10 -27 -16q7 -15 16 -30q2 -3 6.5 -10
t6.5 -11zM154 172l-1 -2l-10 -10h-2q-2 3 -5 8q-10 15 -17 21v2l12 10h2q11 -14 21 -29zM175 189v-2l-10 -11h-1q-10 17 -23 30v2l11 10h2q9 -10 21 -29z" />
    <glyph glyph-name="uni304F" unicode="&#x304f;" 
d="M108 205h2l20 -19v-3q-5 -5 -12 -17q-2 -6 -4 -8q-14 -26 -29 -50q0 -1 -1 -2q-6 -11 -6 -18q0 -9 5 -15q6 -12 14 -22q3 -5 9.5 -16.5t9.5 -17.5q2 -4 6 -11q8 -13 12 -21v-2l-20 -16h-1q-4 8 -10 24q-4 11 -7 16q-5 11 -17 31q-7 13 -10 19q-1 3 -4 7q-7 13 -7 22v4
q0 10 8 24q6 10 12 22q13 21 23 46q4 11 7 23z" />
    <glyph glyph-name="uni3050" unicode="&#x3050;" 
d="M82 205h2q12 -11 21 -15v-2q-3 -3 -5 -9q-2 -3 -3 -5q-13 -31 -30 -59l-3.5 -7t-4.5 -8q-3 -6 -3.5 -12t5.5 -14q2 -1 2 -2q2 -3 5 -8q29 -45 42 -68q0 -1 1 -2q3 -4 3 -9l-18 -16h-2q-12 31 -44 83q-1 2 -4 6q-7 11 -9 18q-5 12 2 29q2 4 5.5 11.5t4.5 10.5q28 49 33 78
zM108 139v2l10 13q1 0 1.5 -0.5t4.5 -3.5q9 -9 13 -15q0 -1 1.5 -2.5t1.5 -3t-1 -2.5q-4 -6 -9 -10q-1 -1 -2 0q-3 4 -9.5 11.5t-10.5 10.5zM126 164l9 14q4 -1 10 -8l3.5 -3.5t4.5 -5t4.5 -5.5t-0.5 -2l-9 -13q-2 -1 -2 0q-9 11 -20 21v2z" />
    <glyph glyph-name="uni3051" unicode="&#x3051;" 
d="M37 93v-11q0 -30 6 -48h1q2 4 5.5 12.5t5.5 11.5h1l6 -6q-9 -34 -9 -56v-5q-2 0 -5 -1q-7 -2 -11 -2q-3 4 -7 13q-1 4 -2 6q-9 35 -9 74v14q0 32 6 63q4 20 0 33q8 0 24 -8q0 -3 -1.5 -9t-2.5 -9q-8 -37 -8 -72zM109 -23h-1q-1 0 -2.5 1.5t-2.5 1.5q-6 4 -13 9l-1 1
q22 17 30 42q8 21 8 62v12q-16 -1 -31 -1h-10q-2 0 -2 1l-7 25l1 2q3 0 8 -1q11 -2 17 -2h10q7 0 13 1q0 30 -7 60l28 -2q0 -3 -2 -10q-1 -3 -1 -5t-0.5 -6.5t-0.5 -6.5v-8q0 -3 0.5 -9t0.5 -10q14 5 27 9l2 -24q-14 -6 -28 -9v-17q0 -38 -5 -62q-9 -33 -31 -54z" />
    <glyph glyph-name="uni3052" unicode="&#x3052;" 
d="M13 194l24 -8q-2 -10 -5 -19q-9 -45 -9 -76v-15q0 -22 8 -42h1q5 14 9 27l10 -11q-10 -28 -12 -59l-14 -3q-20 39 -20 92v13q0 29 5 58q0 4 1 12q2 16 2 25v6zM80 109h-11l-4 25v1q11 -2 21 -2h9q9 0 17 1q-1 13 -4 40q-1 13 -2 20h4q4 0 14 -2q5 -1 7 -1q-2 -12 -2 -24
v-4q0 -8 2 -24q-2 11 0 -2q12 3 24 8h2q0 -5 1 -13t1 -12q-13 -4 -26 -7v-9v-9q0 -25 -5 -52q-4 -24 -18 -46q-1 -2 -3 -5q-6 -9 -9 -12q-1 0 -3 1q-7 4 -17 6l-1 1q19 18 28 45.5t8 59.5v14v4q-4 -1 -8 -1q-12 -1 -25 -1zM139 185l10 12q2 -2 6 -7q10 -10 14 -17l-10 -14
q-9 14 -20 26zM155 205l10 13q15 -15 22 -24l-10 -13q-9 14 -22 24z" />
    <glyph glyph-name="uni3053" unicode="&#x3053;" 
d="M94 170h6q19 1 37 7v-28q-15 -3 -31 -3h-17q-15 1 -31 4l-1 1l-4 28l1 1q25 -10 40 -10zM90 29h16q28 0 55 9v-32q-23 -6 -57 -6h-12q-22 0 -35.5 8.5t-25.5 25.5v3l13 16h1q10 -15 21 -20q7 -4 24 -4z" />
    <glyph glyph-name="uni3054" unicode="&#x3054;" 
d="M39 151l-4 27q4 -1 11 -3q18 -5 29 -5h3q20 1 39 7v-31q-12 -3 -25 -3h-8q-16 0 -45 8zM9 37l14 16h2q9 -14 20 -20q13 -7 30 -7h9q29 0 57 11v-35q-27 -2 -54 -2h-13q-21 0 -30 4q-14 5 -30 25l-1 1q-4 3 -4 7zM133 139v2l10 13q1 0 6 -4.5t14 -14.5q0 -1 1 -1.5t1 -3
t-1 -3.5q-4 -6 -9 -10q0 -1 -2 0q-9 11 -20 22zM151 164l9 14q3 -1 9 -7q3 -3 5 -4.5t5 -5t4 -5.5v-2l-10 -13q0 -1 -1 0q-10 11 -21 21v2z" />
    <glyph glyph-name="uni3055" unicode="&#x3055;" 
d="M140 162l2 -1l4 -20v-3q-12 -7 -26 -11q19 -42 37 -66v-2l-17 -17q-1 -1 -2 0q-12 10 -26 16q-16 6 -25 6h-3q-8 0 -20 -6q-12 -8 -12 -21q1 -6 4 -10q5 -9 13 -12q10 -6 27 -6h9q7 0 13 1l1 -1l-3 -26h-13q-25 0 -44 13q-23 12 -24 41v4q1 24 15 35q11 9 27 9h9
q21 1 39 -11l1 2q-7 12 -20 37q-3 5 -4 8q-28 -8 -58 -10l-7 23v2q6 -1 11 -1h3q24 0 42 7q0 4 -2 7q-8 20 -17 40v2q12 2 24 5q2 -26 13 -49q15 6 29 15z" />
    <glyph glyph-name="uni3056" unicode="&#x3056;" 
d="M33 114h-4q-2 0 -2 1l-9 23h16q21 0 43 4q0 2 -1 4.5t-2 3.5q-7 20 -16 39v1l26 3q1 -6 1 -12q3 -18 9 -34q17 6 32 15h2l6 -24q-15 -7 -31 -13l6 -12q1 -2 2 -5q15 -33 27 -47l-16 -22q-21 24 -50 24h-3q-12 0 -23.5 -5.5t-11.5 -17.5q0 -22 27 -29q11 -4 26 -4h13
l-3 -24h-9q-21 -1 -43 11q-26 15 -27 44v4q1 22 16 34q14 9 31 9h7q13 0 35 -8l-6 12q-11 20 -15 31q-8 -2 -23 -4h-3q-13 -2 -27 -2zM124 178v2l10 13q1 0 6.5 -4.5t12.5 -14.5q3 -2 3 -4.5t-1 -3.5q-4 -6 -9 -10q0 -1 -2 0q-9 11 -20 22zM142 203l9 14q4 -1 12 -9
l2.5 -2.5t4.5 -5t4 -5.5v-2l-10 -13q0 -1 -1 0q-10 11 -21 21v2z" />
    <glyph glyph-name="uni3057" unicode="&#x3057;" 
d="M41 199h1l25 -6q-1 -6 -3 -12v-138q0 -19 5 -28q7 -10 16 -10h4q7 0 13 4q9 4 18 11q12 11 21 25h1l9 -23q2 -2 0 -2q-13 -20 -31 -30q-14 -10 -33 -10h-3q-14 0 -25.5 9.5t-13.5 28.5q-2 14 -2 29v131q0 11 -2 21z" />
    <glyph glyph-name="uni3058" unicode="&#x3058;" 
d="M35 199l26 -4v-3q-2 -8 -2 -14v-2v-128q0 -17 5 -31q5 -12 19 -12h3q25 0 51 40h2l9 -21q2 -2 0 -2q-12 -19 -28.5 -30.5t-36.5 -11.5h-5q-22 2 -33 24q-7 20 -7 47v123q0 13 -3 25zM107 153v2l10 13h2q9 -9 17 -19q3 -2 4 -5q-1 -2 -2 -3q-4 -6 -9 -10q0 -1 -2 0
q-9 11 -20 22zM125 178l9 14q5 -1 11 -8l3.5 -3.5t4.5 -5t4 -5.5v-2l-10 -13q0 -1 -1 0q-10 11 -21 21v2z" />
    <glyph glyph-name="uni3059" unicode="&#x3059;" 
d="M25 133l-2 1l-7 29l1 2q8 -2 17 -2h9q3 0 13 1q23 1 41 2q-1 24 -5 47l27 -6q-4 -15 -4 -31v-9h28h33v-29q-28 5 -56 5h-5v-31l1 -1q6 -11 6 -34v-17q0 -19 -7 -42q-6 -18 -17 -33q-6 -11 -14 -18q0 -2 -1 -0.5t-4 3.5q-11 9 -18 11v2q28 17 39 51q-16 -11 -29 0
q-15 14 -15 40v5q4 42 32 46h4q2 0 5 -1v19h-8q-33 0 -64 -10zM97 79v13q-1 10 -6 11q-2 0 -6 -3q-1 -1 -2 -1q-6 -8 -6 -20v-5q1 -20 8.5 -20.5t9.5 10.5q2 4 2 15z" />
    <glyph glyph-name="uni305A" unicode="&#x305a;" 
d="M20 130l-10 30l1 2q2 0 6 -1q8 -2 11 -2h4q11 0 32 2q11 1 16.5 1t13.5 1q-2 26 -6 47q14 -1 27 -3l1 -2q-4 -9 -6 -29v-6.5v-5.5q5 0 15.5 0.5t15.5 0.5h32v-27q-26 5 -53 5h-10v-10v-23q2 -1 3 -4q6 -14 6 -32v-7q0 -46 -21 -79q-8 -12 -17 -21q0 -2 -1 0q-3 1 -8 4
q-10 6 -16 8v1q13 6 22 19q15 16 16 32q-4 -2 -9 -2h-3q-26 4 -29 43v4q4 42 32 46h3q2 0 4 -1q2 11 2 22q-19 0 -39 -4q-18 -3 -35 -9zM94 77v14q-1 11 -8 12q-2 0 -7 -5l-2 -2q-8 -13 -5 -29q2 -13 11 -14q10 1 11 24zM182 196l-10 -11q-2 2 -6 7q-7 10 -12 14l8 11l5 -5
q10 -10 15 -16zM169 179l-10 -11q-12 16 -20 24l9 11q9 -8 21 -24z" />
    <glyph glyph-name="uni305B" unicode="&#x305b;" 
d="M14 90l-6 28l1 2q6 -1 11 -1h4q11 0 14.5 1t9 2t8.5 1v20q0 17 -4 32l26 -2q0 -4 -2 -7q-2 -10 -2 -20.5v-21.5q2 1 5.5 1.5t4.5 0.5q19 1 38 4v21v17q0 11 -2 23q11 -2 23 -2l1 -1q-1 -13 -2 -37q-1 -13 -1 -19q7 0 13 1q15 0 28 2l2 -29q-9 3 -19 3h-12q-6 0 -13 -1
q0 -3 -1 -8q0 -3 -1 -9q-1 -19 -3 -27q-6 -19 -16 -19h-3q-2 0 -8 1q4 -1 -2 1v24h5q5 0 7 12q0 1 1 5.5t1 14.5q0 1 1 2v2q-15 -1 -29 -3q-3 0 -9 -0.5t-9 -1.5q0 -32 2 -62q1 -21 13 -22h31q18 0 36 5v-27q-4 0 -13 -1q-16 -2 -25 -2h-10q-21 -1 -31 5q-17 5 -20 31
q-1 10 -1 33v38q-18 -2 -36 -8l-1 -1q-2 -1 -5 -1z" />
    <glyph glyph-name="uni305C" unicode="&#x305c;" 
d="M62 99v-37q0 -9 0.5 -16.5t1.5 -15.5q5 -17 17 -17h19q24 0 46 8l-2 -30h-67q-8 0 -16 5q-6 3 -10 10q-7 15 -7 39v52l-36 -6q-3 -1 -6 -1v27h18q12 0 24 1q0 28 -4 55l23 -3q0 -4 -0.5 -12t-0.5 -11v-27q11 0 20 2q5 1 13.5 1.5t12.5 0.5v42q0 3 -1 11t-1 12l24 -3v-2
l-2 -9q0 -8 -0.5 -24.5t-0.5 -24.5q12 2 23.5 2.5t21.5 2.5v-26q-4 0 -12.5 0.5t-13.5 0.5h-9q-5 0 -11 -1q0 -3 -0.5 -11t-0.5 -11.5t-0.5 -10.5t-1.5 -10q-1 -14 -8.5 -20t-21.5 0l-1 24h6q4 1 7 9q1 2 1.5 7.5t0.5 7.5t0.5 6.5t0.5 6.5h-6q-21 -1 -40 -4zM141 164v2l9 13
q2 0 6.5 -4.5t13.5 -14.5q0 -1 1.5 -2.5t1.5 -2.5t-1 -2v-1q-6 -6 -9 -10q-2 -1 -2 0q-3 4 -9.5 11.5t-10.5 10.5zM159 189l9 14q4 -1 10 -8l3.5 -3.5t4.5 -5t4 -5.5v-2l-10 -13q0 -1 -1 0q-11 11 -20 21v2z" />
    <glyph glyph-name="uni305D" unicode="&#x305d;" 
d="M85 145l-1 -2l-17 -11l-2 1q-9 30 -18 45q2 1 5 4q9 6 13 7l3 -6q13 -25 17 -38zM167 125h4v-27h-7q-13 0 -33 -12q-14 -9 -23 -24q-11 -17 -7 -30q6 -19 23 -25q8 -3 24 -5q1 0 0.5 -1t-1.5 -8q-2 -12 -4 -18h-3q-9 0 -21 6q-11 4 -19 12q-18 14 -19 42v5q0 18 13 37
q0 1 1 2q8 9 16 16q-34 -7 -62 -24q-1 -1 -4 -3q-7 -5 -11 -5q-4 2 -7.5 10.5t-5.5 21.5q9 -4 27 2q2 1 3 1q4 1 11 4q11 4 17 6q1 0 2 1h1q9 9 16 21q20 30 29 69h2l23 -15v-2q-4 -3 -10 -14q-1 -1 -1.5 -2.5t-3.5 -6.5q-8 -18 -14 -27q-1 -2 -4.5 -7t-5.5 -8q1 0 4 1
q12 2 28 4q2 0 7 1q10 2 15 2z" />
    <glyph glyph-name="uni305E" unicode="&#x305e;" 
d="M67 146l-19 -11q-4 17 -18 48l16 8q5 -9 14 -30q5 -10 7 -15zM135 186v-2q-7 -7 -17 -26q-4 -8 -6 -11q-7 -13 -15 -25q-1 -3 -3 -4q5 1 14 2.5t13 2.5q1 0 4 1q12 2 28 4l1 -27h-6q-12 0 -32 -10q-16 -9 -24 -22q-10 -16 -10 -28q0 -14 8 -22q11 -14 34 -14h6l-6 -28
q-20 3 -40 16q-20 15 -21 42v5q0 17 12 36q8 13 18 22q-2 -1 -7 -2q-49 -13 -71 -33l-12 32h6q10 0 28 6q15 4 30 10q7 11 13 21q22 36 28 67q6 -1 16 -7q7 -5 11 -6zM170 168l-10 -11l-15 21q-3 3 -4 5l9 11q11 -12 20 -26zM189 190l-9 -11q-9 14 -20 26l10 11
q10 -12 19 -26z" />
    <glyph glyph-name="uni305F" unicode="&#x305f;" 
d="M31 124l-1 1l-4 24l1 2q10 -2 19 -2h5q8 0 15 1q0 2 1 5q6 26 6 41v6h2l22 -8v-3q-6 -6 -7 -16q-1 -4 -3 -11.5t-3 -11.5q15 3 30 8l1 -1v-26q-17 -4 -35 -6q0 -1 -0.5 -3.5t-1.5 -3.5q-18 -86 -39 -137l-21 8l-1 2q26 63 43 132q-4 0 -14 -0.5t-15 -0.5zM131 117h7
q13 0 25 -2l1 -27l-1 -1q-20 6 -32 6h-7q-8 0 -17 -3l4 25q3 0 9.5 1t10.5 1zM175 18l-2 -27q-12 -3 -25 -3h-7q-17 0 -34 5q-1 0 -3 1q-5 0 -7 3v24q26 -8 39 -8h4q18 0 35 5z" />
    <glyph glyph-name="uni3060" unicode="&#x3060;" 
d="M63 193v6h2l24 -8v-2q-4 -6 -6 -14q-2 -6 -4 -18q-1 -5 -2 -8q15 3 28 8l2 -1l-2 -26q-19 -5 -34 -6q-8 -39 -19 -77q-9 -36 -22 -66l-1 -1l-23 11q17 28 33 84q8 23 12 47h-15h-12l-2 1l-4 26q3 0 8 -1q10 -2 15 -2h8h8q6 30 6 47zM127 114h7q5 0 15 -2q5 -1 7 -1
l-1 -26q-2 0 -6 1q-15 4 -22 4h-7q-5 0 -14 -2q-5 -1 -7 -1l2 24q3 0 9 1q12 2 17 2zM126 10h8q16 0 31 5l-2 -27q-13 -3 -27 -3h-5q-18 0 -44 11l2 22q24 -8 37 -8zM136 156v2l10 13q1 0 6.5 -4.5t12.5 -14.5q0 -1 1.5 -2.5t1.5 -3t-1 -2.5q-4 -6 -9 -10q-1 -1 -2 0
q-9 11 -20 22zM154 181l9 14q4 -1 12 -9l2.5 -2.5t4.5 -5t4 -5.5v-2l-10 -13q0 -1 -2 0q-9 11 -20 21v2z" />
    <glyph glyph-name="uni3061" unicode="&#x3061;" 
d="M128 169v-27q-27 -10 -54 -13q0 -5 -0.5 -14t-1.5 -14q-2 -9 -2 -17v-4q0 -2 1 -2q34 26 55 25h5q17 0 30 -16q11 -16 11 -37v-4q-1 -25 -16 -45q-17 -17 -38 -21q-10 -3 -21 -3h-5q-1 3 -3.5 9t-5 9t-3.5 7h10q17 0 26 3q12 2 19 9q22 20 15 48q-7 17 -25 17h-3
q-33 -1 -56 -45q-3 0 -10 2q-3 1 -5 1q-1 2 -1 3v4q3 42 7 84h-4h-5q-13 0 -26 3l-2 26q15 -3 29 -3h11q0 4 1 12q2 16 2 24v4q0 1 -0.5 3.5t-0.5 4.5q12 -1 24 -3l1 -1q-4 -6 -6.5 -18.5t-3.5 -24.5q26 2 51 14z" />
    <glyph glyph-name="uni3062" unicode="&#x3062;" 
d="M14 125l-7 29q5 0 14.5 -1.5t13.5 -1.5h15q0 5 1 15.5t1 16.5v5q0 4 -2 12q2 -5 0 2q5 0 14 -1.5t13 -2.5q0 -6 -4 -10q-4 -16 -6 -36q3 1 9 2q8 2 11 3q20 5 31 12h1v-28q-11 -6 -36 -10q-9 -1 -18 -3q-3 -27 -4 -54q10 12 22 19q14 10 31 10h5q21 0 33 -13
q13 -16 14 -38v-5q0 -15 -10 -33q-7 -14 -23 -23q-17 -13 -48 -15l-12 24h5q8 0 14 2q12 1 23 7q27 15 28 39v4v1v1q-4 14 -9 19.5t-14 5.5h-5q-38 -2 -58 -48l-16 6q3 28 7 83q-3 -38 0 6q-5 0 -16.5 -0.5t-17.5 -0.5zM185 181l-10 -13q-10 15 -21 28l10 12q2 -3 7 -9
q10 -11 14 -18zM167 163l-10 -13q-9 15 -21 28l10 12q2 -3 7 -9q10 -11 14 -18z" />
    <glyph glyph-name="uni3063" unicode="&#x3063;" 
d="M119 157h4q18 0 32 -15q13 -18 13 -42v-4q0 -17 -7 -31q-5 -12 -20 -26q-21 -19 -45 -21l-12 19q27 5 45 19q23 18 23 43v4q-3 30 -31 35h-3q-8 0 -24 -6q-8 -4 -17 -9q-16 -9 -30 -21q-1 -1 -3 -2q-3 -3 -4 -2l-16 24q21 6 41 17q3 1 9 4q29 15 45 14z" />
    <glyph glyph-name="uni3064" unicode="&#x3064;" 
d="M119 165h3q28 -1 44 -19q19 -22 20 -53v-5q0 -24 -11 -43q-9 -16 -22 -26q-14 -13 -30.5 -19.5t-26.5 -6.5l-18 24v1q22 2 43 12q24 12 34.5 26.5t10.5 31.5v5q0 17 -14 35q-11 13 -26 13h-4q-13 0 -37 -10q-21 -9 -41 -21q-1 -1 -3 -2q-11 -6 -13 -13h-2l-20 28v2
q15 4 45 18q20 9 30 13q1 0 4 1q22 8 34 8z" />
    <glyph glyph-name="uni3065" unicode="&#x3065;" 
d="M111 162h5q25 0 43 -18q19 -21 20 -51v-7q0 -22 -9 -39q-6 -14 -22 -28q-18 -19 -60 -27l-2 1q-3 5 -9 14q-3 7 -5 10q19 2 37 9q27 10 40 30q12 16 12 33v4q-1 22 -16 35q-14 10 -29 10h-3q-10 0 -30 -6l-10.5 -3.5t-11.5 -4.5q-26 -11 -41 -26l-18 29q12 2 36 13
q5 3 8.5 4.5t12.5 4.5l9 3q28 10 43 10zM140 183l8 14q12 -9 23 -21l-9 -14l-5 5q-11 11 -17 16zM159 204l8 14q12 -9 23 -21l-9 -14l-5 5q-11 11 -17 16z" />
    <glyph glyph-name="uni3066" unicode="&#x3066;" 
d="M18 151h2q22 6 65 18t65 17q11 3 23 5l1 -29h-5q-35 0 -51 -24q-20 -29 -20 -68v-4q0 -25 10.5 -39.5t33.5 -13.5h13v-30h-12q-30 1 -47 22q-16 23 -16 59v9q0 37 24 78q-10 -3 -30 -10q-10 -3 -15 -5q-2 -1 -8 -3q-14 -6 -21 -11z" />
    <glyph glyph-name="uni3067" unicode="&#x3067;" 
d="M3 151h4q8 0 24 5q6 2 8 3q13 5 28 9q25 8 49 14q20 4 30 9q0 -4 2 -11q2 -10 1 -15q-3 -1 -11 -3q-17 -3 -25 -11q-14 -14 -21 -43q-5 -18 -5 -35v-6q0 -25 11.5 -39.5t28.5 -14.5h4q6 0 12 2v-30h-6q-27 1 -47 17q-21 23 -22 63v5q0 40 23 82q-2 -1 -7 -2
q-35 -12 -53 -20q-2 -1 -5 -2q-8 -3 -11 -8l-12 29v2zM141 138l11 12q1 -2 4 -6q9 -13 13 -21l-10 -12l-6 9q-7 13 -12 18zM161 157l11 12q9 -12 17 -26l-11 -12q-7 14 -17 26z" />
    <glyph glyph-name="uni3068" unicode="&#x3068;" 
d="M139 159l16 -25v-2q-46 -18 -72 -41q-15 -12 -24 -30q-3 -8 -4 -17v-4q0 -18 14 -27q10 -6 25 -6h6q22 0 43 8l2 -30h-3q-16 -2 -35 -2h-11q-27 -1 -40 11q-18 14 -19 45v5q0 34 31 63l3 3q-6 36 -24 84l21 5q12 -36 22 -75q14 9 27 18q11 6 22 17z" />
    <glyph glyph-name="uni3069" unicode="&#x3069;" 
d="M30 194l19 4q8 -21 21 -65q1 -5 2 -8q1 1 7 4.5t18 9.5q1 0 3 1q7 3 16 10q1 0 2 2q3 2 4 2l14 -21v-2q-15 -5 -30 -13q-24 -13 -46 -31q-12 -10 -19 -24q-5 -9 -5 -20v-4q1 -16 15 -26q13 -6 25 -6h3q13 0 37 5q5 2 7 2l3 -29h-3q-13 -2 -29 -2h-16q-17 0 -30 7
q-20 10 -26 24q-4 9 -4 24v5q0 24 16 47q9 12 20 22q-7 37 -24 82zM126 175l11 9q11 -15 18 -31l-11 -10q-3 6 -9 16.5t-9 15.5zM145 193l11 9q11 -15 18 -31l-11 -10q-1 3 -4 8q-8 15 -14 24z" />
    <glyph glyph-name="uni306A" unicode="&#x306a;" 
d="M31 127l-3 27h7q7 0 16 1q2 0 5.5 0.5t5.5 0.5v3q5 19 5 40v6q4 -2 11.5 -4t10.5 -4q-1 -4 -2.5 -11.5t-1.5 -10.5q-1 -7 -3 -15q14 3 27 8v-26q-16 -7 -33 -10q-14 -61 -39 -111h-2l-18 8v2q25 42 39 98h-3q-10 -2 -22 -2zM98 -25h-4q-17 0 -25.5 12.5t-5.5 29.5
q4 12 10 19q12 8 27 9h6h6q0 39 -2 80h2l17 -5q0 -6 -1 -12q0 -11 1 -33.5t1 -33.5q22 -8 40 -23v-3l-7 -22q-3 0 -8 6q-1 1 -2 1q-11 8 -22 14v-1q0 -10 -2.5 -16.5t-5.5 -10.5q-7 -11 -25 -11zM165 103h-1q-15 23 -33 40l10 19h2q14 -13 26 -28q5 -5 7 -11zM99 23h-3
q-12 -1 -15 -10q-3 -15 10 -17h7q14 1 15 24v1q-8 2 -14 2z" />
    <glyph glyph-name="uni306B" unicode="&#x306b;" 
d="M29 191l26 -10q-1 -7 -6 -18q-1 -2 -1 -3q-11 -39 -11 -80v-8q0 -24 7 -46h1q2 4 4.5 11t3.5 10l8 -2q-1 -5 -3 -16q-3 -21 -3 -30v-6l-18 -5q-10 16 -13 39q-5 20 -5 51v11q0 23 6 64q4 17 4 33v5zM124 170h8q7 0 21 -2q5 -1 8 -1v-26q-4 0 -13 1t-14 1h-8q-8 0 -23 -3
q-12 -2 -18 -2l-2 26q6 0 18 3q15 3 23 3zM123 31h7q21 0 42 8l1 -27q-17 -7 -35 -7h-8q-35 0 -53 22q-6 6 -6 12l13 11q14 -19 39 -19z" />
    <glyph glyph-name="uni306C" unicode="&#x306c;" 
d="M115 26h-4q-5 0 -8 -3t-3 -9q1 -11 12 -12h4q11 0 24 15q-1 0 -2 0.5t-2 1.5q-9 7 -21 7zM25 36v-4q1 -10 7.5 -10.5t14.5 10.5l5 5t8 13q-11 15 -20 32l-1 -2q0 -1 -3 -5q-11 -24 -11 -39zM67 118q-4 -4 -11 -12q-3 -3 -4 -5q8 -15 18 -29q0 1 6 15.5t10 42.5
q-10 -4 -19 -12zM175 81v-4q0 -28 -9 -52q10 -6 19 -15l-9 -21q-2 2 -7 6q-3 3 -13 10q-16 -21 -42 -22h-3q-26 3 -28 29q2 29 33 33h4q13 0 29 -9q6 17 6 34v6q0 27 -13 44q-12 14 -31 15h-3h-5q-3 -26 -10 -50q-4 -16 -10 -29q2 -1 4.5 -4t3.5 -5l-13 -18h-1q-1 1 -2.5 3
t-2.5 3q-4 -9 -10 -16q-16 -23 -32 -23h-3q-18 2 -20 34v5q0 20 9 43q6 14 13 27q-6 17 -11 33q-1 5 -3 11l19 10q2 -19 8 -35q23 26 47 33v13v7q0 6 -2 19q2 -9 0 3q8 -1 21 -4q-2 0 3 -1q1 -3 -1 -7q-1 -1 -2 -5.5t-1 -14.5q0 -1 -0.5 -3.5t-0.5 -3.5h5q28 -1 47 -23
q16 -23 17 -56z" />
    <glyph glyph-name="uni306D" unicode="&#x306d;" 
d="M187 21l-10 -21h-1q-2 3 -7 8.5t-8 7.5t-4 3q-14 -27 -38 -28h-4q-20 2 -28 18q-7 22 10 40q11 9 24 9h3q11 0 21 -5q2 16 2 31v16q0 18 -8.5 28.5t-23 3t-37.5 -35.5q-10 -12 -19 -24v-7q0 -23 4 -63q0 -2 0.5 -8t0.5 -9l-22 -2q1 16 1 64q-1 -2 -2.5 -5.5t-2.5 -5.5
l-3 -6q-9 -18 -10 -28h-2l-18 16v3q7 9 13 21q15 26 26 53v22q-22 -9 -31 -19l-8 27v2q4 1 11 3q19 5 29 10q1 5 1.5 12.5t0.5 16.5v5q0 4 -1 13.5t-1 14.5h2l24 -6q0 -2 -1.5 -7t-2.5 -8q-4 -10 -6 -31q5 3 8 7h2q2 -2 4.5 -5t9.5 -9q-13 -18 -22 -39q12 19 29 34
q23 21 40 21h3q16 0 28 -28q6 -20 6 -41v-6q1 -21 -5 -42q14 -7 23 -21zM116 34q-16 -3 -12 -16q3 -8 11 -8q6 0 11.5 4.5t10.5 12.5q0 1 1 2v1q-11 4 -22 4z" />
    <glyph glyph-name="uni306E" unicode="&#x306e;" 
d="M7 67v5q0 12 6 34q1 2 3 7q5 15 10 22q16 29 41 41q22 10 35 10h8q34 0 54 -27.5t21 -64.5v-7q0 -34 -20 -63q-15 -24 -37 -36q-1 -2 -2 0q-7 9 -17 15v2q53 34 54 87v5q0 24 -16 46q-14 16 -32 19q-6 -38 -16 -74q-1 -2 -2 -6q-12 -40 -21 -59q-10 -24 -25 -24
q-22 1 -36 34q-8 16 -8 34zM27 77v-5q0 -16 6.5 -29.5t14 -13.5t14.5 13q3 6 8 20q1 3 2 4q20 58 25 95q-15 -2 -28 -10q-19 -14 -30.5 -36.5t-11.5 -37.5z" />
    <glyph glyph-name="uni306F" unicode="&#x306f;" 
d="M31 199h2l20 -10q-1 -6 -4 -16q-1 -4 -2 -6q-7 -21 -10 -43q0 -3 -2 -10q-3 -21 -3 -32v-8q0 -23 5 -48h2q5 11 8 21h2l6 -8q0 -2 -2.5 -15t-5.5 -36l-16 -5q-16 34 -16 88v15q0 18 6 52l3 12q7 29 7 45v4zM100 -17h-3q-14 0 -23.5 8.5t-10.5 25.5v4q1 14 11 24
q11 8 23 8h3q10 0 19 -2q0 10 -1 29t-1 28v6h-7h-9q-10 0 -29 4q13 -3 -3 0l-2 25q3 0 9 -1q21 -4 31 -4h6h4q0 7 -0.5 19.5t-1.5 18.5q0 2 -1 5q-1 8 -3 13l26 -5q-1 -24 -1 -50q1 0 4 1q12 2 27 6v-24q-15 -4 -31 -6q0 -12 0.5 -36t0.5 -36q5 -2 14 -8l6 -3q11 -7 20 -18
l-12 -19h-2q-6 6 -12.5 12t-14.5 11q-2 -14 -8 -21q-10 -15 -28 -15zM98 31h-4q-15 -1 -15 -11q1 -13 17 -15h3q10 0 16 10q3 5 4 12q-10 4 -21 4z" />
    <glyph glyph-name="uni3070" unicode="&#x3070;" 
d="M20 197h3l22 -11q-1 -4 -4 -13q-2 -5 -3 -8q-15 -43 -15 -84v-7q0 -31 7 -53q5 12 9 24l9 -7q-6 -24 -7 -46v-7l-17 -5h-1q-17 42 -17 92v9q0 25 9 63q5 22 5 46v7zM105 191l24 -2q-3 -16 -3 -32q-1 -3 -1 -17h1q2 1 3 1q15 2 30 8v-26q-10 -3 -30 -6q-3 -1 -4 -1
q1 -8 1 -16q1 -26 4 -50v-5q17 -8 41 -27l-12 -22q-3 3 -10 7q-13 11 -19 15q-3 -17 -9 -21q-10 -13 -30 -14h-3q-22 2 -29 20q-7 23 8 40q9 9 26 10h3q8 0 16 -2q0 11 -1.5 32t-2.5 31h-10h-9q-15 0 -30 4v25q1 0 2 -1q17 -5 27 -5h9q6 0 11 1v3v24q0 3 -1 9q-1 12 -2 17z
M170 170l-10 -12q-3 4 -10 11.5t-11 11.5l10 13q2 -3 7 -8q10 -10 14 -16zM186 188l-10 -12q-3 4 -10 11.5t-11 11.5l10 13q2 -3 7 -8q10 -10 14 -16zM93 31h-4q-10 0 -14 -7q-6 -10 3 -19q15 -7 29 7q5 5 6 15q-1 0 -2 1q-8 3 -18 3z" />
    <glyph glyph-name="uni3071" unicode="&#x3071;" 
d="M19 197h2q11 -6 22 -11v-3q-4 -6 -6 -14q-6 -22 -11 -45q-3 -23 -4 -46v-11q0 -3 0.5 -9t0.5 -8q2 -15 6 -27q5 10 8 22l10 -5q-8 -34 -8 -51v-4l-14 -5h-2q-6 12 -10 25q-8 29 -8 61v17q0 15 5 46q1 7 2 11q0 2 1 7q6 29 6 44v6zM164 157q-22 1 -23 29q2 27 23 29
q22 -2 23 -29q-1 -27 -23 -29zM164 173q10 1 11 12q-1 13 -11 14q-10 -1 -10.5 -13.5t10.5 -12.5zM167 21l-10 -25q-15 11 -30 21q-1 -12 -7 -19q-10 -15 -28 -15h-4q-31 4 -33 35q2 31 34 35h4q4 0 13 -2q-6 2 3 0v3q-2 24 -2 50v10h-9h-8q-16 1 -33 4v25q17 -6 35 -7h8h7
q0 28 -4 55l25 -2v-2q-2 -3 -2 -12q0 -6 -1 -9v-27q1 0 2 1h2q18 4 26 9v-25q-14 -5 -29 -8q0 -21 1 -44v-23v-4q19 -8 40 -24zM90 31h-4q-14 -1 -15 -14q1 -11 15 -12h3q8 0 13.5 6t6.5 16q-9 4 -19 4z" />
    <glyph glyph-name="uni3072" unicode="&#x3072;" 
d="M14 170h4q30 1 54 21h2l16 -16v-2q-2 -3 -7 -8q-8 -8 -11 -12q-8 -11 -19 -37q-1 -3 -1.5 -4l-1.5 -3q-10 -31 -10 -49v-5q0 -17 8 -29q11 -16 24 -16h4q20 1 31.5 18.5t14.5 49.5q1 17 1 35v13q0 25 -3 52l18 5q0 -6 1.5 -9.5t2.5 -10.5q2 -5 2 -7q2 -3 5 -10q2 -5 3 -7
q10 -19 22 -35q0 -1 2 -2q3 -4 2 -7l-15 -16h-3q-11 19 -20 40v-28q0 -49 -16 -77q-18 -29 -47 -31h-3q-20 1 -37 17q-15 18 -15 48v8q0 47 30 101q-4 -3 -12 -6.5t-12 -5.5q-1 -1 -1 -2q-3 -3 -5 -2l-8 26v3z" />
    <glyph glyph-name="uni3073" unicode="&#x3073;" 
d="M60 191h1l17 -15v-2q-16 -12 -30 -38q-14 -29 -18 -48q-5 -15 -5 -29v-4q3 -44 35 -48h3q14 0 24 10q11 13 15 26q11 28 11 67v9q0 22 -8 59q9 2 18 3q14 -52 42 -86l-16 -16q-12 15 -19 35q-1 -8 -2 -24q-2 -42 -10 -62q-17 -43 -55 -45h-4q-21 1 -38 19q-13 19 -14 49
v6q0 30 24 83q4 9 6 14q-4 -3 -12 -5q-11 -3 -16 -8l-8 26l12 3q27 6 41 16q1 0 3 2.5t3 2.5zM142 180l11 11q12 -15 20 -32l-12 -13q-9 18 -19 34zM159 199l10 14q1 -2 4 -5q13 -16 18 -25l-10 -13q-10 15 -22 29z" />
    <glyph glyph-name="uni3074" unicode="&#x3074;" 
d="M63 191l15 -15v-2q-16 -13 -28 -41q-1 -2 -2 -6q-11 -24 -14 -39q-5 -14 -5 -28v-5q4 -43 35 -48h4q19 1 32 21q10 15 13 47q3 15 3 32v7q0 22 -5 47q0 2 -2 7q-1 7 -2 10q11 2 20 5q6 -43 40 -88l-15 -16q-6 8 -15 26l-6 12v-17q0 -23 -4 -44q-4 -26 -11 -39
q-20 -33 -50 -34h-3q-20 0 -36 17q-18 22 -18 48v4q0 16 5 32q1 5 4 16q1 5 2 8q9 24 20 48q-3 -2 -9 -4q-10 -3 -14 -7q-1 -1 -1 -2q-3 -3 -5 -2l-8 29h4q16 1 31 7q13 5 23 14h2zM169 146h-3q-18 2 -20 29q2 28 20 30h3q19 -2 20 -31q-1 -27 -20 -28zM177 175
q-1 13 -10 14q-9 -1 -10 -14q1 -12 10 -13q10 1 10 13z" />
    <glyph glyph-name="uni3075" unicode="&#x3075;" 
d="M69 173l12 19q20 -12 36 -31l-13 -20q-17 18 -35 32zM72 125h18v-3q1 -13 5.5 -27.5t10.5 -27.5q1 -2 2 -6q13 -28 9 -44q-5 -22 -23 -24q-8 0 -17 3l-1 1l-3 22l1 2q13 -7 19 3q6 8 -2 27q-1 3 -4 9q-4 11 -6 17q0 1 -1 3q-8 25 -8 41v4zM2 58l18 8q3 -10 6 -21
q2 -8 7 -8q2 0 7 5q8 7 14 16q1 -3 2 -9q2 -12 4 -18q-2 -3 -7 -8q-10 -14 -17 -17q-15 -6 -26 21q-5 15 -8 31zM136 74l15 12q21 -22 39 -57l-16 -16h-2q-16 31 -36 61z" />
    <glyph glyph-name="uni3076" unicode="&#x3076;" 
d="M69 173l12 18q1 -1 3 -2q25 -16 33 -30l-12 -18q-16 18 -36 32zM53 55l8 -21v-3q-7 -11 -16 -19q-7 -7 -15 -7h-3q-10 -1 -17 20q-3 7 -6 22q-2 7 -3 11l18 8q1 -3 3 -9.5t2 -8.5q3 -11 10 -11q5 0 14 11q3 5 5 7zM191 23l-17 -13h-1q-16 35 -37 62l13 11h2q2 -2 6 -7
q3 -3 11 -13q3 -4 8.5 -13t8.5 -14q1 -1 2 -4q4 -5 4 -9zM138 158l11 12q11 -14 19 -31l-12 -12h-1q-8 16 -17 31zM191 157l-12 -11q-9 16 -19 31l12 9q10 -14 19 -29zM71 125h18v-3q1 -13 6 -27q2 -6 6 -17q3 -7 4 -11q1 -2 2 -6q13 -28 9 -44q-5 -23 -23 -24q-8 0 -17 3v1
l-4 22l1 2q12 -7 20 3q5 7 -2 25q-1 1 -1 2q-4 12 -9 26q-10 26 -10 44v4z" />
    <glyph glyph-name="uni3077" unicode="&#x3077;" 
d="M116 159l-12 -18q-10 13 -34 30l10 20q20 -14 36 -32zM90 124v-4v-2q3 -22 9 -34q2 -7 7.5 -20.5t7.5 -20.5q4 -10 4 -17v-4q-2 -28 -23 -31h-3q-5 0 -8 1q-4 -1 -8 2l-2 24l10 -3q10 -1 12 12v4q0 9 -7 26l-3 6q-16 35 -14 62q9 -1 18 -1zM52 55l10 -21q-7 -12 -16 -23
q-3 -6 -9.5 -8.5t-14.5 2.5q-6 5 -10 13q-9 16 -10 37l17 11q1 -9 4 -18q4 -14 11 -14q2 0 7 5q6 7 11 16zM135 73l15 12q25 -27 40 -62l-16 -13q-13 26 -39 63zM165 119q-22 2 -23 31q2 28 23 30q22 -2 23 -31q-1 -29 -23 -30zM165 135q11 0 11 14t-11 15q-9 -1 -10 -14
q1 -14 10 -15z" />
    <glyph glyph-name="uni3078" unicode="&#x3078;" 
d="M183 62l1 -2l-12 -26h-2q-32 23 -72 69q-2 3 -7 8.5t-8 7.5q-8 8 -14 5q-1 -1 -4 -5t-5 -6q-4 -5 -12 -16q-3 -4 -4 -6q-8 -11 -14 -26h-1l-21 25v3q7 1 18 14l2 2q9 9 16 19q1 1 2 3q15 21 27 20q9 0 25 -16l2 -2q18 -18 36 -35q24 -19 47 -36z" />
    <glyph glyph-name="uni3079" unicode="&#x3079;" 
d="M183 50l1 -2l-12 -26h-2q-32 23 -72 69q-2 3 -7 8.5t-8 7.5q-8 8 -14 5q-1 -1 -4 -5t-5 -6q-4 -5 -12 -16q-3 -4 -4 -6q-8 -11 -14 -26h-1l-21 25v3q7 1 18 14l2 2q9 9 16 19q1 1 2 3q15 21 27 20q9 0 25 -16l2 -2q18 -18 36 -35q24 -19 47 -36zM130 149v2l9 13h2
q9 -9 18 -19q1 -1 2 -2.5t0.5 -3t-1.5 -2.5q-4 -6 -9 -10q0 -1 -1 0q-11 11 -20 22zM147 174l9 14q5 -1 11 -8l3.5 -3.5t4.5 -5t4 -5.5v-2l-10 -13q0 -1 -1 0q-10 11 -21 21v2z" />
    <glyph glyph-name="uni307A" unicode="&#x307a;" 
d="M151 127q-22 2 -23 31q2 29 23 31q22 -2 23 -31q-1 -30 -23 -31zM151 143q12 1 12 14q-1 15 -12 16q-10 -1 -10.5 -15t10.5 -15zM183 49l1 -2l-12 -26h-2q-32 23 -72 69q-2 3 -7 8.5t-8 7.5q-8 8 -14 5q-1 -1 -4 -5t-5 -6q-4 -5 -12 -16q-3 -4 -4 -6q-8 -11 -14 -26h-1
l-21 25v3q7 1 18 14l2 2q9 9 16 19q1 1 2 3q15 21 27 20q9 0 25 -16l2 -2q18 -18 36 -35q24 -19 47 -36z" />
    <glyph glyph-name="uni307B" unicode="&#x307b;" 
d="M31 75v-11q0 -10 1.5 -21t4.5 -20h2l6 30q6 -1 11 -4v-3q-6 -34 -6 -51v-10l-17 -5h-2q-16 30 -16 82v18q0 33 6 66q1 4 2 13q4 21 4 32v6q4 -1 12 -3.5t12 -4.5q-8 -23 -16 -72q0 -6 -2 -17q-2 -17 -2 -25zM109 31h-3q-3 0 -9 -1q4 1 -2 -1h-1q-7 -5 -7 -10
q1 -12 13 -14h5q9 1 14 10q2 6 3 14q-1 0 -2 1q-5 1 -11 1zM135 147v-20q5 1 14.5 3t14.5 3l2 -22l-1 -2q-14 -4 -29 -5q0 -14 2 -41q1 -12 1 -18q21 -9 38 -27l-8 -22h-2q-17 16 -27 23v-1q0 -18 -13 -27q-9 -6 -21 -6h-3q-32 4 -34 35q2 29 34 33h3q8 0 15 -2
q-1 3 -1.5 9.5t-0.5 9.5q0 14 -2 32q-16 -1 -33 -1h-9q-2 0 -2 1l-4 23l1 2q2 0 7 -1q12 -2 19 -2h7h13v36q-8 -1 -27 -1h-10l-6 24v3q13 -3 26 -3h9q23 0 45 8l2 -23q-9 -3 -19 -5q-1 -8 -1 -16z" />
    <glyph glyph-name="uni307C" unicode="&#x307c;" 
d="M15 202h2q11 -5 22 -8v-3q-3 -3 -5 -13q-1 -4 -2 -6q-4 -14 -8 -43v-3q-5 -27 -5 -53v-15q0 -16 4 -27q5 11 11 23l9 -6q-8 -35 -8 -52v-8q-2 0 -6 -1q-8 -2 -12 -2q-16 39 -16 83v11q0 15 3 32q1 12 4 36q-2 -15 1 5q6 28 6 45v5zM92 -12h-3q-30 4 -32 31v4q0 15 12 25
q8 7 22 7h5q5 0 10 -1v49h-12h-10q-11 0 -23 1l-5 25l1 1q17 -3 33 -4h12h4q0 3 -0.5 8.5t-0.5 7.5v21q-15 -2 -31 -2h-7l-6 25v3q12 -4 23 -4h9q16 0 47 6q-1 -1 3 0v-24q-9 -2 -18 -2q-1 -9 -1 -16v-21q2 1 7 1q13 3 20 6l2 -24q-14 -3 -29 -6v-5q0 -17 2 -50q-2 24 0 -3
q21 -11 39 -29l-10 -22q-12 13 -28 24q-2 -17 -10 -22q-10 -10 -25 -10zM173 146l-12 -11q-2 5 -7.5 15t-8.5 15l11 10q2 -3 5 -9q8 -12 12 -20zM163 183l10 11q2 -4 7 -11q8 -11 11 -18l-10 -11q-3 6 -11 18q-5 7 -7 11zM93 34h-3q-16 -2 -17 -14q1 -12 16 -13q7 0 11 4
q6 6 6 20q-6 3 -13 3z" />
    <glyph glyph-name="uni307D" unicode="&#x307d;" 
d="M37 191v-2q-2 -3 -4 -12q-1 -4 -2 -6q-6 -24 -9.5 -47.5t-4.5 -46.5v-9q0 -25 4 -42q6 14 12 27l8 -3q-3 -16 -5 -33q-3 -13 -3 -25v-7l-16 -3q-2 0 -4 7q-1 1 -1 2q-1 4 -3.5 11.5t-3.5 11.5q-3 23 -4 47v20q0 22 7 65q2 15 3 22q2 12 2 25v4q4 0 12 -2.5t12 -3.5z
M164 15l-8 -20l-2 -1q-14 12 -29 24q-1 -17 -9 -23q-10 -10 -24 -10h-3q-31 5 -34 34q2 30 35 34h5q2 0 5.5 -0.5t5.5 -0.5q0 8 -0.5 24.5t-1.5 24.5h-11h-16q-9 0 -18 1l-2 1q0 12 -2 24q16 -3 34 -3h12q2 0 2 8v23v5q-16 -1 -32 -1h-6l-6 24q4 0 11 -0.5t10 -0.5h10
q25 1 49 7l3 -22l-1 -2q-9 -1 -18 -3q-2 -9 -2 -29v-8q12 2 24 5l2 -21q-12 -4 -26 -6q1 -9 2 -28.5t1 -29.5q13 -7 37 -28q2 -1 3 -2zM170 128q-19 2 -21 28q1 26 21 28q20 -1 21 -28q-1 -27 -21 -28zM159 156q1 -13 11 -13.5t9.5 13t-9.5 14.5q-10 -1 -11 -14zM91 31h-4
q-13 -1 -14 -13q1 -12 14 -13h3q8 1 13 9q3 6 3 14q-7 3 -15 3z" />
    <glyph glyph-name="uni307E" unicode="&#x307e;" 
d="M78 -23h-7q-17 0 -28.5 13t-5.5 33q5 11 14 16q12 6 26 6h7q2 0 6 -0.5t7 -0.5q-2 19 -2 40v1h-16q-13 0 -28 1l-1 1l-3 22v2q13 -3 28 -4h15h4q0 5 -0.5 16.5t-0.5 17.5h-5q-18 0 -37 2l-2 1l-4 23q5 0 15 -2q13 -2 19 -2h14v11q0 15 -2 28l23 -4l1 -1q-3 -4 -4 -12
q-1 -11 -1 -22q7 1 22 4q7 1 11 2l-2 -23q-15 -3 -31 -5q0 -17 1 -32h2q17 1 32 8l-2 -24q-15 -6 -31 -7q2 -24 2 -48q25 -11 43 -31l-10 -18q-10 11 -32 23v-1q-1 -20 -14 -28q-8 -6 -23 -6zM75 26h-4q-17 -2 -18 -16q0 -7 7 -10q6 -1 12 -1h4q8 -1 16 4q6 6 5 16v1
q-11 6 -22 6z" />
    <glyph glyph-name="uni307F" unicode="&#x307f;" 
d="M7 31v4q1 17 7 32q6 12 14 21q19 21 42 21h2q3 6 5 12q9 21 19 42l-2 2q-25 -5 -35 -16q-7 15 -13 30l1 2h9q12 1 26 4q12 3 23 9q1 0 21 -25q1 -3 -2 -6q-2 -1 -2 -2q-7 -6 -13 -14q-3 -4 -6 -12q-2 -4 -3 -6.5t-4.5 -10t-5.5 -11.5q9 -3 16 -6q16 -7 30 -17q5 21 5 44
v7h2l20 -8v-2q-6 -14 -9 -40q-1 -6 -3 -12q19 -13 34 -31l-9 -24h-1q-2 3 -7 8q-12 14 -20 21q-1 2 -3 3q-4 -13 -10 -25q-14 -29 -37 -45q0 -2 -1 -0.5t-4 4.5q-7 8 -12 11v1q20 12 35 34q7 9 15 31q-1 1 -15 11.5t-35 13.5q-7 -24 -18 -46q-17 -41 -38 -37q-17 7 -18 28z
M30 60q0 -1 -1 -2q-5 -8 -6 -13q-3 -17 7 -19q4 0 10 8q1 2 3 5q3 5 4 8q9 20 16 39q-19 -1 -33 -26z" />
    <glyph glyph-name="uni3080" unicode="&#x3080;" 
d="M133 148v3l7 17q24 -14 39 -30l-10 -21h-2q-16 17 -34 31zM47 179v6q0 2 -1 8t-1 9l24 -5q-4 -19 -4 -40q15 3 30 8l-2 -27q-15 -3 -30 -5v-11v-11q0 -3 1 -8.5t1 -7.5q3 -12 2 -25v-9q0 -15 -5 -27q-1 -3 -1 -6v-4q1 -11 7 -17q3 -5 14 -5h16q10 0 19 3q8 1 12 9
q8 13 8 39v5l20 -13v-4q0 -24 -9 -41t-29 -18q-13 -2 -30 -2h-15q-13 0 -22 9q-9 12 -9 28v4q-27 1 -30 42v4q0 19 7.5 32t26.5 15v18q-10 -1 -21 -1h-6q-1 0 -3 1l-4 25q7 -1 13 -1h18h3v3v20zM49 75v5v1v2q-2 10 -5.5 10t-6.5 -3q-6 -6 -6 -23v-4q1 -15 7 -16
q6 1 8.5 10.5t2.5 17.5z" />
    <glyph glyph-name="uni3081" unicode="&#x3081;" 
d="M108 39l-15 -18q-1 -1 -2 0q-4 6 -9 13q-5 -9 -11 -16q-19 -22 -35 -22h-2q-21 2 -23 39v5q0 18 10 44q9 19 17 29l-12 33q-3 9 -5 13l21 14v-5v-2q4 -20 10 -38q25 22 52 25q1 12 1 23v4q1 9 -2 17h3h2l19 -6q-3 -19 -4 -37q24 -2 39 -17q19 -24 19 -58v-6
q0 -29 -10.5 -48.5t-25.5 -29.5q-11 -9 -21 -13q-1 0 -4 4q-1 3 -2 4q-5 6 -10 10q48 15 51 71v4q-1 26 -14 42q-10 11 -26 13q-9 -41 -25 -76q6 -7 14 -15zM90 94q6 17 10 35q-21 -4 -38 -21q3 -8 7 -14q6 -12 13 -22q5 10 8 22zM30 41v-4q0 -12 4 -15t12 2q9 7 20 21
q1 3 4 6q-6 9 -11.5 19t-10.5 22q-6 -9 -11 -19q-7 -16 -7 -32z" />
    <glyph glyph-name="uni3082" unicode="&#x3082;" 
d="M115 83v-4l-3 -20q0 -1 -1 -1h-16q-9 0 -18 1v-14v-10q0 -15 7 -26q8 -9 18 -9h3q16 1 23 11.5t7 25.5v4q0 16 -13 45q-2 5 -3 7l21 2q16 -23 17 -56v-5q-1 -27 -16 -44q-12 -15 -33 -15h-4q-19 0 -32 17q-13 13 -13 45v10q0 8 1 17q-13 4 -25 10l2 24q13 -6 25 -10
q0 2 1 5q1 6 2.5 18t1.5 18q-9 2 -16 5q-6 0 -6 4l2 24q2 -1 5 -2q11 -5 18 -7q2 11 3 21q0 2 1 7q2 12 2 19v7h3l22 -8v-2q-3 -2 -4 -9q-1 -3 -2 -5q-3 -13 -6 -27q0 -1 -0.5 -3.5t-0.5 -3.5h5h9q8 0 17 2l-5 -25q0 -1 -2 -1h-16q-6 0 -13 1q0 -5 -1 -14q-1 -19 -2 -28
q17 -3 35 -1z" />
    <glyph glyph-name="uni3083" unicode="&#x3083;" 
d="M109 159l-10 -13q-10 14 -24 24l10 13l8 -8q11 -10 16 -16zM39 149l16 8h2v-4v-2q6 -13 12 -27q4 3 12.5 8t12.5 7q1 0 2 1q25 14 39 14h4q27 -4 30 -38v-5q-1 -22 -22 -36q-13 -8 -35 -10l-1 1l-8 16v3h8q17 0 27 6q12 8 13 25v4q0 5 -2 9.5t-8 6.5h-1q-3 1 -5 1
q-4 0 -13 -3q-4 -1 -6 -2q-7 -3 -15 -8q-6 -3 -16 -10l-9 -6q3 -6 7.5 -19.5t6.5 -20.5q10 -26 17 -53l-14 -8q-5 19 -11 37q-10 28 -20 54q-1 -1 -4.5 -3.5t-5 -3.5t-2.5 -2q-9 -6 -11 -12h-2l-14 18v3q16 6 32 17q-3 7 -10 21q-4 9 -6 13z" />
    <glyph glyph-name="uni3084" unicode="&#x3084;" 
d="M28 157v2l22 8h1v-6v-2q2 -7 8 -22q3 -9 5 -13q1 0 2 0.5t2 1.5t4 2q22 16 34 21q24 10 38 10h4q13 0 25 -9q12 -13 13 -35v-6q0 -29 -23 -44q-17 -11 -47 -12l-10 22v2h4q23 0 36 6q24 14 16 39q-6 12 -20 13h-3q-13 1 -39 -14l-15 -9q-8 -5 -12 -8v-1l12 -30
q3 -8 9 -25q13 -33 18 -49v-3l-18 -11h-1q-17 53 -37 107q-3 -2 -9 -7q-12 -8 -18 -14l-1 -2q-4 -4 -6 -3l-16 27q11 1 30 14q3 1 4 2t3.5 2.5t3.5 1.5q-1 4 -3.5 10.5t-3.5 9t-4 8.5q-5 11 -8 16zM72 181l12 16q17 -12 30 -30l-14 -16q-8 13 -28 30z" />
    <glyph glyph-name="uni3085" unicode="&#x3085;" 
d="M89 5l-13 8q1 2 4 7q8 11 11 18q0 1 -0.5 1.5l-1.5 1.5q-12 12 -17 31l11 10q4 -17 14 -26q2 5 4 17v2q2 12 2 26v9q0 15 -2 30q-17 -5 -32 -26q-18 -25 -18 -50v-5q1 -13 4 -25l-14 -8q-10 38 -10 79v14q0 5 1 16.5t1 17.5v5q0 3 -1 8t-1 7l20 -6q0 -2 -1.5 -6t-1.5 -6
q-3 -16 -3 -46v-14q18 47 54 60q-1 6 -3 19l-3 12l18 -5q2 -12 3 -24h3q20 0 33 -18q11 -17 11 -39v-4q0 -30 -14.5 -47.5t-32.5 -17.5h-3q-3 0 -8 1q-6 -15 -14 -27zM111 50h3q15 1 24 16q7 12 7 29v5q0 19 -11 32q-7 7 -18 9q0 -5 0.5 -14.5t0.5 -13.5v-9q0 -28 -7 -54h1z
" />
    <glyph glyph-name="uni3086" unicode="&#x3086;" 
d="M122 112v-17q0 -36 -7 -64h5q14 0 24 15q12 17 12 41v6q0 18 -10 32t-25 16q1 -15 1 -29zM90 197l23 -4l1 -2q1 -5 2.5 -14.5t2.5 -14.5h2q24 -1 39 -19q15 -21 16 -51v-7q-1 -29 -14 -52q-17 -25 -41 -26h-3q-5 0 -10 2q-9 -20 -20 -34l-18 13q11 13 20 32
q-14 13 -23 28l10 17q7 -12 16 -21q2 -1 3 -3q6 26 6 55v21q0 11 -1 21q-3 -1 -7 -3q-12 -6 -18 -12q-20 -16 -28 -43q-6 -15 -6 -33v-8q0 -17 6 -32l-18 -8l-2 1q-6 22 -10 49q-2 18 -2 36v13q0 7 1 21t1 21v13q0 8 -2 25q2 -12 0 3l24 -6q0 -4 -1.5 -12t-2.5 -12
q-3 -27 -4 -54v-12q23 60 68 75q-3 19 -10 37z" />
    <glyph glyph-name="uni3087" unicode="&#x3087;" 
d="M146 149l4 -22q-14 -4 -44 -6q3 -28 3 -57q5 -1 9 -4q18 -12 31 -27l1 -2l-10 -18l-2 -1q-12 17 -29 29q-2 -15 -11 -24.5t-24 -9.5h-4q-11 0 -19.5 9.5t-8.5 24.5q2 27 30 30h11q3 0 11 -1q-5 1 2 -1v3q-2 18 -2 37q-2 52 -6 77h2l19 -6q0 -1 1 -3v-2q-3 -8 -4 -16v-10
v-8q3 1 10 1q20 2 30 7zM70 26h3q21 3 23 22v1q-6 3 -14 5q-16 3 -22 -3t-4 -16q4 -9 14 -9z" />
    <glyph glyph-name="uni3088" unicode="&#x3088;" 
d="M69 37h-3q-19 -1 -20 -18q2 -16 18 -19h5q12 0 18 7t7 20v4q-12 6 -25 6zM70 -22h-3q-14 1 -25 11q-14 13 -14 29v4q1 15 14 28q8 8 25 8h6q11 0 21 -3q-1 26 -2.5 47.5t-1.5 42.5v20q0 15 -2 32q4 0 11.5 -1t11.5 -2l1 -2q-4 -15 -4 -32v-12v-5q33 3 52 14l2 -33
q-25 -5 -50 -5h-3q0 -3 0.5 -9.5t0.5 -10.5q2 -25 2 -51q23 -11 52 -38l-12 -22h-2l-9 9q-3 3 -4.5 3.5t-4.5 3.5q-13 12 -20 16q0 -12 -7 -22q-10 -15 -21 -18q-6 -3 -14 -2z" />
    <glyph glyph-name="uni3089" unicode="&#x3089;" 
d="M54 189l12 19q20 -11 39 -26v-2l-13 -18q-18 17 -38 27zM38 154l20 -5q-4 -26 -6 -75q27 29 53 29h6q21 0 33 -11q15 -15 16 -38v-5q0 -24 -16 -44q-11 -13 -33 -22q-12 -6 -19 -6l-10 22v1q15 3 30 10q26 12 26 35v4q-2 27 -27 30h-4q-15 0 -29 -10q-18 -13 -24 -32
l-22 10q1 10 2 30q4 43 4 66v11z" />
    <glyph glyph-name="uni308A" unicode="&#x308a;" 
d="M64 124v-5q0 -13 3 -24h1l8 16h2l8 -10q-1 -3 -3 -10q-9 -25 -9 -40v-4q-9 -2 -18 -2q-5 12 -7 26q-5 23 -5 45v8q0 11 3 34.5t3 35.5q4 0 11.5 -1t10.5 -2q-1 -4 -2 -12q-2 -5 -2 -8v-3q-3 -20 -4 -44zM116 194l25 3l2 -1q-2 -9 0 -28q1 -4 1 -6q4 -24 4 -49v-16
q0 -32 -8 -61q-12 -38 -32 -61q-1 -2 -2 0l-17 11l-1 2q18 23 27 44q12 30 12 68v19q0 43 -11 75z" />
    <glyph glyph-name="uni308B" unicode="&#x308b;" 
d="M39 178h11q32 0 55 10q1 0 3.5 1.5t4.5 1.5l20 -20v-2q-10 -9 -17 -22q-13 -19 -25 -38q3 0 8.5 1t8.5 1h4q18 -1 33 -16q14 -17 14 -42v-4q-1 -31 -23 -49q-16 -15 -37 -15h-3q-35 4 -37 34v4q3 26 26 30h4q17 0 36 -32q11 11 12 30v5q-2 28 -27 31h-4q-30 -1 -50 -35
q-1 -1 -1.5 -3t-3.5 -4l-18 18v3q38 39 64 93q-28 -1 -41 -12q-1 -1 -3 -2q-3 -3 -4 -2l-10 33v2zM89 7h4q6 0 10 2q0 5 -4 11l-6.5 6.5t-13 1t-4 -12t13.5 -8.5z" />
    <glyph glyph-name="uni308C" unicode="&#x308c;" 
d="M16 93l-11 30l1 2q23 0 44 13q2 13 2 28q1 8 1 15v4q0 2 -0.5 6.5t-0.5 7.5q13 -2 25 -2v-3q-4 -6 -5 -14q-3 -15 -5 -30q1 1 15 -12q1 -3 -2 -5q-1 -1 -1.5 -2.5t-3.5 -7t-5 -8.5q4 4 11 13q25 32 43 31h3q7 0 13 -4q4 -4 7 -15q1 -1 1 -2v-1v-4q0 -18 -4 -53
q-2 -22 -3 -32q-2 -13 1 -21t12 -5q7 3 18 18l1.5 1.5l1.5 1.5q4 7 7 7l6 -27q-1 -1 -3 -5q-10 -13 -16 -18q-12 -9 -21 -9h-3q-10 0 -18 10q-5 10 -5 30v4q0 15 3 46q1 11 2 16q0 2 1 7q2 9 2 14v4q-2 12 -15 10q-10 -6 -19 -16q-14 -15 -26 -32q-4 -6 -9 -12v-8
q0 -18 2 -53q2 -21 2 -31h-21v37v25q-12 -21 -22 -42h-2l-16 13v2q35 52 43 88q0 1 0.5 5t0.5 6q-2 -1 -5 -3q-18 -9 -27 -18z" />
    <glyph glyph-name="uni308D" unicode="&#x308d;" 
d="M47 178h4q14 1 26 4q22 3 34 11q1 0 2 2q3 2 5 2h2l16 -16v-4q-7 -4 -14 -20q-3 -5 -5 -8q-6 -10 -17 -29q-8 -11 -11 -17q18 8 30 8h3q19 -1 33 -12q18 -18 19 -45v-4q-1 -39 -25 -57q-21 -18 -45 -18l-8 24h3q20 0 32 8q20 13 21 40v4q0 13 -9 26q-7 9 -21 10h-4
q-27 0 -47 -20q-11 -11 -31 -40q-3 -4 -4 -6l-18 21q24 26 43 55q27 34 39 68q-5 -2 -15 -5q-14 -5 -20 -8q-1 0 -3 -1.5t-3 -1.5l-13 27z" />
    <glyph glyph-name="uni308E" unicode="&#x308e;" 
d="M82 185l1 -2q-3 -11 -4 -23v-9l6 3h2l8 -8q0 -3 -4 -9q-2 -3 -3 -4q-4 -9 -9 -18q10 10 22 16q1 0 2 1q11 6 18 6h4q13 0 25 -14q13 -17 13 -35v-5q-1 -28 -23 -52q-11 -10 -23 -18q0 -1 -1 0l-13 15q16 8 24 16q18 16 18 37v5q-3 29 -22 32h-3q-7 0 -22 -10
q-12 -8 -22 -20q1 -42 5 -84h-20v61q-3 -6 -9 -17.5t-9 -17.5l-14 14q14 19 34 61v2v14q-12 -6 -22 -13l-6 24q15 5 29 12q1 6 1 14v14q0 8 -2 16q3 0 9.5 -1.5t9.5 -2.5z" />
    <glyph glyph-name="uni308F" unicode="&#x308f;" 
d="M28 109l-8 26v3q19 4 37 10v7q0 3 0.5 9.5t0.5 10.5v9q0 11 -2 21q5 0 13.5 -1t12.5 -2q-1 -7 -3 -15q-1 -5 -2.5 -15.5t-2.5 -15.5q6 3 10 6l12 -11v-2q-4 -6 -7 -12l-6 -12q-5 -10 -8 -15q28 28 51 28h4q19 0 32 -13q17 -18 18 -43v-4q-1 -33 -19 -58q-16 -20 -41 -29
q0 -2 -1 0l-17 19q18 4 33 17q23 21 23 45v4q0 10 -6 24q-6 9 -13 14q-14 6 -32 -3q-10 -6 -18.5 -13.5t-16.5 -16.5q0 -47 5 -101h-23v75q-7 -11 -20 -36q-3 -6 -5 -9h-1l-16 19q21 27 38 61q1 2 3 8q1 4 2 6v17q-2 -1 -7 -3q-10 -3 -14 -6q-1 0 -2 -1q-3 -3 -4 -2z" />
    <glyph glyph-name="uni3090" unicode="&#x3090;" 
d="M155 52v4q0 25 -11.5 37.5t-28.5 12.5h-5q-3 0 -11 -1q5 1 -2 -1q0 -2 -1 -4.5t-2 -6.5q-14 -59 -28 -85q-8 -16 -16 -20q-19 -10 -28 12q-5 10 -5 23v8q0 30 19 58q17 25 47 35q7 21 10 43q-3 -1 -10 -3q-21 -4 -30 -13l-10 30v2h7q23 0 53 14h2l18 -13v-3q-2 -3 -6 -10
q-1 -2 -1 -3q-7 -18 -12 -39q3 1 6 1h4q23 0 42 -17q18 -19 19 -55v-5q0 -32 -17 -52q-16 -18 -41 -18h-4q-12 0 -21 9q-11 10 -11 23v4q2 24 24 28h4q18 0 33 -31l3 3q10 12 10 33zM68 92q-18 -13 -30 -41q-9 -25 0 -33q7 -7 13.5 3.5t9.5 24.5q9 26 15 51q-1 -1 -3.5 -2.5
t-4.5 -2.5zM114 5h3q5 0 9 1q-3 9 -9 15q-8 9 -16 2q-4 -6 -1 -11q2 -7 14 -7z" />
    <glyph glyph-name="uni3091" unicode="&#x3091;" 
d="M72 80v4v1q1 9 7 15t13 6q19 -3 20 -29q19 0 21 26q0 8 -8 16q-17 15 -45 -8q-9 -8 -23 -29q-2 -4 -3 -5h-2l-16 13v3q35 35 62 78q-5 -2 -15 -5q-13 -3 -19 -6q-1 0 -2.5 -1.5t-2.5 -1.5l-9 32l8 -2h1h6q9 0 27 4q8 1 22 8h2l16 -18v-3q-3 -3 -9 -10q-19 -19 -27 -30
q2 1 5 3q9 5 14 5h3q13 0 24 -9q13 -13 14 -30v-4q-1 -25 -20 -39q-15 -11 -38 -11h-4h-3q-21 -9 -37 -27q1 0 1 1q2 1 4 1q13 0 27 -18q17 35 41 37h4q37 -3 49 -56l-21 -7l-2 1q-3 20 -10 29q-12 19 -26 14q-8 -5 -14 -14q-7 -14 -7 -31l-23 -3v5q-2 16 -7 22
q-11 11 -22 0q-8 -7 -14 -27l-21 11l-1 2q16 44 64 73q-4 6 -4 14zM98 79q-1 7 -7 8q-6 -1 -5 -11q1 -5 6.5 -5t5.5 8z" />
    <glyph glyph-name="uni3092" unicode="&#x3092;" 
d="M120 48v-6q0 -4 -0.5 -13t-0.5 -14h-19q0 4 0.5 11t0.5 10v10v9q-8 -4 -17 -12q-15 -16 -10 -29q3 -14 26 -14h3q19 1 38 7l2 -29q-15 -3 -31 -3h-10q-19 0 -31 9q-16 13 -16 29v4q1 26 22 47q11 9 23 15q0 1 -1 9.5t-8 11.5q-5 2 -13 -2q-21 -12 -39 -59l-20 11
q24 42 41 91h-9h-12l-6 24v2q8 -2 15 -2h10h10q0 3 1 5q4 15 4 31v6l24 -8v-2l-4 -8q-4 -8 -6 -20q15 2 29 9v-27q-18 -6 -37 -8q-4 -15 -10 -29q12 8 20 8h4q2 0 6 -2q2 -1 3 -1q5 -5 8.5 -11t5.5 -18q0 -1 1.5 -0.5t5.5 2.5l6 3t5 2q11 5 16 9q1 0 2 2q3 4 5 3l16 -24v-2
q-27 -8 -53 -20v-17z" />
    <glyph glyph-name="uni3093" unicode="&#x3093;" 
d="M173 55l10 -25v-3q-2 -3 -7 -9q-27 -39 -49 -38h-4q-12 0 -20 16q-5 9 -7 33q0 4 -1 14q-1 17 -2 27q-1 8 -5.5 8.5t-12.5 -5.5q-1 -1 -5.5 -4.5t-9.5 -12.5q-14 -20 -25 -56q-3 -8 -6 -17l-20 8q9 34 37 98q9 23 14 34q8 17 14 35q10 19 13 41h3l25 -16v-2
q-14 -18 -25 -40q-3 -5 -7 -16q-6 -13 -9 -19q-5 -11 -8 -20q2 2 6 5.5t6 4.5q23 12 32 -7q3 -10 3 -21q2 -21 3 -40q2 -15 7 -20q7 -7 16 0q12 8 28 37q4 7 6 10z" />
    <glyph glyph-name="uni30A1" unicode="&#x30a1;" 
d="M49 167h86l6 6h2l20 -16v-3q-7 -4 -16 -20q-2 -5 -4 -8q-10 -16 -27 -33q0 -1 -1 0l-16 11v2q22 16 34 43h-84q-3 0 -9.5 -0.5t-10.5 -0.5v20q10 -1 20 -1zM83 127l20 -5q-1 -3 -2.5 -6.5t-1.5 -5.5q-1 -4 -2.5 -11.5t-2.5 -11.5q-9 -44 -41 -77q-2 -2 -6 5q-1 2 -5 5
l-3 3v2q30 23 40 70q1 7 2 21q1 7 1 11h1z" />
    <glyph glyph-name="uni30A2" unicode="&#x30a2;" 
d="M12 145v30q15 -2 30 -2h106l6 5h4l22 -19q0 -8 -2 -7q-1 -1 -3 -2l-2 -1q-30 -49 -52 -72q0 -1 -1 0q-9 8 -18 15v2q28 23 40 52h-108q-3 0 -10.5 -0.5t-11.5 -0.5zM82 122l26 -5q1 -3 -1.5 -5.5t-2.5 -3.5q-1 -4 -2 -11.5t-2 -11.5q-5 -35 -16 -58q-14 -29 -35 -50
q0 -2 -1 0q-11 9 -23 17v2q54 34 57 120v6z" />
    <glyph glyph-name="uni30A3" unicode="&#x30a3;" 
d="M52 66h-2l-9 19v2q25 11 51 38q27 29 41 64h2l16 -19v-3l-7 -2q-12 -20 -25 -38v-88q0 -7 0.5 -19t0.5 -18h-18q0 5 0.5 16.5t0.5 17.5v71q-10 -11 -21 -20q-20 -16 -30 -21z" />
    <glyph glyph-name="uni30A4" unicode="&#x30a4;" 
d="M128 -25h-26q1 16 1 35v50v42q-29 -28 -61 -51q0 -1 -1 0l-16 20v3q30 16 60 48q43 40 58 80h2l22 -27v-2q-11 -6 -27 -28q-5 -7 -8 -11.5t-7 -7.5v-45q0 -24 2 -73q1 -22 1 -33z" />
    <glyph glyph-name="uni30A5" unicode="&#x30a5;" 
d="M138 151l18 -17v-2l-4 -3q-11 -87 -64 -128q0 -1 -1 0q-2 3 -7 7.5t-8 6.5v1q53 34 62 111h-82v-30q0 -12 1 -23h-17v23v53q7 -1 14 -1h34v18q0 3 -0.5 9t-0.5 10h3l18 -5q0 -1 -0.5 -4t-1.5 -4v-24h30q1 0 3 1.5t3 0.5z" />
    <glyph glyph-name="uni30A6" unicode="&#x30a6;" 
d="M63 -8v1q32 19 50 50q21 33 30 87h-101l1 -64h-23q0 6 0.5 18t0.5 19v28q0 4 -0.5 12.5t-0.5 13.5h64v16q0 4 -0.5 14t-0.5 15q12 -1 26 -3q0 -3 -2 -9q-1 -3 -1 -4v-13v-6v-10h38q1 0 4 1.5t4 0.5l2 -2q12 -9 18 -16q0 -3 -3 -8q-1 -2 -1 -3q-2 -5 -3 -16q-1 -3 -1 -5
q-10 -39 -26 -71q-20 -38 -54 -63q0 -2 -1.5 0t-6.5 6q-3 3 -13 11z" />
    <glyph glyph-name="uni30A7" unicode="&#x30a7;" 
d="M160 57v-25q-5 0 -15.5 1t-16.5 1h-65q-6 0 -16 -1t-15 -1v25q16 -2 31 -2h25v78h-16q-4 0 -13.5 -1t-14.5 -1v25q16 -2 31 -2h41q15 0 30 2v-25q-4 0 -12.5 1t-13.5 1h-16v-78h26q15 0 30 2z" />
    <glyph glyph-name="uni30A8" unicode="&#x30a8;" 
d="M86 135h-15q-6 0 -19 -1t-20 -1v32q4 0 12 -1q16 -2 24 -2h57q8 0 25 2q9 1 13 1v-32q-5 0 -15 1t-16 1h-24v-93h24q21 0 44 2v-31q-7 0 -22 1t-23 1h-73q-7 0 -21 -1t-21 -1v31h3q18 -2 38 -2h29v93z" />
    <glyph glyph-name="uni30A9" unicode="&#x30a9;" 
d="M161 143v-26q-4 0 -14 1t-15 1h-11q2 -37 2 -75v-10q0 -15 -9 -23q-7 -7 -20 -7h-5l-2 1l-5 21l1 2h8q13 1 14 16v36v30l-3 -7q-2 -6 -10 -18q-1 -1 -1 -2q-9 -16 -22 -27q-10 -11 -24 -19q0 -1 -2 0l-12 16v2q39 18 60 64h-23q-5 0 -15.5 -1t-15.5 -1v26q15 -2 30 -2h37
q0 8 -0.5 23t-1.5 22q11 -1 21 -3q0 -3 -1.5 -6.5t-1.5 -5.5q0 -15 1 -30h11q15 0 29 2z" />
    <glyph glyph-name="uni30AA" unicode="&#x30aa;" 
d="M128 9v-5q-1 -16 -16 -24q-7 -3 -20 -5h-5l-1 1q-3 15 -8 28v1h4q11 -1 16 2q7 4 7 13v42q0 45 0 35q-8 -17 -28 -42q-25 -31 -45 -41q-3 3 -5 7l-2 2q-5 8 -10 12v2q47 24 75 77h-27q-6 0 -20.5 -1t-21.5 -1v31h3q18 -2 38 -2h42q-1 9 -1.5 28t-0.5 28q12 -1 26 -3
q-2 -7 -2 -15v-38h6q23 0 45 2v-30q-7 0 -21.5 0.5t-21.5 0.5h-8q0 -52 2 -105z" />
    <glyph glyph-name="uni30AB" unicode="&#x30ab;" 
d="M24 115v31q12 -2 24 -2h25h13q1 8 1 15v8q0 12 -2 24h6q4 0 11 -1t10 -1q0 -2 -0.5 -5.5t-0.5 -4.5q-1 -6 -2 -17q-1 -6 -1 -9v-8q31 0 61 2q2 -1 3 -3q-1 -12 -1 -35q-1 -52 -5.5 -80.5t-21.5 -35.5q-12 -4 -32 -6q-1 5 -3 14t-3 14l1 1l19 -1q7 -1 13 11q4 9 5 20
q3 14 3 43q1 11 1 21v9q-22 -1 -43 -1q-3 -22 -9 -43q-9 -31 -32 -63q-8 -12 -24 -24q0 -2 -1 -0.5t-4 4.5q-9 9 -15 12v2q15 9 31 30q12 15 20 36.5t12 45.5q-7 0 -20 -1q-25 -1 -39 -2z" />
    <glyph glyph-name="uni30AC" unicode="&#x30ac;" 
d="M13 115v28q29 -2 57 -2h5q2 17 2 34v7q0 2 -0.5 6t-0.5 6h3q5 0 16 -2q5 -1 8 -1q-1 -3 -2.5 -8.5t-1.5 -7.5q-3 -17 -5 -34h7q26 0 51 2q1 0 2 -2l1 -1v-14q0 -25 -2 -51q-1 -44 -8 -63q-5 -14 -17 -21q-10 -6 -31 -8h-4l-2 1q-1 11 -3 19q-2 5 -1 10q2 0 6.5 -1.5
t6.5 -1.5h4q12 0 20 12q6 9 8 27q3 29 3 60v10h-37h-6q-1 -2 -1 -5q-13 -81 -58 -126h-2q-1 1 -5 3.5t-15 8.5l-1 2q25 19 40 49q17 34 21 67q-13 0 -39 -2q-13 -1 -19 -1zM164 167l-9 -11q-4 8 -15 19q-3 4 -5 6l10 11q11 -11 19 -25zM182 188l-10 -11q-4 8 -15 19
q-3 4 -5 6l10 11q11 -11 20 -25z" />
    <glyph glyph-name="uni30AD" unicode="&#x30ad;" 
d="M17 47l-2 31q16 1 48 4q15 1 22 2q-1 6 -1 11t-0.5 14.5t-1.5 13.5q-8 -1 -25 -3.5t-26 -3.5l-3 28v2q26 1 51 4q-3 25 -9 49l29 3q-3 -12 -1 -37q0 -4 0.5 -6.5t0.5 -6.5q26 3 52 10h2l2 -31q-27 -2 -54 -5q3 -16 4 -33q0 -3 1 -5q34 4 67 13h2l2 -31q-12 -1 -36 -4
q-15 -2 -22 -3q-5 -1 -11 -1q1 -7 2.5 -20.5t2.5 -20.5q1 -20 6 -41q-1 0 -4 -1q-9 -2 -22 -4q-1 41 -6 84q-36 -6 -70 -12z" />
    <glyph glyph-name="uni30AE" unicode="&#x30ae;" 
d="M20 36l-3 30v1q36 3 70 9q0 4 -1 8v3q-1 13 -4 28q-8 -1 -25 -4.5t-26 -5.5v1l-3 26q26 3 51 9q-3 24 -9 48v2l28 3q0 -3 -1.5 -8.5t-1.5 -8.5q1 -16 4 -32q21 5 44 12l1 -30q-21 -3 -42 -8q1 -6 2.5 -19t2.5 -20q32 6 63 15l4 -28q-31 -6 -63 -12q6 -38 13 -73v-1
l-23 -8q-1 17 -6 48q-3 20 -4 30q-12 -2 -35.5 -7t-35.5 -8zM160 172l-10 -11q-12 16 -20 24l10 11q4 -4 12 -14q5 -7 8 -10zM176 196l-10 -11q-2 2 -6 7q-7 10 -12 14l8 11l5 -5q10 -10 15 -16z" />
    <glyph glyph-name="uni30AF" unicode="&#x30af;" 
d="M89 202h2l24 -11v-2q-5 -3 -9 -15q-1 -3 -1.5 -4t-1.5 -3.5t-2 -4.5h9h27q6 0 12 3h2q11 -10 20 -22v-2l-7 -10l-1 -1q-3 -6 -7 -17l-3 -6q-32 -77 -85 -119q-5 -5 -16 -12q-2 0 -3 -1.5t-2 0.5q-10 10 -22 18q79 41 113 142h-52q-7 -12 -16 -24q-12 -16 -26 -30
q-7 5 -16 9l-2 1q-4 1 -5 4q50 39 68 107z" />
    <glyph glyph-name="uni30B0" unicode="&#x30b0;" 
d="M128 159h2l19 -18v-3q-5 -3 -9 -17q-1 -3 -2 -5q-18 -59 -37 -87q-17 -29 -48 -54q0 -1 -1 -2q-5 -5 -8 -4q-5 9 -18 19v1q69 45 95 141h-50q-16 -30 -37 -53q-1 -1 -3 0q-8 6 -17 11v2q34 32 51 78q6 15 8 31q9 -1 25 -13v-3q-5 -4 -10 -16l-2.5 -7.5t-1 -2.5t-1.5 -2
q27 -3 41 2q2 0 4 2zM163 170l-10 -11q-12 16 -20 24l10 11q4 -4 12 -14q5 -7 8 -10zM179 194l-10 -11q-2 2 -6 7q-8 10 -12 14l8 11l5 -5q10 -10 15 -16z" />
    <glyph glyph-name="uni30B1" unicode="&#x30b1;" 
d="M25 56l-1 1q-10 12 -17 18q50 53 62 124h3l23 -10q0 -3 -3 -8q-1 -2 -2 -3q-6 -20 -13 -38q0 -1 -0.5 -2.5t-1.5 -2.5h61q25 0 49 2v-29q-6 0 -19.5 0.5t-20.5 0.5h-11q-5 -44 -20 -74q-17 -35 -43 -58q-1 -2 -2 0l-12 9q-5 3 -8 5v2q27 24 41 46q17 31 20 70h-48
q-15 -29 -37 -53z" />
    <glyph glyph-name="uni30B2" unicode="&#x30b2;" 
d="M9 73v2q34 36 48 89q6 18 6 30q6 -1 19 -7q5 -3 8 -4v-2q-5 -4 -9 -19q-1 -6 -2 -8q-3 -10 -7 -19h59q10 0 31 2q10 1 15 1v-29q-7 0 -22 1t-23 1h-5q-2 -45 -13 -72q-13 -32 -40 -56q-1 -2 -2 0q-6 6 -18 14v2q9 4 23 23q12 15 16 27q11 29 12 62h-44q0 -1 -1.5 -4
l-2.5 -5q-14 -25 -31 -44q0 -1 -2 0q-6 8 -15 15zM167 172l-10 -11q-12 16 -20 24l10 11q8 -8 20 -24zM183 196l-10 -11q-2 2 -6 7q-7 10 -12 14l8 11l5 -5q10 -10 15 -16z" />
    <glyph glyph-name="uni30B3" unicode="&#x30b3;" 
d="M135 135h-58q-7 0 -21 -0.5t-21 -0.5v33q10 -2 19 -2h53q25 0 49 1v-98q0 -12 0.5 -34.5t0.5 -33.5h-22v11q-51 0 -100 -2v31q15 -1 29 -1h25q23 0 46 1v95z" />
    <glyph glyph-name="uni30B4" unicode="&#x30b4;" 
d="M17 126v29q20 -1 40 -1h39q23 0 44 2q0 -26 0.5 -79t1.5 -78h-23v5q-17 0 -51 -0.5t-51 -1.5v30q22 -1 44 -1h17q13 0 38 2q-17 -2 3 0v95q-17 0 -51 -0.5t-51 -1.5zM157 170l-10 -13q-9 14 -18 26l11 11q1 -2 4 -5q9 -12 13 -19zM147 202l9 13q10 -9 19 -22l-9 -15
q-2 2 -5 7q-8 12 -14 17z" />
    <glyph glyph-name="uni30B5" unicode="&#x30b5;" 
d="M140 179v-38v-3q14 0 41 2q-19 -2 3 0v-31q-5 0 -15.5 1t-16.5 1h-12q-2 -39 -10 -68q-11 -39 -42 -69q0 -2 -1 0q-3 2 -8.5 6.5t-8.5 7.5v3q44 43 49 102q0 3 0.5 9t0.5 9h-44v-66h-23q0 8 0.5 24.5t0.5 25.5v16h-11q-6 0 -17.5 -1t-17.5 -1v32q4 0 12 -1q16 -2 24 -2
h10v30q0 12 -2 26h2q11 -2 24 -2q0 -2 -1 -6.5t-1 -7.5v-40h44v3q0 27 -4 56q5 0 13.5 -1t12.5 -2q1 -3 -1 -9q-1 -4 -1 -6z" />
    <glyph glyph-name="uni30B6" unicode="&#x30b6;" 
d="M76 -26h-2l-14 21q17 8 33.5 34t19.5 57q1 6 2 19q1 6 1 9h-44v-69h-22q2 27 2 55v14h-5q-10 0 -30 -2q-10 -1 -15 -1v26q23 -2 45 -2h5v41q0 11 -2 21l23 -3q0 -3 -0.5 -9t-0.5 -9v-41h44v3v13q0 10 -2 29q-1 11 -1 17h6q4 0 13 -2q4 -1 6 -1q0 -7 -2 -13v-44v-2
q14 0 41 2q-19 -2 3 0v-26q-22 2 -45 3q0 -9 -1 -18q-1 -26 -8 -50q-13 -42 -50 -72zM174 165l-10 -11q-1 1 -3 4q-10 14 -17 20l10 11q8 -8 20 -24zM190 189l-10 -11q-2 2 -6 7q-7 10 -12 14l8 11l5 -5q10 -10 15 -16z" />
    <glyph glyph-name="uni30B7" unicode="&#x30b7;" 
d="M15 111l12 22q2 -2 7 -5q22 -17 32 -27q-4 -5 -10 -16l-3 -6h-1q-23 22 -37 30v2zM90 162l1 -2q-1 -3 -4 -8q-5 -11 -8 -16q-23 26 -38 36v1q1 1 2 3q7 11 10 17q21 -12 37 -31zM177 110l-1 -3q-20 -27 -43 -50q-36 -37 -62 -54q-14 -7 -21 -14l-3 -3q-2 -4 -4 -3l-9 15
l-9 15v2q42 14 84 53q32 28 58 67h2q3 -13 8 -25z" />
    <glyph glyph-name="uni30B8" unicode="&#x30b8;" 
d="M40 170l12 19q17 -10 38 -35l-14 -19q-16 20 -36 35zM12 108l12 19h2q2 -2 5 -4q20 -16 29 -28l-15 -21q-15 19 -33 34zM172 119l8 -24v-2q-25 -33 -57 -57q-26 -23 -67 -41q-2 -2 -8 -4.5t-9 -4.5q-1 -1 -3 -4t-3 -2l-13 33l2 2q10 2 20 6q15 5 40 21q16 9 32 21
q32 23 58 56zM120 145v2l10 13q1 0 5.5 -4.5t13.5 -14.5q0 -1 1.5 -2.5t1.5 -2.5t-0.5 -1.5l-1.5 -1.5q-4 -6 -9 -10q0 -1 -1 0q-3 4 -9.5 11.5t-10.5 10.5zM138 170l9 14q4 -1 10 -8l3.5 -3.5t4.5 -5t4 -5.5v-2l-10 -13q0 -1 -1 0q-11 11 -20 21v2z" />
    <glyph glyph-name="uni30B9" unicode="&#x30b9;" 
d="M177 15v-2q-1 -1 -3 -4q-10 -9 -13 -16h-2q-6 7 -17 24q-21 33 -34 50q-6 -7 -10 -14q-29 -38 -64 -58q0 -2 -2 0l-17 17v1q76 45 101 120q3 6 3 13h-44q-5 0 -16.5 -1t-17.5 -1v31h3q19 -2 41 -2h35q6 0 12 3q1 0 2 1q4 2 6 0l17 -15q1 -1 0 -4q0 -1 -1.5 -3t-4.5 -5
t-5 -9q0 -1 -0.5 -2.5t-3.5 -7.5q-10 -23 -17 -34q0 -1 -1.5 -4l-2.5 -5q4 -4 11.5 -13t11.5 -14q10 -13 29 -40q3 -4 4 -6z" />
    <glyph glyph-name="uni30BA" unicode="&#x30ba;" 
d="M167 10l-18 -22l-12 15q-26 36 -41 53q-36 -44 -69 -62q-4 -3 -7 -3q-3 6 -10 13q-4 4 -6 7v2q14 7 27 16q61 44 84 109h-36q-8 0 -24.5 -1t-25.5 -1v28q27 -1 52 -1h13q10 0 19 2q5 0 9 3q1 1 2 1.5t2 0.5h1l19 -21v-2q-3 -2 -6 -9q0 -2 -1 -3q-12 -32 -29 -59
q32 -28 57 -66zM173 170l-10 -11q-3 3 -8 10q-8 10 -12 14l9 11q5 -5 14 -16q5 -5 7 -8zM188 194l-9 -11q-2 2 -6 7q-8 10 -12 14l8 11l4 -4q11 -10 15 -17z" />
    <glyph glyph-name="uni30BB" unicode="&#x30bb;" 
d="M12 113v2q21 2 42 7q6 2 13 3v34q0 5 -0.5 17t-0.5 18h12q3 0 6.5 -0.5t5.5 -0.5q1 -4 -1 -11q-2 -4 -2 -7v-45q29 6 59 14q3 1 7 6l3 3l1 1h1l22 -19v-2q-6 -6 -14 -24l-3 -6q-15 -25 -31 -48q-3 1 -10 6q-3 2 -5 3l-2 1q-4 1 -5 4q24 26 35 51l-1 1q-9 -2 -28 -7.5
t-29 -8.5v-13q0 -28 1 -55q3 -18 16 -19h28q7 0 19.5 1t18.5 1v-27h-68q-13 0 -24 10q-9 13 -10 31q-1 14 -1 29v36q-15 -3 -28 -7h-1q-14 -4 -20 -10q-1 6 -3 19z" />
    <glyph glyph-name="uni30BC" unicode="&#x30bc;" 
d="M10 82l-4 30v2h10q14 0 27 3q2 1 6.5 1.5t6.5 0.5v54q0 4 -2 13q2 -6 0 3l25 -3q0 -2 -1 -6q-2 -7 -2 -11v-47l15 3q21 3 32 6q10 1 19 7q1 1 2.5 2t2.5 1h1l20 -19v-3q-5 -5 -12 -19q-4 -8 -6 -11q-13 -26 -30 -47q0 -1 -2 0l-18 12v1q24 24 35 54q-29 -7 -59 -13v-64
q1 -15 17 -17h26q7 0 17 2q15 2 28 5v-30q-13 -1 -26 -1h-45q-20 -1 -27 9q-10 8 -10 34v58q-6 -1 -19 -3t-19 -4q-1 0 -3.5 -1.5t-4.5 -1.5zM170 166l-7 -15l-7 7q-11 13 -18 17l9 14q12 -10 23 -23zM156 197l8 13q13 -10 22 -24l-9 -13q-2 3 -7 8q-8 11 -14 16z" />
    <glyph glyph-name="uni30BD" unicode="&#x30bd;" 
d="M20 159l18 15q21 -28 36 -63l-18 -16h-2q-14 34 -34 64zM144 181h2l26 -19v-3q-8 -7 -15 -29l-3 -9q-12 -38 -31 -70q-15 -25 -34 -45q-12 -12 -27 -21q-1 -2 -2 -0.5t-2.5 4t-7.5 9.5q-1 1 -3 1.5t-3 2.5q15 8 27 22q27 26 40 51q11 18 22 52q11 31 11 54z" />
    <glyph glyph-name="uni30BE" unicode="&#x30be;" 
d="M11 150v2l17 14h1q18 -26 32 -55q-10 -7 -20 -16q-17 38 -30 55zM127 167h2l24 -16q0 -2 -2.5 -5.5t-2.5 -4.5q-2 -4 -4 -12q-1 -5 -2 -7q-25 -75 -64 -118q-14 -13 -29 -24q-1 -2 -2 0q-8 9 -17 17l1 2q18 11 35 28q15 16 26 37q29 47 35 103zM135 178l9 14
q12 -9 23 -19l-8 -16q-5 5 -16 14q-5 5 -8 7zM151 205l6 13q7 -4 20 -17l4 -4l-8 -14q-10 12 -22 22z" />
    <glyph glyph-name="uni30BF" unicode="&#x30bf;" 
d="M139 170l6 3q1 0 2 -0.5t4 -3.5q11 -8 16 -15q0 -2 -3.5 -7.5t-8.5 -17.5q-3 -6 -6 -18l-3 -9q-15 -42 -39 -76q-24 -30 -53 -51q-2 -2 -2 0q-2 2 -6 5.5t-5.5 5l-2.5 2.5q-4 2 -5 5q44 27 71 71l-9 9q-15 14 -24 20l14 18q1 -1 4 -2q20 -13 28 -22q12 24 18 54v2h-47
q-21 -42 -43 -64q0 -1 -2 0l-18 16q50 48 62 110h2q11 -6 22 -11v-3q-5 -5 -11 -21h39z" />
    <glyph glyph-name="uni30C0" unicode="&#x30c0;" 
d="M121 135h-55q-16 -29 -37 -56q0 -1 -1 0l-18 12l-1 2q47 49 59 109h1q12 -7 23 -13v-3q-5 -4 -9 -16q-1 -3 -2.5 -5.5t-1.5 -5.5h20h17q6 0 10 4l2 1q2 2 3 1l21 -19v-3q-7 -6 -12 -23q-1 -1 -1 -2q-17 -51 -39 -84q-28 -39 -66 -60q-2 1 -4 6l-2.5 2.5t-5 6t-5.5 6.5v1
q25 8 51 36q12 11 20 26q-17 17 -37 29l12 19q15 -6 38 -26l2.5 5t2.5 4q13 25 15 46zM167 173l-10 -14q-2 2 -5 7q-11 16 -17 23l11 13q1 -1 2 -3q13 -17 19 -26zM153 205l10 12q11 -12 20 -26l-10 -13q-12 17 -20 27z" />
    <glyph glyph-name="uni30C1" unicode="&#x30c1;" 
d="M181 121v-34q-8 0 -22 1t-21 1h-23q-2 -21 -7 -40q-11 -38 -41 -67q-5 -5 -7 -5h-1q-3 2 -8 6q-8 7 -12 9v1q23 18 35 36q16 24 19 60h-33q-8 0 -24.5 -1t-24.5 -1v30q16 -1 35 -1h48q1 13 1 25v12q-24 -4 -48 -6q-3 1 -5 7q0 2 -0.5 3.5t-3 6.5t-4.5 7l1 2h10
q26 0 52 4.5t40 17.5q1 0 2.5 2.5t3.5 1.5l16 -24v-2q-6 -1 -15.5 -5.5t-13.5 -5.5q-6 -3 -14 -4v-27v-15q33 1 65 5z" />
    <glyph glyph-name="uni30C2" unicode="&#x30c2;" 
d="M105 117h27q13 0 38 2q-17 -2 3 0v-29q-11 0 -33 1t-33 1h-2q0 -36 -16 -64q-18 -32 -46 -51q-1 -2 -2 0l-16 19q38 24 53 60q6 16 6 34v2h-3q-18 0 -53 -2q-18 -1 -27 -1v30q23 -2 44 -2h40v6q0 9 -2 27q2 -12 0 2q-24 -4 -48 -6l-10 27h24q21 0 42 5q18 4 34 13h2
l15 -20q1 -2 1 -6q-6 -1 -17 -4q-6 -1 -9 -2q-1 0 -4.5 -1t-7.5 -2v-39zM177 151l-10 -10q-7 14 -18 26l10 11q13 -15 18 -27zM191 173l-9 -13q-7 14 -17 26l9 12q11 -10 17 -25z" />
    <glyph glyph-name="uni30C3" unicode="&#x30c3;" 
d="M63 109l-18 -8q-2 11 -10 34q-3 7 -4 11l18 7l3 -9q5 -13 11 -35zM76 162l18 5q8 -22 11 -45l-18 -5q-4 23 -11 45zM141 167l20 -10v-3q-4 -4 -8 -18q-1 -5 -2 -8q-6 -17 -12 -32q-9 -20 -24 -42q-19 -26 -42 -45q0 -1 -1 0l-13 17q37 26 55 59q20 36 25 82h2z" />
    <glyph glyph-name="uni30C4" unicode="&#x30c4;" 
d="M32 94l-1 1q-6 30 -16 59q4 1 11 3.5t10 3.5q11 -30 17 -60q-10 -3 -21 -7zM71 170l21 5q9 -28 13 -58q-11 -4 -22 -6q-3 30 -12 59zM149 173h3q2 -2 7.5 -5.5t17.5 -13.5v-3l-6 -5q-3 -12 -7 -23q-20 -60 -45 -89q-26 -31 -56 -51q0 -2 -2 0l-16 17v2q91 57 104 171z
" />
    <glyph glyph-name="uni30C5" unicode="&#x30c5;" 
d="M40 103l-18 -11l-2 1q-3 11 -6 21q-1 4 -4 13q-5 16 -8 24q4 1 10.5 3t9.5 3q9 -22 18 -54zM92 118l-22 -8v1q-2 6 -4 18q-7 25 -11 38l21 7l1 -1q12 -35 15 -55zM134 165h2l22 -19v-3q-7 -3 -10 -17q-6 -18 -12 -34q-4 -11 -15 -31q-2 -3 -3 -5q-18 -31 -41 -53
q-15 -12 -31 -21h-2q-6 12 -16 18v1q14 5 26 16q29 22 48 58q11 18 19 39q10 24 13 51zM144 175l10 13q11 -9 20 -21l-8 -13q-7 8 -21 20q1 -1 -1 1zM158 199l10 11h2q11 -9 20 -19l-10 -13q-14 16 -22 21z" />
    <glyph glyph-name="uni30C6" unicode="&#x30c6;" 
d="M80 185h32q17 0 33 2v-30q-5 0 -14.5 0.5t-13.5 0.5h-36q-6 0 -18 -0.5t-18 -0.5v29q18 -1 35 -1zM35 -9v2q25 13 38 35q16 25 16 61v5h-22q-8 0 -25.5 -0.5t-26.5 -0.5v34q27 -2 54 -2h54q27 0 54 2v-34q-7 0 -22 0.5t-23 0.5h-19q0 -4 -1 -11q-1 -15 -2 -23
q-11 -51 -55 -86q-1 -2 -2.5 0t-3.5 5q-9 8 -14 12z" />
    <glyph glyph-name="uni30C7" unicode="&#x30c7;" 
d="M61 181h32q20 0 39 2v-29q-5 0 -15 1t-15 1h-38q-5 0 -15.5 -1t-16.5 -1v29q15 -2 29 -2zM29 -4v2q22 11 35 32q16 26 16 65v3h-27q-11 0 -31 -2q-11 -1 -16 -1v32q28 -2 44 -2h71q22 0 43 2v-31q-7 0 -22 1t-23 1h-17q-2 -30 -6 -44q-10 -47 -48 -74q0 -2 -1 -0.5
t-4 4.5q-8 9 -14 12zM170 164l-9 -11q-2 3 -7 8q-8 11 -14 16l10 11q8 -8 20 -24zM186 188l-10 -11q-10 14 -18 21l8 11l5 -5q10 -10 15 -16z" />
    <glyph glyph-name="uni30C8" unicode="&#x30c8;" 
d="M133 90l1 -2l-13 -25h-2q-17 24 -38 42v-23q0 -22 2 -66q2 -26 2 -39h-26q3 95 1 194q0 14 -2 28l27 -2q-1 -3 -2 -10q-2 -5 -2 -7v-2v-63l10 14q19 -13 42 -39z" />
    <glyph glyph-name="uni30C9" unicode="&#x30c9;" 
d="M105 63h-1q-23 32 -38 44v-52q0 -13 1 -40v-35h-24q2 29 2 58v138q0 12 -2 26l26 -4q0 -3 -1.5 -8.5t-1.5 -8.5v-68q4 9 10 17q20 -12 43 -41q-2 -4 -6 -11q-5 -10 -8 -15zM133 158l-10 -11q-1 1 -3 4q-10 14 -17 20l10 11q8 -8 20 -24zM149 182l-10 -11q-2 2 -6 7
q-7 10 -12 14l9 11q2 -3 8 -8q7 -8 11 -13z" />
    <glyph glyph-name="uni30CA" unicode="&#x30ca;" 
d="M112 157v-24h7q13 0 39 2q15 1 22 1v-32q-8 0 -24 1t-24 1h-21q-1 -25 -7 -49q-8 -31 -25 -55q-2 -2 -6 -7q-9 -13 -15 -18q-2 -2 -5 3l-2 2t-6 4.5t-8 5.5l-1 2q27 19 43 58q9 26 11 54h-22q-13 0 -39 -2q-11 -1 -17 -1v32q27 -2 55 -2h23v5q0 11 -2 33q-2 15 -2 23
q3 0 10 -1q12 -1 20 -2q0 -2 -1.5 -6.5t-1.5 -6.5q-1 -10 -1 -21z" />
    <glyph glyph-name="uni30CB" unicode="&#x30cb;" 
d="M81 163h45q11 0 22 2v-32q-5 0 -16.5 1t-17.5 1h-33q-6 0 -19 -1t-20 -1v31q15 -1 39 -1zM69 45h51q27 0 52 2v-34q-8 0 -24.5 1t-24.5 1h-54q-8 0 -24.5 -1t-24.5 -1v34q25 -2 49 -2z" />
    <glyph glyph-name="uni30CC" unicode="&#x30cc;" 
d="M23 5v2q41 19 74 63q-21 19 -42 37l12 19q23 -16 44 -35q7 12 13 25q9 15 13 33h-52q-6 0 -17.5 -1t-16.5 -1v27q44 -2 88 1l6 3h2l22 -19v-2q-2 -2 -5 -8l-3 -6q-2 -5 -6.5 -15t-6.5 -15q-9 -20 -19 -37q17 -16 32 -34l-17 -22q-15 17 -30 32q-4 -5 -13 -17l-2 -2
q-25 -28 -55 -45q-2 -2 -2 0q-9 10 -19 17z" />
    <glyph glyph-name="uni30CD" unicode="&#x30cd;" 
d="M122 151h2q8 2 12 6h2l18 -18v-3q-9 -9 -16 -20q-12 -17 -24 -29v-56q0 -27 2 -51h-24q0 7 0.5 21.5t0.5 21.5v37v7q-22 -20 -46 -34q-1 -1 -3 -2q-13 -8 -20 -9q-4 8 -9 15l-1 1q-4 3 -4 7q33 12 61 35q29 21 46 45h-24q-9 0 -29 -0.5t-30 -0.5v27h58v14q0 14 -2 29
q12 -1 24 -3q0 -5 -1 -13.5t-1 -12.5v-14h8zM127 74l13 19h1q1 -1 4 -3q10 -7 16 -12l9.5 -9.5t9.5 -10.5l-14 -21q-24 25 -39 37z" />
    <glyph glyph-name="uni30CE" unicode="&#x30ce;" 
d="M135 183h2l24 -16v-3q-7 -7 -13 -25q-3 -7 -4 -10q-17 -44 -41 -80q-26 -40 -50 -58q-2 -2 -2 0q-3 3 -9.5 7.5t-9.5 7.5l-1 1q60 46 93 138q8 18 11 38z" />
    <glyph glyph-name="uni30CF" unicode="&#x30cf;" 
d="M23 25h-2q-9 8 -18 12v2q1 1 2 3q21 30 29 49q15 31 19 63q13 -5 25 -11q0 -4 -4 -12q-1 -1 -1 -2q-4 -13 -9 -25q-16 -44 -41 -79zM189 52v-2l-19 -17h-2q-29 75 -48 112l17 12h1q21 -31 51 -105z" />
    <glyph glyph-name="uni30D0" unicode="&#x30d0;" 
d="M57 146h2l22 -16v-3q-6 -6 -13 -22q-1 -4 -2 -6q-21 -45 -45 -69q-2 -1 -2 0l-16 18v2q39 40 54 96zM167 37h-1q-18 44 -51 96l16 16q33 -44 58 -94q-6 -4 -20 -16zM141 170l8 11q8 -8 20 -24l-10 -11q-3 6 -12 16q-4 5 -6 8zM187 178l-10 -13q-12 16 -20 24l9 13
q15 -15 21 -24z" />
    <glyph glyph-name="uni30D1" unicode="&#x30d1;" 
d="M56 149l24 -16v-3q-6 -6 -11 -21q-1 -1 -1 -2q-21 -44 -51 -73l-15 22q43 45 53 93h1zM114 135l18 15q33 -42 56 -94v-3l-19 -17l-2 1q-29 69 -53 98zM168 215q21 -2 22 -29q-1 -28 -22 -29q-21 2 -22 29q2 27 22 29zM180 186q-1 15 -12 16q-11 -1 -12 -16q1 -15 12 -16
q11 1 12 16z" />
    <glyph glyph-name="uni30D2" unicode="&#x30d2;" 
d="M134 151h1l12 -18q0 -1 1 -3q3 -5 2 -8q-5 -1 -16 -6l-6 -3q-44 -21 -71 -29v-29q0 -17 3 -23q5 -12 16 -12h21q37 0 62 6v-31h-3q-12 -2 -25 -2h-52q-19 0 -32 13q-11 12 -11 37v112q0 17 -2 34h2l23 -6q0 -2 -1 -5q0 1 -1 -1v-9v-56q12 2 31 12q30 13 46 27z" />
    <glyph glyph-name="uni30D3" unicode="&#x30d3;" 
d="M119 146h1l15 -26q2 -3 0 -6h-3h-1q-10 -4 -19 -9q-32 -15 -65 -22v-20q-1 -30 9 -37q2 -3 9 -3h32q12 0 36 4q12 1 18 2l-3 -30q-6 0 -18 -1q-24 -2 -37 -2h-25q-15 0 -21 3q-14 3 -18 15q-2 8 -2 17v74q0 41 -4 81q14 -1 27 -3q0 -2 -1 -5q-2 -7 -2 -10v-58q15 3 29 9
q20 8 29 15q7 5 14 12zM121 173l10 12q4 -5 13 -16q4 -7 7 -10q0 -2 -9 -15q-3 5 -10 14.5t-11 14.5zM136 194l11 11q13 -10 22 -24l-10 -14q-14 20 -23 27z" />
    <glyph glyph-name="uni30D4" unicode="&#x30d4;" 
d="M120 143h2q4 -4 10 -14q1 -2 1 -2.5t1 -1.5q4 -5 4 -8l-7 -1q-13 -9 -28 -15q-27 -13 -55 -21v-35q0 -14 9 -19q6 -2 18 -2h4h16q14 0 41 4q8 1 12 1l-2 -29q-15 -1 -30 -1h-55q-16 0 -23 5q-11 10 -11 31q-1 9 -1 19v98q0 15 -1 31h3q4 0 11.5 -1t10.5 -1q0 -3 -1 -7.5
t-1 -6.5v-60q18 5 34 13q20 9 38 23zM146 191q-10 -1 -11 -14q1 -13 11 -14q9 1 10 14q-1 13 -10 14zM146 205q19 -3 21 -28q-2 -25 -21 -28q-20 2 -22 28q2 26 22 28z" />
    <glyph glyph-name="uni30D5" unicode="&#x30d5;" 
d="M65 165h50q22 -1 32 5h1l19 -15q1 -1 1 -3t-2 -7l-2 -2t-4 -10q-2 -5 -3 -7q-18 -55 -47 -89q-21 -27 -56 -49q-1 -2 -2 0l-18 17v2q78 45 103 134h-78q-6 0 -17.5 -0.5t-17.5 -0.5v26q21 -1 41 -1z" />
    <glyph glyph-name="uni30D6" unicode="&#x30d6;" 
d="M55 157h45q11 0 22 2l1 1q4 2 7 2h1l18 -21q0 -3 -2 -9q-2 -3 -2 -4q-1 -3 -2 -8q-4 -13 -7 -20q-3 -9 -11 -28q-1 -1 -1 -2q-11 -23 -26 -41q-18 -23 -54 -48q-2 -2 -2 0l-18 18v1q81 52 98 130h-71q-7 0 -20.5 -0.5t-20.5 -0.5v29q23 -1 45 -1zM146 194l20 -24l-10 -13
l-20 26zM182 189l-10 -11l-20 24l10 11z" />
    <glyph glyph-name="uni30D7" unicode="&#x30d7;" 
d="M48 157h66q4 0 9 3q2 1 3 2h2l19 -20q0 -3 -2 -7q-2 -2 -2 -4q-3 -12 -7 -24q-4 -14 -10 -26q-9 -22 -23 -42q-21 -32 -50 -49q-7 -6 -15 -9q-3 0 -7 7l-2 2t-5.5 4.5t-6.5 5.5q75 36 103 131h-71q-6 0 -19 -0.5t-20 -0.5v29q20 -2 38 -2zM160 213q21 -2 22 -30
q-1 -27 -22 -29q-21 2 -22 29q1 28 22 30zM170 183q-1 13 -10.5 13.5t-9.5 -13.5q1 -12 10 -13q10 1 10 13z" />
    <glyph glyph-name="uni30D8" unicode="&#x30d8;" 
d="M24 63l-18 22v2q16 12 45 44q3 4 5 6q9 12 15.5 12t18.5 -11q3 -2 4 -3q6 -6 18 -17q46 -45 74 -63v-2l-13 -29h-1q-40 35 -76 76l-6 6q-7 9 -12 12q-8 4 -19 -11q-1 -1 -1.5 -2.5t-3.5 -5.5q-12 -16 -28 -36q-1 -1 -2 0z" />
    <glyph glyph-name="uni30D9" unicode="&#x30d9;" 
d="M23 63l-16 25v2q22 19 43 40q2 2 6 5q7 8 12 10q8 4 20 -7q18 -15 35 -32q37 -35 62 -53l-12 -30h-1q-30 28 -60 59q-3 4 -10 11.5t-11 10.5q-1 1 -3 4q-6 7 -10 8q-9 3 -16 -5q-9 -12 -19 -23q-1 -2 -4 -5q-6 -8 -16 -20zM127 159l11 10q10 -11 19 -23l-10 -13
q-4 7 -13 18q-5 5 -7 8zM175 165l-10 -14q-1 1 -3 5q-10 15 -17 22l9 12q12 -12 21 -25z" />
    <glyph glyph-name="uni30DA" unicode="&#x30da;" 
d="M188 54v-2l-15 -27h-2q-4 2 -14 11q-3 3 -5 4q-18 15 -51 53q-10 11 -15 16l-2 2q-5 6 -8.5 6t-7.5 -6l-3 -3q-3 -3 -9 -9.5t-9 -10.5q-9 -11 -19 -23q0 -1 -1 -2q-3 -6 -6 -5l-17 24v2q18 15 36 33q3 3 8.5 9t7.5 9q6 7 13 10q9 4 24 -10l6 -6q3 -2 11 -11
q46 -49 78 -64zM152 195q20 -2 21 -29q-1 -29 -21 -30q-22 1 -23 30q2 27 23 29zM163 166q-1 14 -11 15q-11 -1 -11.5 -15.5t11 -14t11.5 14.5z" />
    <glyph glyph-name="uni30DB" unicode="&#x30db;" 
d="M17 113v28q17 -1 33 -1h36q-1 26 -3 51l28 -2q0 -3 -1.5 -8.5t-1.5 -8.5v-32h29q18 0 36 1v-28q-6 0 -18.5 0.5t-18.5 0.5h-28v-17v-52q0 -20 1 -37v-5v-1q0 -1 -1 -2q-3 -8 -6 -11t-8 -5q-10 -4 -22 -4h-3q-3 12 -6 22q-2 5 -1 8q13 -2 18 0q7 2 7 12v71v21h-33
q-6 0 -18 -0.5t-19 -0.5zM45 90l20 -13v-3q-4 -5 -11 -18q-3 -5 -4 -7.5t-3 -5.5q-13 -21 -21 -31q0 -1 -1.5 0.5l-5 5t-5.5 4.5q-6 2 -7 6q24 26 38 62zM130 72l13 19h2q22 -25 40 -52v-2l-16 -19h-2q-2 3 -6 10q-19 30 -31 44z" />
    <glyph glyph-name="uni30DC" unicode="&#x30dc;" 
d="M18 111v30q18 -1 38 -1h32q0 26 -4 51h3q3 0 11 -1t12 -1q0 -2 -1 -4t-1 -3q-1 -5 -1 -10v-32h26q18 0 35 1v-30q-5 0 -15.5 0.5t-16.5 0.5h-29v-75q0 -3 1 -10q2 -21 -4 -27q-4 -7 -12 -9q-11 -3 -20 -3l-6 25v2h12q10 1 11 18v79h-32q-6 0 -19 -0.5t-20 -0.5zM46 93h1
l20 -14v-2q-4 -4 -9 -15q-3 -5 -4 -7q-12 -21 -26 -40q-2 -1 -6 4q-1 1 -3.5 3t-8.5 5v2q25 34 36 64zM127 77l14 15q21 -24 35 -55l-15 -17h-1q-4 6 -11 19q-14 26 -22 38zM134 173l9 11q10 -10 19 -22l-7 -13q-2 3 -7 8q-8 11 -14 16zM152 197l9 12q12 -10 21 -23l-9 -13
q-10 14 -21 24z" />
    <glyph glyph-name="uni30DD" unicode="&#x30dd;" 
d="M166 140l2 -29q-6 0 -18 1t-18 1h-26v-96q0 -20 -11 -27q-6 -4 -19 -4q-4 -1 -6 -1q-1 3 -2.5 9t-2.5 8v1q-3 7 -2 10h13q9 1 10 18v82h-29q-6 0 -19 -1t-20 -1v29q12 0 34.5 -1t33.5 -1v13q0 6 -1 18.5t-1 19.5h3q5 0 14 -2q5 -1 7 -1q1 -3 -1 -10q-1 -4 -1 -7v-31
q30 0 60 2zM44 90h2l18 -12q2 -2 0 -5q-4 -3 -8 -12q-3 -6 -5 -9q-6 -12 -22 -33q-1 -2 -2 -3t-2 0l-17 16v2q18 18 36 56zM126 77l14 17q22 -24 38 -55q-1 -1 -2 -3q-9 -13 -13 -20h-1l-9 15q-17 31 -27 46zM140 189q2 27 23 29q20 -2 21 -29q-1 -28 -21 -30q-22 2 -23 30z
M174 188q-1 15 -11 16q-12 -1 -13 -16q1 -15 13 -16q10 1 11 16z" />
    <glyph glyph-name="uni30DE" unicode="&#x30de;" 
d="M127 21l-18 -19h-2q-27 42 -56 67l-1 1l16 19h2q10 -9 19 -19q3 -2 5 -5q19 18 48 66h-84q-7 0 -22 -1t-23 -1v30q11 -1 33 -1h57q25 0 50 1l4 6h2q12 -10 24 -22v-2q-9 -5 -18 -21q-26 -39 -56 -73q11 -12 20 -26z" />
    <glyph glyph-name="uni30DF" unicode="&#x30df;" 
d="M77 194h2q27 -10 52 -27l-9 -26l-2 -1q-27 17 -55 30v1zM65 128h1q17 -7 49 -28q5 -3 7 -5l-11 -26q-15 11 -48 30q-6 3 -9 5l-1 1zM61 54h1q39 -17 74 -43q1 0 2 -1q4 -3 5 -5q-2 -3 -6 -8q-7 -10 -10 -16l-2 1q-34 28 -75 46v2z" />
    <glyph glyph-name="uni30E0" unicode="&#x30e0;" 
d="M115 87v2l15 15q1 0 13 -14t39 -64q2 -2 0 -2l-13 -18q-5 -5 -7 -5q-7 14 -13 27q-31 -8 -93 -19q-13 -3 -20 -4q-1 0 -3.5 -1t-4 -2t-3.5 -1.5t-3 -1.5q-2 -4 -4 -3l-8 36v2h4q12 0 24 1q34 88 42 148h2q15 -5 28 -14v-3l-4 -5q-4 -4 -8 -16q-1 -6 -2 -8
q-18 -61 -35 -99q1 0 3.5 0.5t3.5 0.5q35 5 69 12q-9 20 -22 36z" />
    <glyph glyph-name="uni30E1" unicode="&#x30e1;" 
d="M161 66l-14 -26h-1q-1 1 -2 3q-11 12 -24 25q-4 -7 -9 -13q-29 -45 -66 -68q0 -2 -1.5 0t-5.5 6.5t-6 6.5h-1q-5 1 -6 5q44 25 77 78q0 1 -8.5 8.5t-26.5 22.5l12 21q19 -12 37 -27q19 38 25 81h2l24 -16v-3q-4 -3 -7 -8q-1 -3 -3 -10q-3 -9 -5 -13q-9 -24 -19 -46
q15 -12 28 -27z" />
    <glyph glyph-name="uni30E2" unicode="&#x30e2;" 
d="M112 23h19q15 0 32 2v-28q-9 -1 -16 -1h-17q-20 0 -29 3q-15 2 -20 12q-5 8 -5 21v46h-21q-6 0 -19 -0.5t-20 -0.5v29h3q19 -2 41 -2h16v40h-7q-6 0 -17.5 -0.5t-17.5 -0.5v30h3q15 -2 32 -2h47q20 0 38 2v-30q-6 0 -18.5 0.5t-19.5 0.5h-18v-40h28q16 0 47 2q-22 -2 3 0
v-29q-8 0 -24.5 0.5t-24.5 0.5h-29v-40q1 -13 14 -15z" />
    <glyph glyph-name="uni30E3" unicode="&#x30e3;" 
d="M105 10l-18 -5q-6 51 -13 102h-2q-4 -1 -13 -3q-15 -4 -22 -6q-1 0 -2 -1q-3 -2 -5 -2l-8 24v3h5h1q24 3 42 9q0 9 -2 18q0 5 -2 14q-1 12 -2 18h22q1 -5 -2 -8v-4q0 -7 2 -22l1.5 -7.5t0.5 -5.5q7 2 20.5 5t20.5 4q15 1 23 8h2q9 -7 16 -16v-2q-7 -6 -11 -16
q-13 -27 -29 -50h-1l-13 12q17 20 27 46v2q-25 -7 -52 -15q1 -7 3 -21.5t3 -21.5q1 -9 4 -28q2 -21 4 -31z" />
    <glyph glyph-name="uni30E4" unicode="&#x30e4;" 
d="M11 85l-6 32q24 1 62 12q0 2 -0.5 5t-1.5 4q-1 6 -3 17q-3 23 -6 36l27 3l-1 -11v-1v-5v-1l6 -42q27 6 56 15h1q10 2 15 6l2 2h2q12 -7 23 -16v-3q-6 -5 -14 -23q-1 -1 -1 -2q-14 -30 -32 -57l-2 -1q-3 2 -9 5.5t-9 5.5v3q8 9 14 21q10 17 19 36q-11 -3 -34 -9
q-19 -5 -28 -8q9 -62 20 -123l-21 -7l-1 1q-9 61 -18 124q-30 -9 -60 -19z" />
    <glyph glyph-name="uni30E5" unicode="&#x30e5;" 
d="M164 58v-25q-3 0 -10 0.5t-11 0.5h-94q-3 0 -10 -0.5t-11 -0.5v25q10 -1 19 -1h59l5 70h-46q-2 0 -7 -0.5t-8 -0.5v24q8 -1 15 -1h61q4 -1 4 -3l-6 -89h21q10 0 19 1z" />
    <glyph glyph-name="uni30E6" unicode="&#x30e6;" 
d="M181 45v-32q-9 0 -27.5 1t-27.5 1h-61q-9 0 -27 -0.5t-27 -0.5v31q25 -1 52 -1h47l6 94h-49q-6 0 -16.5 -0.5t-15.5 -0.5v29q19 -1 37 -1h70l-9 -121q24 0 48 1z" />
    <glyph glyph-name="uni30E7" unicode="&#x30e7;" 
d="M127 85h-60q-3 0 -9 -0.5t-9 -0.5v20q9 -1 18 -1h60v35h-60q-4 0 -10.5 -0.5t-9.5 -0.5v25q2 0 5 -1q10 -2 15 -2h76v-54q0 -60 2 -90h-18v14h-60q-3 0 -9 -0.5t-9 -0.5v20q9 -1 18 -1h60v38z" />
    <glyph glyph-name="uni30E8" unicode="&#x30e8;" 
d="M36 74v31h3q18 -2 38 -2h55v40h-63q-5 0 -16 -0.5t-17 -0.5v29q24 -1 48 -1h70v-145q0 -16 2 -29h-24v11h-49q-7 0 -23 -1t-24 -1v31h3q21 -2 43 -2h50v42h-58q-6 0 -18.5 -1t-19.5 -1z" />
    <glyph glyph-name="uni30E9" unicode="&#x30e9;" 
d="M66 186h57q14 0 29 2v-31q-5 0 -15.5 1t-15.5 1h-48q-5 0 -16 -1t-17 -1v31h2q11 -2 24 -2zM60 127h86l2 1q3 3 4 2q13 -9 18 -18v-4l-4 -4q-3 -3 -7 -15q-2 -5 -3 -7q-7 -18 -15.5 -33t-17.5 -27q-22 -28 -50 -44q0 -2 -1 -0.5t-5 4.5q-9 9 -13 15v2q64 34 85 101h-77
q-6 0 -19.5 -1t-20.5 -1v31h3q16 -2 35 -2z" />
    <glyph glyph-name="uni30EA" unicode="&#x30ea;" 
d="M70 172v-66q0 -25 2 -51h-23q1 21 1 42v55q0 18 -1 37q12 -1 24 -1q0 -2 -1.5 -7.5t-1.5 -8.5zM140 177v-44q1 -36 -5 -73q-5 -35 -20 -60q-9 -16 -21 -31q0 -2 -1.5 -0.5t-6 5t-7.5 5.5l-1 1q-5 1 -6 5q15 13 27 30q19 31 19 84v64q0 10 -2 31q2 -15 0 3q14 -1 27 -3
q0 -3 -1.5 -8.5t-1.5 -8.5z" />
    <glyph glyph-name="uni30EB" unicode="&#x30eb;" 
d="M44 170h3q4 0 11.5 -1t10.5 -1q0 -3 -0.5 -8.5t-0.5 -8.5v-11q0 -19 -2 -39t-6 -36q-10 -39 -36 -65q-1 -1 -2 0q-8 8 -17 15l-1 2q23 17 33 45q11 30 11 65v9q0 17 -4 34zM114 157v-111q0 -2 12 3.5t47 50.5q3 4 5 6l10 -24q-21 -31 -62 -64q-2 -2 -7 -5q-10 -7 -13 -13
q-3 0 -6 3q1 0 0 1.5t-4 5.5q-4 6 -6 10q-1 1 0 3q4 18 4 37v92q0 11 -1 23q4 0 11.5 -0.5t11.5 -1.5q0 -3 -1 -8t-1 -8z" />
    <glyph glyph-name="uni30EC" unicode="&#x30ec;" 
d="M28 173l28 -6q0 -2 -2 -6t-2 -7v-115h2q22 7 51.5 30.5t54.5 55.5l6 -25v-2q-30 -41 -85 -74q-4 -2 -11.5 -6.5t-11.5 -7.5q-7 -4 -12 -11h-2l-18 25v1q2 5 3 9q0 1 0.5 3.5t0.5 4.5v111q0 3 -1 9.5t-1 10.5z" />
    <glyph glyph-name="uni30ED" unicode="&#x30ed;" 
d="M59 15v-15h-24q2 28 2 58v101h118v-104q0 -29 2 -55h-23v15h-75zM134 133h-75v-91h75v91z" />
    <glyph glyph-name="uni30EE" unicode="&#x30ee;" 
d="M38 167h96q1 0 3 2t3 1q3 -2 8 -6.5t7 -6.5v-3q-4 -7 -6 -18l-3 -21t-4 -21q-5 -18 -11 -33q-15 -35 -40 -56l-14 15v2q24 18 39 47q14 31 17 77h-79v-33q0 -12 1 -23h-18q1 11 1 23v54z" />
    <glyph glyph-name="uni30EF" unicode="&#x30ef;" 
d="M27 181h111l8 2h2l17 -14q1 -1 0 -5q0 -1 -0.5 -4t-3.5 -8q-1 -28 -7 -55q-4 -24 -13 -45q-16 -38 -48 -71q-1 -2 -2 0l-16 17v2q37 34 50 69q16 45 16 84v4h-94l1 -75h-21v99z" />
    <glyph glyph-name="uni30F0" unicode="&#x30f0;" 
d="M129 -28h-24q0 16 1 47v28q-19 0 -58 -2q-26 -2 -39 -2v33h32v45q-3 0 -9 -0.5t-9 -0.5v31q18 -2 36 -2h47q-1 22 -4 43q0 3 -1 7q-1 2 -1 3q15 -1 29 -1q1 -3 -1.5 -7.5t-2.5 -6.5v-38h16q12 0 24 2v-29h-40q1 -22 1 -45h30q14 0 27 2v-32h-56q2 -39 2 -75zM107 122h-46
v-45h38h8v45z" />
    <glyph glyph-name="uni30F1" unicode="&#x30f1;" 
d="M179 37v-32q-6 0 -19 1t-20 1h-83q-8 0 -22.5 -1t-21.5 -1v32q22 -2 46 -2h26v58q0 11 -2 21q12 -1 23 -3q14 16 24 34h-69q-4 0 -12.5 -1t-13.5 -1v30q19 -1 37 -1h31q18 0 36 1q1 0 3 1q4 2 5 1l15 -16q1 -1 1 -5q-6 -3 -13 -16q-1 -4 -2 -5q-12 -23 -27 -41l-15 10
q-1 -1 -1 -3v-64h32q21 0 42 2z" />
    <glyph glyph-name="uni30F2" unicode="&#x30f2;" 
d="M136 146h-75q-5 0 -15.5 -1t-15.5 -1v29q15 -1 30 -1h53q13 0 25 1q1 0 3 1.5t3 0.5q9 -6 18 -13q2 -2 2 -4v-1l-3 -5q-3 -6 -5 -21v-2q-13 -68 -40 -102q-25 -32 -69 -45h-1q-1 2 -4 7q-1 4 -7 11l-1 1q-4 3 -4 7q42 4 73 42q14 17 21 40h-56q-7 0 -20.5 -0.5
t-19.5 -0.5v26q13 -1 28 -1h75q3 15 5 32z" />
    <glyph glyph-name="uni30F3" unicode="&#x30f3;" 
d="M72 133l-13 -18h-2q-15 24 -35 44l14 16h3q11 -12 30 -36q2 -3 3.5 -4.5t-0.5 -1.5zM163 143l9 -26q0 -2 -20.5 -29.5t-100.5 -83.5q-1 -1 -5 -3q-7 -3 -7 -8h-3q-9 15 -16 33v2q9 1 25 9q63 31 118 106z" />
    <glyph glyph-name="uni30F4" unicode="&#x30f4;" 
d="M141 159l20 -18v-3q-4 -5 -6 -17q-9 -42 -21 -68q-14 -32 -39 -58q-10 -12 -21 -20q-1 -2 -2 0q-9 9 -20 16v2q65 42 80 137h-101v-64h-22v69v22h64v16q0 14 -2 29q5 -1 14 -1.5t14 -0.5q0 -2 -1 -5q-2 -7 -2 -10v-28h37q1 0 4 1.5t4 0.5zM168 170l-10 -11q-12 16 -20 24
l9 11q5 -5 14 -16q5 -5 7 -8zM183 194l-9 -11q-2 2 -6 7q-7 10 -12 14l8 11l4 -4q11 -10 15 -17z" />
    <glyph glyph-name="uni30F5" unicode="&#x30f5;" 
d="M40 118v24q7 -1 16 -1h35q1 15 1 29v8q12 -1 22 -3q0 -2 -2 -5.5t-2 -6t-0.5 -9.5t-1.5 -10v-3h25q13 0 25 1v-12q0 -21 -2 -40q-1 -23 -6 -44q-4 -17 -10 -23q-10 -10 -27 -10h-5l-2 22q4 -1 10 -1h3q6 0 10.5 7t6.5 21q4 19 4 46v11h-35v-1q-11 -64 -57 -105l-14 16
q41 30 54 90h-32q-3 0 -8.5 -0.5t-7.5 -0.5z" />
    <glyph glyph-name="uni30F6" unicode="&#x30f6;" 
d="M167 134v-24q-4 0 -11.5 0.5t-11.5 0.5h-18q-3 -35 -12 -54q-10 -29 -37 -56q0 -1 -1 0l-15 13v2q42 34 48 95h-37q-15 -25 -35 -42l-12 15v2q40 33 51 97h1l18 -10q0 -4 -3 -10q-1 -1 -1.5 -2.5t-1.5 -3.5q-1 -5 -3 -12q0 -2 -1.5 -6t-2.5 -6h62q12 0 23 1z" />
    <glyph glyph-name="uni3105" unicode="&#x3105;" 
d="M78 198q0 4 2 4.5t4 -1.5q9 -10 13 -21q0 -2 -3 -4l-2 -2q-3 -1 -16 -25q-15 -26 -22 -36q62 17 80 23q2 2 4 2q20 -12 24 -26q0 -3 -3 -5q-5 -4 -7 -9q-34 -114 -62 -112q-2 0 -2 3t1 10q-2 8 -14 25q-3 4 -4 5q-2 7 5 8l3 -3q12 -12 17 -13q23 9 39 84q2 12 -14 10
q-49 -7 -72 -22q-1 0 -3 -3q-4 -3 -5 -3q-17 19 -6 27q35 35 43 84z" />
    <glyph glyph-name="uni3106" unicode="&#x3106;" 
d="M37 -11q-5 3 -2 8q37 14 65 51q-18 20 -40 37q-3 9 3 8q27 -15 47 -31q18 32 23 58q1 5 -2 5q-37 -6 -60 -17q-2 -3 -6 -4q-9 7 -9 21q24 20 34 65q-4 13 3 13q12 -10 16 -20q0 -4 -5 -8q-2 -1 -3 -2q-5 -7 -12 -21q-9 -18 -16 -27q53 13 61 21q1 1 2 1q12 -5 22 -25
q0 -3 -5 -8q-3 -2 -4 -4q-12 -34 -27 -58q17 -14 24 -26q12 -16 10 -28q-4 -15 -15 -4q-3 4 -9 11q-6 10 -22 31q-28 -32 -73 -47z" />
    <glyph glyph-name="uni3107" unicode="&#x3107;" 
d="M50 171h6q31 1 70 14q1 0 3.5 1.5t3.5 1.5q14 -5 26 -26q0 -2 -3 -6.5t-3 -7.5v-6q0 -13 1.5 -39.5t1.5 -39.5v-40q-1 -23 -9 -27q-12 4 -13 17q0 3 1 10q5 23 5 54v37q5 71 -32 50q-5 -1 -18 -6q-21 -7 -25 -7h-1q-1 1 -3 2.5t-3 1.5q0 -5 -0.5 -11.5t-0.5 -9.5v-41
q0 -23 -2 -65q0 -30 -8 -32q-11 9 -13 20q0 3 2 11q10 34 10 82v11q0 29 -9 55q0 3 3 4q3 -1 10 -8z" />
    <glyph glyph-name="uni3108" unicode="&#x3108;" 
d="M55 161v-8q0 -6 -0.5 -17.5t-0.5 -17.5q0 -17 -0.5 -48t-0.5 -47v-5q1 -5 3 -4q33 1 70 11q4 1 15 1q22 -14 10 -26q-15 3 -31 3h-8q-14 0 -52 -7q-12 -2 -13 -2q-7 5 -11 15q0 1 1 6q5 30 5 52v41q-1 53 -6 70q1 2 3 2q5 0 9 -5q34 2 67 17q1 0 2 1q6 2 9 2
q10 -3 12.5 -11.5t-7.5 -10.5q-36 -3 -64 -13q-3 -1 -4 -1q-3 0 -9 5q1 -1 1 -3z" />
    <glyph glyph-name="uni3109" unicode="&#x3109;" 
d="M101 104q3 -5 1 -7q0 -1 -2.5 -3t-3 -3.5t-1.5 -5.5q-22 -70 -63 -90q-6 -3 -5 3q0 2 -1 2q50 38 54 113q-14 -3 -17.5 -5t-8 -6t-6.5 -4q-11 13 -10 20q23 17 38 59q2 7 3 19q1 4 1.5 6.5t3.5 1.5q16 -14 15 -26q-1 -2 -4 -3t-5 -4.5t-9 -14.5q-14 -25 -21 -34l24 6
q31 7 48 12q2 0 6 1.5t5 1.5q10 -3 23 -22q0 -3 -2 -7q-2 -2 -2 -3q-4 -6 -12 -39q-23 -85 -41 -82q-2 0 -2 4.5t-1 5.5q-1 9 -18 22q-1 1 -2 4t4 5q1 0 4 -2q11 -7 16 -7q19 5 32 88q2 13 -10.5 12t-39.5 -7q5 -5 9 -11z" />
    <glyph glyph-name="uni310A" unicode="&#x310a;" 
d="M30 114h2q16 1 51 7q4 26 4 47q0 10 -3 19q-1 3 -1 3.5v1.5q-1 3 3 3q18 -4 24 -19q0 -2 -2.5 -5.5t-2.5 -5.5q-1 -17 -6 -41q13 3 32 8q2 1 3 1q6 3 10 3q13 -3 18 -19q-1 -7 -4 -7.5t-9.5 0.5t-9.5 1h-9q-19 0 -34 -3q-11 -53 -26 -91h2q19 2 56 12q-2 5 -7 13.5
t-8 12.5q-1 4 3 6q39 -29 38 -52q-1 -10 -11 -13q-3 0 -5 8q-1 4 -2 5q-1 6 -4 11q-27 -7 -57 -21q-2 -1 -5 -5q-4 -6 -6 -6q-10 8 -14 21q15 12 31 96q-11 -3 -26 -8q-8 -3 -9 -3q-11 5 -16 20z" />
    <glyph glyph-name="uni310B" unicode="&#x310b;" 
d="M37 189q4 -1 15 -1q31 0 68 11q13 -1 22 -15q1 -6 -2 -8h-1q-6 -1 -12 -8q-10 -12 -33 -48q-2 -3 -3 -4q31 5 40 12q1 1 2 1q11 -5 23 -23q2 -4 0 -6q0 -3 -4.5 -5t-6.5 -7q-40 -100 -61 -98q-5 0 -5 3q2 10 -15 33q-4 4 -2 7t6 0l6 -6q7 -7 13 -11q17 -5 46 82
q3 13 -5 13q-18 0 -34 -10q-4 -3 -5 -3q-12 3 -15 13q0 3 5 8q1 1 14.5 19t19.5 40q0 1 0.5 2.5t-0.5 1.5q-36 -7 -55 -15q-5 -2 -7 -2q-16 10 -14 24z" />
    <glyph glyph-name="uni310C" unicode="&#x310c;" 
d="M59 101l-1 -1q-4 -7 -7 -7q-9 6 -12 17q0 3 3 5l2 2q16 33 14 70q1 3 4 4q13 -10 17 -19q2 -2 0 -5q-8 -7 -18 -41q-1 -6 -2 -9q2 0 6 1l32 8q6 29 5 54q0 1 -1 7.5t-1 9.5q1 5 4 4q13 -6 21 -15q1 -1 0 -6q0 -1 -0.5 -2t-2 -3t-2.5 -4q-1 -13 -6 -37q4 17 -1 -4
q6 2 14 5q4 1 5 1q3 4 6 4q17 -9 23 -25q0 -5 -4.5 -7t-4.5 -4q-1 -5 -3 -17q-16 -97 -43 -100q-7 -1 -7 9q-2 10 -11 21q-4 5 -4 7q-1 5 4 5l4 -4q10 -9 14 -9q22 -1 32 96q0 7 -4.5 6.5t-13 -2t-12.5 -2.5q-25 -84 -71 -120q-3 -2 -4 0q-2 4 0 6q38 38 60 111
q-29 -4 -34 -10z" />
    <glyph glyph-name="uni310D" unicode="&#x310d;" 
d="M84 190q13 -7 17 -20q0 -2 -2 -4l-1 -1q-3 -2 -20 -30q-22 -38 -34 -54q11 -15 28 -35q26 -27 23 -44q-1 -8 -9 -10q-3 0 -10 10q-1 2 -2 3q-10 27 -40 75q0 2 19 31.5t28 72.5q-1 5 3 6zM94 89v2q43 56 43 87q2 6 6 7q11 -11 15 -24q0 -4 -3.5 -5.5t-5.5 -4.5
q-13 -26 -44 -62q53 -57 53 -81q1 -11 -10 -14q-4 1 -8 9q-23 58 -46 86z" />
    <glyph glyph-name="uni310E" unicode="&#x310e;" 
d="M34 176h8q25 0 85 17q16 4 18 4q22 -11 12 -21q-7 3 -15 2q-5 1 -50 -9q6 -7 8 -13q1 -1 0 -2v-1q-1 -4 -6 -8q-5 -9 -19 -36q3 1 8 1q23 4 36 11q1 0 2 1q3 2 4 2q16 -7 23 -20q0 -3 -2.5 -5.5t-3.5 -5t-6 -16.5q-30 -93 -49 -91q-3 0 -3 6q-1 3 -1 4t-1 2q-2 7 -15 19
q-3 6 3 7l2 -2q8 -6 15 -8q20 3 39 84q0 6 -3 6q-31 -4 -42 -11q-1 0 -4 -3q-8 -5 -9 -5q-7 5 -11 18q-1 3 3 5q12 12 21 44q0 3 0.5 8t1.5 8q-19 -4 -39 -8q-15 8 -10 16z" />
    <glyph glyph-name="uni310F" unicode="&#x310f;" 
d="M64 178l4 1q38 1 72 13q7 3 9 3q7 -2 14 -13q4 -8 -2 -10q-4 -2 -16 1q-2 0 -12 -0.5t-46 -7.5q-4 -2 -10 -2q-3 0 -7 4q0 -4 0 -3q0 -132 -37 -168q-2 -2 -4 0t-1 4q28 33 27 131v6q1 27 -3 47l2 2q4 0 10 -8z" />
    <glyph glyph-name="uni3110" unicode="&#x3110;" 
d="M135 156v-151q-1 -9 -6 -11q-9 7 -11 18q0 1 1 4q4 19 4 43v15q-40 -22 -51 -32q-1 -1 -3 -4q-3 -6 -6 -6q-9 8 -12 18q0 4 3 8t4 8q2 10 3 34q1 22 0 33q0 13 -2 21q-1 3 -0.5 5t2.5 3q16 -9 17 -17q0 -1 -1 -3q-3 -5 -4 -13t-2 -24q-3 -38 -3 -44q8 3 22 9q22 8 33 13
v80q0 16 -4 28q-1 3 -1 5.5t3 3.5q19 -7 20 -15q0 -2 -2 -5q-5 -10 -4 -24z" />
    <glyph glyph-name="uni3111" unicode="&#x3111;" 
d="M45 77v3q56 70 59 113l1 1q1 2 3 1q10 -11 15 -24q1 -2 -2 -6q-1 -2 -3.5 -2.5t-3.5 -1.5q-25 -44 -59 -81l15 -9q79 -44 77 -64q0 -16 -13 -12q-2 3 -7 7q-21 29 -82 75z" />
    <glyph glyph-name="uni3112" unicode="&#x3112;" 
d="M103 119v-40q0 -17 2 -62q1 -9 1 -10q-1 -8 -6 -10q-9 6 -13 26q0 2 1 5q4 19 4 64v69q-35 -6 -41 -9l-1 -1q-4 -2 -7 -2q-6 2 -13 17q2 1 3 1q31 0 100 19q1 0 2 1q6 2 9 2q8 -1 14.5 -11.5t-0.5 -12.5q-3 -1 -9.5 0.5t-10.5 1.5q-17 0 -35 -4q-1 -9 0 -29v-15z" />
    <glyph glyph-name="uni3113" unicode="&#x3113;" 
d="M94 59v4q-22 -4 -26 -9q-2 -5 -6 -6q-8 6 -12 19q0 2 2 4q4 4 4 12v41q1 13 -6 32q-2 6 -2 7q13 5 23 -10q0 -2 -2 -5q-3 -5 -2 -10v-65q15 1 27 4v74q1 20 -4 36q-2 3 -2 5q-1 4 1 4q0 1 6 2.5t17 -15.5l-1 -4l-3 -9q-1 -20 -2 -67v-24q13 3 25 5q1 0 4 -2q0 -1 1 -2
q0 5 1 8q1 16 1 48q0 12 -3 19q-1 1 -1 2t1 2q1 4 2 3q17 -7 18 -15q0 -2 -0.5 -2.5t-0.5 -1.5q-4 -6 -4 -11q-1 -65 -7 -81h-3q0 1 -1 3q-5 11 -5 15q-5 0 -17 -2q-7 -1 -11 -1v-10v-41q12 2 35 7q4 1 6.5 1h4.5q24 -11 12 -23q-15 3 -23 3q-27 0 -92 -11q-12 -2 -13 -2
q-14 7 -11 14q8 1 23 3q28 3 44 6q0 4 1 11q2 22 1 35z" />
    <glyph glyph-name="uni3114" unicode="&#x3114;" 
d="M113 198h2q13 -13 15 -23q0 -3 -4.5 -4t-5.5 -3q-31 -46 -70 -74q-4 -2 -5.5 1.5t1.5 5.5q44 39 63 85q0 1 1 3q1 6 3 9zM120 69v-36q0 -40 -6 -45q-9 3 -13 19q0 1 1 4q4 12 4 22v34v11q-35 -38 -63 -51q-5 2 -2 7q60 41 93 118q0 1 1 2q1 8 4 8q7 -5 14 -19v-5
q0 -1 -3.5 -2.5t-4.5 -3.5q-17 -28 -30 -44q5 -3 8 -7t-3 -12z" />
    <glyph glyph-name="uni3115" unicode="&#x3115;" 
d="M138 175q2 10 -3 10q-33 -2 -77 -14q-11 6 -14 22q1 1 2 1q58 -3 96 12q18 -11 20 -21q0 -2 -3 -5q-9 -8 -14 -38q-3 -19 -9 -22q-3 2 -5 7q-10 -1 -29 -9q-14 -5 -17.5 -5t-8.5 5q-1 -83 -40 -130q-2 -2 -4.5 0.5t-0.5 5.5q30 45 29 114q0 8 -2 20q-1 6 -1 7q2 7 15 -8
q12 1 37 11q10 3 11.5 3t6.5 -4q2 -1 3 -2q1 2 2 7q3 14 6 33z" />
    <glyph glyph-name="uni3116" unicode="&#x3116;" 
d="M142 161v-30q0 -15 1 -79v-23q-1 -22 -9 -27q-2 0 -8 10h-5q-9 3 -37 -4q-11 -3 -13.5 -3t-5.5 5q-2 3 -3 3q-1 2 -3 3v-1q-1 -15 -4 -17q-9 4 -11 20q0 1 1 4q7 17 7 80v36q0 10 -4 30q-1 8 -1 10q0 4 1.5 2.5t4 -3t3.5 -2.5q59 8 72 20q16 -7 20 -18q0 -2 -3 -5
q-4 -6 -3 -11zM80 120q0 1 2 2l2 1q26 -22 26 -37q-4 -23 -13 -13q-4 18 -13 36q-4 8 -4 11zM59 24h8q15 -2 44 6q5 1 7.5 1t6.5 -4q0 1 1 4q5 30 4 45v45q0 36 -1 42q-3 9 -10 8q-12 1 -49 -11q-3 -1 -3.5 -1t-4.5 3v-19q1 -57 -3 -119z" />
    <glyph glyph-name="uni3117" unicode="&#x3117;" 
d="M80 119v-103q-1 -18 -7 -22q-6 4 -8 19q0 3 1 12q3 30 3 57v42q0 20 -3 39h-1q-4 -1 -10 -3q-4 -2 -6 -2q-9 4 -13 19q0 1 2 1q47 2 87 16l1 1q4 2 7 2q17 -9 23 -24q0 -2 -3 -4q-3 -4 -4 -7q-18 -90 -37 -93q-2 0 -3.5 4.5t-2.5 6.5l-1 1q-1 5 -13 16q-9 7 -1 11
q1 -1 4 -2q12 -7 14 -7q16 0 25 68q1 8 -9 8.5t-52 -10.5q9 -10 10 -18q0 -2 -1 -5q-2 -8 -2 -23z" />
    <glyph glyph-name="uni3118" unicode="&#x3118;" 
d="M159 120h-13q-24 1 -44 -4q-4 -25 -9 -51v-2q8 1 22 6l9 3q1 0 3 2q5 3 6 3q7 -3 16 -16q1 -2 1 -4.5t-5 -5.5q-3 -2 -4 -3t-4 -9q-16 -35 -24 -45q-3 -4 -5 -3q-4 3 -2 7q11 19 17 47q3 10 -3 11q-24 -3 -30 -11q-8 -8 -10 -8q-7 5 -9 16q0 3 3 7q6 6 8 15q3 13 7 37
q-11 -3 -27 -10q-6 -2 -8 -3q-4 -3 -9 -4q-3 0 -12 14q-2 4 -3 5q0 3 1 3q13 0 60 10q5 28 5 46q0 10 -4 20v4t1 2q25 -6 27 -12q0 -2 -1 -3.5l-3 -4.5t-3 -4q-3 -23 -8 -44q24 5 32 9q1 0 3 1q4 2 6 2q21 -11 13 -23z" />
    <glyph glyph-name="uni3119" unicode="&#x3119;" 
d="M87 191q3 4 12.5 -9.5t5.5 -20.5q-4 -10 -6 -14q-9 -21 -44 -101q-7 -15 -9 -20q33 4 69 10q17 2 17 3q-1 7 -7 26q-4 11 -5 14.5t0.5 4.5t3.5 0q17 -15 30 -54q11 -33 -6 -36q-7 0 -9 18q-2 10 -3 11q-35 -5 -74 -14q-3 -1 -8 -4q-9 -5 -12 -3q-9 8 -13 24q0 4 6 13
q2 1 2 2q20 34 46 111q2 5 2 21q-3 16 2 18z" />
    <glyph glyph-name="uni311A" unicode="&#x311a;" 
d="M105 113l-2 -44v-57q-1 -18 -7 -20q-8 6 -11 17q0 3 2 14q5 20 5 31l1 55q-1 15 -6 21q-6 8 -38 37l-6 6q-7 7 -2 18q5 7 15 -2q6 -5 29 -40q13 -19 14 -19q24 31 33 51q2 4 3 11q1 5 3 5q11 -3 18 -21q0 -3 -3.5 -4.5t-4.5 -3.5l-8 -8q-43 -46 -35 -47z" />
    <glyph glyph-name="uni311B" unicode="&#x311b;" 
d="M103 153v-17q0 -7 2 -16q2 -7 2 -11q-1 -6 -7 -8q-2 0 -4 1q-4 1 -8 1q-31 -3 -33 -46q3 -44 37 -48q24 -3 34 20q2 8 6.5 3.5t1.5 -11.5q-11 -29 -42 -29q-46 5 -49 66q2 56 50 59q0 5 -1 16q0 24 -3 37q-16 -2 -21 -3q-2 0 -7 -2q-13 -3 -16 -3q-7 3 -14 16q0 3 1 4
q61 2 98 11q1 0 4 1q8 3 12 3q7 -2 14 -14q3 -9 -4 -9q-1 0 -4 1q-6 1 -9 1q-12 0 -44 -4q7 -4 7 -9q0 -3 -2 -7q-1 -2 -1 -3z" />
    <glyph glyph-name="uni311C" unicode="&#x311c;" 
d="M94 104v7v26q-16 -2 -39 -8q-10 -3 -12 -3q-8 3 -13 16q0 3 4 5q28 -3 59 4q0 5 -0.5 16t-0.5 17q0 2 -3 11q-1 5 3 9t17 -11q0 -2 -2 -5.5t-2 -5.5q0 -7 -1 -17v-12q4 1 11.5 2.5t10.5 1.5q1 0 4 1q9 2 13 2q15 -4 19 -18q0 -6 -3 -6t-8 2q-11 2 -19 2q-15 0 -27 -2
q1 -25 4 -38q0 -2 -0.5 -7t-7.5 -7h-3q-6 1 -9 1q-28 -2 -29 -37q2 -40 35 -42q18 0 27 12q4 8 7 3q2 -7 -2 -15q-13 -20 -34 -22q-41 6 -46 60q2 54 47 58z" />
    <glyph glyph-name="uni311D" unicode="&#x311d;" 
d="M80 103v-44q-2 -49 29 -46q8 0 15 2q3 1 5 1q10 -4 14 -16q1 -7 -20 -7q-35 -1 -45 17q-11 16 -9 73v18q-5 -1 -7 -1q-9 -2 -18 -6q-4 -2 -5 -2q-10 6 -13 17q22 3 43 6v54q0 5 -2 12q-1 4 -1 6q-2 5 2 6q14 -3 19 -13v-2q0 1 -1 -2q0 -1 -1 -2q-5 -7 -5 -24v-32
q9 1 27 5q6 1 9 2q3 21 3 41q0 4 -4 25q1 4 3 4q10 -2 20 -10q1 -1 0.5 -2.5t-0.5 -2.5t-1 -3q-3 -5 -3 -7q-2 -21 -5 -42q17 4 22 4q8 -2 14 -13q3 -9 -5 -11q-2 0 -9.5 2t-8.5 2q-7 0 -16 -1q-9 -47 -21 -74q-2 -2 -3.5 -1t-0.5 3q10 41 13 70q-9 -1 -27 -5q-5 -1 -7 -1z
" />
    <glyph glyph-name="uni311E" unicode="&#x311e;" 
d="M59 160l2 2q10 -7 14 -16q2 -3 -1 -5q-1 -2 -4 -5q-2 -1 -2 -2q-4 -12 -13 -31l4 1q22 3 32 5q6 29 8 66q-15 -3 -36 -9q-9 -3 -10 -3q-13 6 -13 22h10q51 0 83 13q5 2 6 2q7 -2 13 -14q4 -8 -1 -11q-8 1 -20.5 1.5t-23.5 -0.5l3 -3q10 -10 11 -14q0 -2 -2 -4
q-5 -4 -6 -15q-1 -3 -2 -9q-2 -12 -4 -19q19 4 26 7q1 0 2 1q2 3 6 3q8 -4 18 -18q1 -3 1 -4q0 -3 -3.5 -6t-4.5 -7q-12 -51 -38 -87q1 0 -7 -4q-3 -1 -4 2q27 43 34 94q-2 11 -7 11q-3 0 -11.5 -2t-14.5 -3q-27 -85 -65 -106q-4 0 -2 6q34 32 51 97l-12 -3
q-20 -5 -22.5 -6.5t-7.5 -6.5q-3 -3 -4 -3q-8 8 -10 20q0 4 4 6q13 6 22 42q0 11 1 15z" />
    <glyph glyph-name="uni311F" unicode="&#x311f;" 
d="M28 177q1 4 7 3q47 5 55 13l1 1q2 3 4 3q16 -7 21 -17v-1q1 -2 0 -3l-3 -3q-5 -5 -5 -9q-4 -89 50 -149q5 -6 6 -8q-3 -18 -20 -9q-48 53 -47 170q0 12 -6 10q-14 -3 -37 -12q-11 -4 -13 -4q-9 7 -13 15z" />
    <glyph glyph-name="uni3120" unicode="&#x3120;" 
d="M57 95l42 -2q28 50 25 60q2 4 4 3q12 -11 17 -23q0 -3 -1.5 -4.5t-4.5 -2.5q-5 -3 -6 -4q-45 -70 -73 -105q6 2 16 5q34 9 52 15q-1 2 -2 6q-2 6 -5 12q-5 9 -4.5 12.5t6.5 -0.5q31 -35 34 -57q0 -11 -9 -14q-7 0 -10 12q-1 8 -6 20q-69 -27 -81 -40q-1 -1 -3.5 -1.5
t-10.5 19.5q-2 4 -2.5 5.5t1.5 5.5h2q9 3 13 7q16 19 41 58q-6 -1 -15 -2q-16 -1 -30 -9q-6 3 -11 23q0 4 5 6q7 3 11 8q40 54 40 84q1 4 3 5q11 -7 17 -19q1 -2 -1.5 -5.5t-5.5 -4.5q-2 -4 -8 -13q-27 -43 -40 -58q-1 -2 0 -2z" />
    <glyph glyph-name="uni3121" unicode="&#x3121;" 
d="M42 182h9q49 0 67 15q2 2 3 2q20 -13 20 -22q0 -2 -3 -5q-3 -1 -4 -5q-8 -40 -22 -75q46 -64 44 -82q0 -9 -8 -11q-6 0 -13 15q-1 1 -7.5 15.5t-24.5 43.5q-20 -40 -49 -69q-1 0 -2 -1q-11 -9 -15 -6q-2 3 0 3q33 30 57 88q-18 30 -37 54q-4 5 -4 8q2 5 5 2
q18 -14 43 -47q9 25 15 55q4 18 -9 14q-1 -1 -2 -1q-37 -11 -52 -13q-8 5 -13 15q-2 7 2 7z" />
    <glyph glyph-name="uni3122" unicode="&#x3122;" 
d="M72 168h-1q-6 -2 -13.5 9.5t-1.5 12.5h24q26 1 46 10q2 1 9.5 -2t15.5 -18q2 -3 -1 -7q-3 -2 -7 -5q-3 -5 -9 -18q-8 -18 -12 -26q-4 -4 -8 0q13 35 14 52q0 7 -3 7q-15 -1 -42 -11q-3 -1 -5 -2q9 -12 10 -22q0 -4 -3 -8t-5 -7q-3 -7 -12 -22q-8 -13 -10 -18
q0 -1 -1 -1.5t-3 -6.5q4 1 11 2q38 6 58 12q3 1 8 5q2 2 3 2q17 -11 21 -22q0 -1 0.5 -2t-0.5 -2.5t-3 -3.5q-5 -2 -6 -6q-18 -52 -33 -74q-2 -4 -5 -3q-3 3 -2 7q15 35 21 66v1q4 16 -2 16q-9 -2 -33 -6q-26 -5 -29 -6t-7.5 -3.5t-5.5 -2.5q-7 2 -13 19q0 4 5 6l2 2
q25 40 28 76z" />
    <glyph glyph-name="uni3123" unicode="&#x3123;" 
d="M43 198q1 4 3 4q11 -4 23 -14q1 -3 1 -5t-3 -6t-3 -6q-3 -17 -7 -73q59 7 72 14q1 0 3.5 2.5t3.5 2.5q11 -6 20 -19q2 -3 0 -7l-3.5 -3.5l-3.5 -3.5q-17 -80 -27 -93q-2 -2 -4.5 -1t-1.5 3q14 46 16 87q1 12 -9 11q-46 -2 -67 -13l-1 -1q-2 -3 -3 -3q-9 4 -16 18q0 2 3 7
t4 9q5 40 4 66q0 4 -3 20z" />
    <glyph glyph-name="uni3124" unicode="&#x3124;" 
d="M104 83v-51q-1 -21 18 -19q11 0 23 5q4 2 6 2q10 -4 12 -16q0 -7 -26 -8h-26q-20 1 -19 22v63q0 9 -3 20q-1 3 -1 4q-13 -79 -54 -114q-3 -1 -4 0q-2 3 0 6q38 43 46 119q-12 -3 -27 -9q-4 -1 -11 2.5t-6 13.5q27 3 45 8q2 20 2 42q0 5 -2 15q-1 6 -1 8q1 4 2 4.5t3 -0.5
q20 -7 18 -12q0 -1 -2 -3q-2 -4 -2 -7q-1 -23 -3 -44q19 5 36 11q4 2 5 2q10 -4 14 -16q1 -7 -11 -7q-21 1 -46 -4q0 -2 -0.5 -4.5t-0.5 -3.5q19 -6 21 -11q0 -4 -3 -8t-3 -10z" />
    <glyph glyph-name="uni3125" unicode="&#x3125;" 
d="M114 194q0 4 4 4q11 -7 19 -23q3 -3 -1 -6q0 -1 -5 -4q-27 -61 -75 -146q40 1 77 7q4 1 15.5 -4.5t3.5 -21.5q-24 7 -48 6q-42 -2 -50 -9l-3 -3q-4 -2 -5 0q-7 13 -8 21q-1 3 0 4.5t4 3.5t4 4q43 63 68 150v17z" />
    <glyph glyph-name="uni3126" unicode="&#x3126;" 
d="M59 169q0 5 2 6q16 -4 22 -14q0 -3 -0.5 -4l-1.5 -3q-2 -4 -2 -5q4 -114 -45 -159q-2 -3 -4.5 -0.5t-0.5 5.5q38 44 36 138q0 19 -5 32q-1 3 -1 4zM114 158v-92q1 -48 30 -50q2 0 5 1l2 1q8 -2 13 -14q0 -9 -13 -10q-47 3 -48 72v99q-1 9 -4 18q-1 5 -1 7q-1 4 3 5
q13 -5 20 -17q0 -3 -1 -5l-1 -2q-5 -7 -5 -13z" />
    <glyph glyph-name="uni3127" unicode="&#x3127;" 
d="M103 175v-127v-35q0 -24 -8 -24q-6 8 -10 30q0 2 1 5q3 6 3 11q0 9 1 25q1 33 1 59v49q0 13 -5 30q-1 5 -1 6q1 4 3 5q15 -6 19 -18q0 -1 0.5 -2t0 -1.5t-0.5 -1.5q-4 -6 -4 -11z" />
    <glyph glyph-name="uni3128" unicode="&#x3128;" 
d="M36 -7q-3 -1 -4 1.5t1 4.5q34 35 60 88q-33 43 -53 65q-2 2 -2 4q2 3 4 2q30 -25 58 -56q23 54 24 96q0 5 4 6q10 -6 18 -19q2 -3 0 -8q0 -1 -2.5 -3.5t-3.5 -7.5q-7 -34 -29 -76q48 -57 49 -83q-1 -8 -7 -12q-6 -1 -10 6q-16 37 -41 72q-34 -57 -66 -80z" />
    <glyph glyph-name="uni3129" unicode="&#x3129;" 
d="M148 168v-24q0 -30 5 -93q2 -24 2 -28q-1 -14 -5 -25q-1 -2 -3 -2q-10 6 -11 21v2l-1 1q-37 -7 -65 -15q-9 -2 -15 -8q-3 -3 -5 -3q-7 2 -13 19q0 4 3 8q2 2 4 5q12 33 14 122q0 21 -5 32q-1 3 -1 4q1 5 4 6q22 -11 22 -21q0 -2 -1 -3q-3 -3 -4 -8q-5 -89 -17 -134
q14 1 40 2.5t39 2.5v37q0 77 -5 102q-1 6 -8 19q0 1 -0.5 2.5t2.5 4.5q19 -5 26 -12q1 -3 1 -4t-1.5 -4.5t-1.5 -5.5z" />
    <glyph glyph-name="uni3220" unicode="&#x3220;" 
d="M27 109h138v-35h-138v35zM25 -22h-11q-14 44 -14 112q0 55 14 113h11q-12 -52 -12 -113q0 -66 12 -112zM167 203h11q16 -62 16 -113q0 -65 -16 -112h-11q12 46 12 112q0 61 -12 113z" />
    <glyph glyph-name="uni3221" unicode="&#x3221;" 
d="M41 163h110v-33h-110v33zM31 48h130v-34h-130v34zM25 -22h-11q-14 44 -14 112q0 55 14 113h11q-12 -52 -12 -113q0 -66 12 -112zM167 203h11q16 -62 16 -113q0 -65 -16 -112h-11q12 46 12 112q0 61 -12 113z" />
    <glyph glyph-name="uni3222" unicode="&#x3222;" 
d="M29 39h134v-33h-134v33zM37 172h118v-34h-118v34zM44 106h105v-32h-105v32zM25 -22h-11q-14 44 -14 112q0 55 14 113h11q-12 -52 -12 -113q0 -66 12 -112zM167 203h11q16 -62 16 -113q0 -65 -16 -112h-11q12 46 12 112q0 61 -12 113z" />
    <glyph glyph-name="uni3223" unicode="&#x3223;" 
d="M136 87v57h-14v-47q0 -10 7 -10h7zM56 8v-9h-22v173h125v-173h-23v9h-80zM101 144h-12v-31q1 -36 -20 -64q-2 2 -6.5 7.5t-6.5 7.5v-28h80v23h-18q-17 0 -17 24v61zM69 115v29h-13v-71q13 19 13 42zM25 -22h-11q-14 44 -14 112q0 55 14 113h11q-12 -52 -12 -113
q0 -66 12 -112zM167 203h11q16 -62 16 -113q0 -65 -16 -112h-11q12 46 12 112q0 61 -12 113z" />
    <glyph glyph-name="uni3224" unicode="&#x3224;" 
d="M70 144h-37v30h126v-30h-64l-4 -33h55v-77h18v-30h-136v30h27l6 48h-25v29h30zM87 82l-7 -48h41v48h-34zM25 -22h-11q-14 44 -14 112q0 55 14 113h11q-12 -52 -12 -113q0 -66 12 -112zM167 203h11q16 -62 16 -113q0 -65 -16 -112h-11q12 46 12 112q0 61 -12 113z" />
    <glyph glyph-name="uni3225" unicode="&#x3225;" 
d="M163 6l-25 -11q-21 49 -36 81l23 10l10 -20q18 -38 28 -60zM66 86l24 -10q-21 -52 -39 -83l-22 12q22 40 37 81zM31 133h58q-2 8 -10 27q-3 6 -4 10l25 9q9 -21 15 -39l-17 -7h64v-32h-131v32zM25 -22h-11q-14 44 -14 112q0 55 14 113h11q-12 -52 -12 -113q0 -66 12 -112
zM167 203h11q16 -62 16 -113q0 -65 -16 -112h-11q12 46 12 112q0 61 -12 113z" />
    <glyph glyph-name="uni3226" unicode="&#x3226;" 
d="M125 -4h-23q-35 -2 -34 39v48l-37 -9l-3 34l40 9v64h26v-58l67 16l4 -33l-71 -16v-50q-1 -14 13 -13h15q12 0 13 14q2 12 2 30q4 -2 14 -4q8 -3 12 -4q-1 -6 -2 -16q0 -6 -3 -23q-4 -29 -33 -28zM25 -22h-11q-14 44 -14 112q0 55 14 113h11q-12 -52 -12 -113
q0 -66 12 -112zM167 203h11q16 -62 16 -113q0 -65 -16 -112h-11q12 46 12 112q0 61 -12 113z" />
    <glyph glyph-name="uni3227" unicode="&#x3227;" 
d="M64 174l23 -2q0 -9 -0.5 -23.5t-1.5 -22.5q0 -74 -40 -126q-2 2 -6 7q-8 11 -12 16q33 38 35 102q1 6 1 24q1 16 1 25zM103 176h23q0 -18 2 -46q4 -77 37 -104q-4 -5 -10 -15q-5 -7 -8 -11q-42 48 -42 131q0 7 -0.5 23t-1.5 22zM25 -22h-11q-14 44 -14 112q0 55 14 113
h11q-12 -52 -12 -113q0 -66 12 -112zM167 203h11q16 -62 16 -113q0 -65 -16 -112h-11q12 46 12 112q0 61 -12 113z" />
    <glyph glyph-name="uni3228" unicode="&#x3228;" 
d="M139 2h-9q-22 0 -22 27v85h-21q1 -79 -44 -116q-2 2 -6 7q-8 10 -11 15q38 34 36 94h-31v30h32v39h25q0 -27 -1 -39h46v-104q0 -7 4 -6q5 -1 6 8v13q1 13 1 22q12 -5 22 -7q-1 -10 -3 -26q-1 -11 -1 -15q-2 -28 -23 -27zM25 -22h-11q-14 44 -14 112q0 55 14 113h11
q-12 -52 -12 -113q0 -66 12 -112zM167 203h11q16 -62 16 -113q0 -65 -16 -112h-11q12 46 12 112q0 61 -12 113z" />
    <glyph glyph-name="uni3229" unicode="&#x3229;" 
d="M83 182h26v-62h53v-34h-53v-86h-26v86h-53v34h53v62zM25 -22h-11q-14 44 -14 112q0 55 14 113h11q-12 -52 -12 -113q0 -66 12 -112zM167 203h11q16 -62 16 -113q0 -65 -16 -112h-11q12 46 12 112q0 61 -12 113z" />
    <glyph glyph-name="uni4E00" unicode="&#x4e00;" 
d="M187 113v-44h-183v44h183z" />
    <glyph glyph-name="uni4E01" unicode="&#x4e01;" 
d="M186 194v-42h-67v-142q0 -33 -33 -35q-22 -2 -41 -2q0 2 -1 5q-2 18 -6 40h33q13 1 13 15v119h-78v42h180z" />
    <glyph glyph-name="uni4E03" unicode="&#x4e03;" 
d="M183 156l4 -42l-93 -21v-60q-1 -20 19 -19h18q15 0 17 17q1 7 2 26q1 9 1 13q5 -2 14 -5q13 -6 20 -8q-2 -16 -6 -41q-1 -6 -1 -9q-5 -33 -43 -32h-34q-43 -2 -42 47v64l-49 -12l-5 42l54 12v80h35v-72z" />
    <glyph glyph-name="uni4E07" unicode="&#x4e07;" 
d="M167 124q-1 -16 -2 -46q-2 -50 -3 -65q0 -38 -38 -39q-7 0 -21 -1h-16q-2 21 -7 40q18 -1 32 -1q18 -1 19 16q0 20 2 58h-53q-6 -72 -51 -118q-18 18 -27 26q45 40 46 116q2 19 2 46h-43v39h177v-39h-100q0 -5 -0.5 -16t-1.5 -16h85z" />
    <glyph glyph-name="uni4E08" unicode="&#x4e08;" 
d="M183 167v-40h-47q-3 -56 -23 -90q25 -18 75 -28q-2 -6 -7 -16q-6 -15 -8 -21q-52 13 -83 36q-24 -20 -67 -40q-9 20 -19 36q40 15 62 32q-17 22 -36 68l31 15q13 -35 28 -56q13 25 14 64h-94v40h95v40h33v-40h46z" />
    <glyph glyph-name="uni4E09" unicode="&#x4e09;" 
d="M186 25v-40h-179v40h179zM175 193v-43h-158v43h158zM166 110v-42h-139v42h139z" />
    <glyph glyph-name="uni4E0A" unicode="&#x4e0a;" 
d="M173 141v-40h-68v-81h80v-39h-178v39h63v188h35v-67h68z" />
    <glyph glyph-name="uni4E0B" unicode="&#x4e0b;" 
d="M185 196v-41h-79v-46l18 15q32 -28 60 -58l-30 -28q-18 23 -48 52v-119h-34v184h-65v41h178z" />
    <glyph glyph-name="uni4E0C" unicode="&#x4e0c;" 
d="M185 192v-41h-32v-176h-34v176h-39q0 -34 -1 -47q0 -52 -10 -79q-8 -25 -36 -56q-13 14 -28 26q24 25 31 46q9 21 9 63v47h-38v41h178z" />
    <glyph glyph-name="uni4E0D" unicode="&#x4e0d;" 
d="M113 110v-18l22 18q33 -33 55 -58l-29 -28q-21 27 -48 59v-112h-34v104q-21 -28 -53 -57q-10 18 -23 37q58 43 79 99h-70v40h171v-40h-62q-9 -24 -20 -44h12z" />
    <glyph glyph-name="uni4E0E" unicode="&#x4e0e;" 
d="M182 182v-38h-122l-1 -20h117q-2 -52 -4 -106q0 -46 -45 -46h-39q-1 10 -6 35q-1 4 -1 6q19 -1 37 -1q22 -1 22 18q0 9 0.5 28t1.5 28h-118l6 122h34l-2 -26h120zM132 67v-39h-127v39h127z" />
    <glyph glyph-name="uni4E10" unicode="&#x4e10;" 
d="M183 200v-36h-72v-19h63v-36h-63v-20h67q0 -9 -1 -28q-1 -33 -2 -44q-1 -41 -41 -41q-21 -1 -49 -1l-3 15q-3 17 -4 25q23 -1 46 -1q20 -1 20 16v23h-129l7 98h32l-5 -62h30v75h-70v36h174z" />
    <glyph glyph-name="uni4E11" unicode="&#x4e11;" 
d="M172 200l-7 -185h20v-36h-178v36h33l5 56h-27v38h31l5 53h-37v38h155zM79 71l-5 -56h57l3 56h-55zM137 162h-50l-5 -53h53z" />
    <glyph glyph-name="uni4E13" unicode="&#x4e13;" 
d="M179 186v-34h-95l-6 -16h109v-34h-123l-6 -14h115v-40l-42 -33q6 -2 16.5 -6.5t15.5 -7.5l-19 -33q-44 21 -122 53l19 30l15 -6q8 -3 40 -16l35 25h-109v32l6 16h-23v34h37l6 16h-34v34h47l10 25h37l-11 -25h82z" />
    <glyph glyph-name="uni4E14" unicode="&#x4e14;" 
d="M187 13v-35h-182v35h19v184h144v-184h19zM56 39v-26h80v26h-80zM56 161v-26h80v26h-80zM56 100v-26h80v26h-80z" />
    <glyph glyph-name="uni4E15" unicode="&#x4e15;" 
d="M133 132q27 -23 57 -50l-26 -27q-28 30 -52 52v-83h-32v77q-22 -25 -56 -52q-2 4 -7 11q-9 15 -14 23q53 36 78 79h-69v38h168v-38h-60q-9 -17 -18 -32h10v-18zM186 16v-38h-179v38h179z" />
    <glyph glyph-name="uni4E16" unicode="&#x4e16;" 
d="M186 157v-38h-21v-79h-88v79h-22v-104h129v-35h-160v139h-17v38h17v41h31v-41h22v51h30v-51h28v51h30v-51h21zM107 77h28v42h-28v-42z" />
    <glyph glyph-name="uni4E18" unicode="&#x4e18;" 
d="M187 16v-37h-182v37h23v177q83 4 132 11l12 -38q-52 -7 -112 -10v-38h118v-39h-34v-63h43zM60 79v-63h52v63h-52z" />
    <glyph glyph-name="uni4E19" unicode="&#x4e19;" 
d="M187 198v-36h-74q0 -3 -0.5 -10.5t-0.5 -11.5h66v-133q1 -31 -33 -33h-7q-16 -1 -22 -1q-2 20 -7 37q5 0 18 -1h10q10 0 10 13v17l-18 -20q-13 15 -33 37q-11 -21 -36 -46q-2 4 -7 10.5t-8 9.5v-58h-30v168h67v22h-77v36h182zM147 104h-36q0 -2 -1 -5q-1 -7 -2 -10
q20 -18 39 -37v52zM45 104v-57q29 25 34 57h-34z" />
    <glyph glyph-name="uni4E1A" unicode="&#x4e1a;" 
d="M184 17v-38h-176v38h48v38l-23 -6q-14 62 -27 110l28 7q14 -51 22 -81v121h30v-189h20v189h30v-117q9 29 21 76l29 -7q-17 -68 -30 -107l-20 6v-40h48z" />
    <glyph glyph-name="uni4E1B" unicode="&#x4e1b;" 
d="M145 209q0 -21 -2 -44q5 -75 46 -114q-12 -13 -25 -28q-24 30 -33 68q-9 -37 -38 -72q-8 9 -26 25q27 30 36 59l-20 -18q-7 12 -16 24q-7 -46 -38 -86q-7 8 -27 26q40 47 39 110q1 27 1 49h31q0 -13 -2 -43v-9q18 -23 35 -44q6 21 7 45q0 11 1 30v22h31zM185 15v-37h-178
v37h178z" />
    <glyph glyph-name="uni4E1C" unicode="&#x4e1c;" 
d="M66 209l36 -2q-5 -13 -11 -27h94v-38h-111q-9 -21 -20 -41h32v33h32v-33h61v-38h-61v-56q1 -33 -32 -35q-10 -1 -25 -1q-4 22 -7 39q11 -1 21 -1q12 0 11 14v40h-69v39q12 21 21 40h-30v38h47q1 2 3 7q3 8 8 22zM43 58l29 -19q-28 -38 -44 -56q-11 12 -26 22q18 20 41 53
zM146 56q27 -29 44 -49l-25 -23q-2 3 -7 9q-25 28 -38 42z" />
    <glyph glyph-name="uni4E1D" unicode="&#x4e1d;" 
d="M158 158l30 -14q-16 -27 -43 -64q-5 -7 -7 -10q18 2 41 2q-1 -9 -2 -24q-1 -9 -1 -12q-6 0 -25 -1q-22 -1 -27 -2q-10 -1 -19 -4l-12 35v-3q-2 -12 -2 -24q-25 -2 -45 -6q-15 -2 -22 -4l-12 36q15 9 23 21q7 9 13 18q-9 0 -24 -2q-4 -1 -6 -1l-10 37q10 6 18 19
q12 22 25 52l32 -11q-21 -36 -37 -61q3 0 10.5 0.5t11.5 0.5l12 24l21 -10q2 2 2 3q18 31 27 52l31 -11q-9 -16 -27 -45q-7 -11 -10 -16q11 1 21 1q7 12 13 24zM185 16v-37h-178v37h178zM93 73v-8q10 6 19 18q1 2 4 6q5 7 8 12q-16 -1 -27 -3l-6 17q-12 -21 -30 -45
q14 2 32 3z" />
    <glyph glyph-name="uni4E1E" unicode="&#x4e1e;" 
d="M163 146l25 -22q-27 -25 -42 -37q16 -16 41 -29q-4 -7 -3 -5q-11 -20 -16 -31q-36 24 -53 58v-32q1 -30 -28 -30q-4 0 -12 -0.5t-12 -0.5q-1 6 -3 16q-3 13 -4 20h19q12 -1 11 12v84l30 17h-91v34h140v-38l-46 -28q4 -12 10 -21q20 17 34 33zM184 12v-35h-177v35h177z
M79 145v-35q-13 -56 -57 -88q-1 2 -4 7q-9 17 -14 25q32 22 45 57h-35v34h65z" />
    <glyph glyph-name="uni4E22" unicode="&#x4e22;" 
d="M168 202l11 -37q-10 0 -30 -2q-25 -1 -37 -2v-21h62v-36h-62v-22h74v-36h-47q14 -17 38 -47q5 -7 7 -10l-29 -18l-6 9q-3 4 -4 6q-44 -2 -83 -6q-18 -1 -30 -4l-19 34q18 9 30 27q3 5 6 9h-43v36h74v22h-63v36h63v20q-40 -2 -60 -2q-4 20 -8 36q105 2 156 8zM121 19
q-2 3 -6 8.5t-6 8.5l20 10h-41q-7 -9 -19 -25q-3 -3 -4 -5q22 0 56 3z" />
    <glyph glyph-name="uni4E24" unicode="&#x4e24;" 
d="M178 138v-133q1 -30 -27 -30q-8 -1 -29 -1q0 1 -1 4q-2 13 -6 29q12 -1 23.5 -1t10.5 12v14l-7 -13q-3 4 -8.5 12t-8.5 12q-7 -21 -22 -44q-13 8 -24 18q27 40 28 86h-23q0 -6 -1 -14l18 -18l-15 -32q-6 6 -10 12q-6 -22 -19 -47l-6.5 6.5t-7.5 6.5v-44h-29v165h42v22
h-51v35h182v-35h-51v-22h42zM43 45q13 28 14 58h-14v-58zM85 160v-22h22v22h-22zM133 83q3 -3 8.5 -9.5t7.5 -10.5v40h-15q0 -4 -0.5 -10.5t-0.5 -9.5z" />
    <glyph glyph-name="uni4E25" unicode="&#x4e25;" 
d="M186 199v-34h-52v-53h52v-34h-139v-19q1 -55 -17 -92q-15 10 -27 16q15 27 14 76v53h45v53h-54v34h178zM40 164q14 -21 22 -37l-27 -13q-9 17 -3 6q-6 11 -18 32zM155 164l27 -11q-12 -24 -22 -39l-25 14q16 25 20 36zM91 165v-53h15v53h-15z" />
    <glyph glyph-name="uni4E27" unicode="&#x4e27;" 
d="M177 187v-34h-31l25 -15q-1 -2 -4 -5q-15 -21 -22 -28h41v-35h-28l21 -15q-17 -17 -33 -30q17 -9 42 -15q-3 -7 -2 -5q-10 -19 -15 -30q-55 19 -75 47q0 -5 0.5 -13.5t1.5 -13.5q-21 -7 -43 -16q-10 -5 -17 -9l-17 29q10 12 9 27v44h-24v35h37q-8 12 -23 32l27 15
q10 -12 27 -34l-22 -13h28v48h-65v34h65v22h31v-22h66zM60 19q16 6 31 11q-8 11 -18 40h-13v-51zM116 119q20 22 27 34h-32v-48h24zM106 70q7 -15 16 -26q12 11 27 26h-43z" />
    <glyph glyph-name="uni4E28" unicode="&#x4e28;" 
d="M113 209v-240h-35v240h35z" />
    <glyph glyph-name="uni4E2A" unicode="&#x4e2a;" 
d="M119 207q-2 -6 -5 -12q28 -53 75 -82q-3 -5 -10.5 -16.5t-12.5 -18.5q-44 34 -69 82q-27 -48 -73 -86l-9 15q-9 15 -13 21q56 38 79 99zM113 117v-147h-34v147h34z" />
    <glyph glyph-name="uni4E2B" unicode="&#x4e2b;" 
d="M113 110v-139h-35v139h35zM31 202q39 -39 60 -61l-27 -24l-30 33q-19 20 -28 30zM157 203l27 -22q-12 -13 -34 -39q-15 -17 -23 -26l-26 25q30 31 56 62z" />
    <glyph glyph-name="uni4E2C" unicode="&#x4e2c;" 
d="M138 207v-236h-32v83q-12 -9 -37 -30q-8 -7 -13 -11l-20 35q16 11 43 32q18 13 27 20v107h32zM71 181q18 -33 30 -59l-29 -14q-15 34 -29 60z" />
    <glyph glyph-name="uni4E2D" unicode="&#x4e2d;" 
d="M112 210v-41h67v-139h-32v14h-35v-75h-33v75h-34v-15h-32v140h66v41h33zM147 129h-35v-46h35v46zM45 129v-46h34v46h-34z" />
    <glyph glyph-name="uni4E30" unicode="&#x4e30;" 
d="M184 52v-38h-72v-43h-33v43h-72v38h72v25h-55v38h55v25h-63v38h63v30h33v-30h64v-38h-64v-25h55v-38h-55v-25h72z" />
    <glyph glyph-name="uni4E32" unicode="&#x4e32;" 
d="M171 186v-82h-59v-14h68v-92h-30v9h-38v-38h-32v38h-37v-9h-30v92h67v14h-59v82h59v23h32v-23h59zM150 57h-38v-18h38v18zM43 57v-18h37v18h-37zM141 136v18h-29v-18h29zM51 154v-18h29v18h-29z" />
    <glyph glyph-name="uni4E34" unicode="&#x4e34;" 
d="M181 102v-132h-26v14h-50v-14h-25v132h52l-1 1q-6 10 -22 28l19 13h-18q-7 -17 -18 -35q-3 3 -10.5 9t-11.5 9v-158h-28v240h28v-75q22 32 29 75l32 -4q-1 -4 -4 -12q-2 -10 -4 -14h64v-35h-51q8 -8 25 -28l-20 -14h40zM34 184v-193h-24v193h24zM155 69h-13v-54h13v54z
M105 69v-54h14v54h-14z" />
    <glyph glyph-name="uni4E36" unicode="&#x4e36;" 
d="M83 142q29 -36 57 -77l-36 -24q-25 40 -55 79z" />
    <glyph glyph-name="uni4E38" unicode="&#x4e38;" 
d="M88 209v-36h58v-148q1 -10 7.5 -10.5t7.5 12.5q1 6 1 22q1 14 1 22q5 -2 16 -6q7 -3 10 -4q-1 -39 -4 -56q-2 -30 -30 -29h-10q-31 -1 -30 31v55l-18 -34q-2 1 -4 3q-8 4 -17 11q-10 -31 -49 -73q-3 3 -8 9q-11 13 -17 19q34 32 44 62q-9 6 -30 18q-6 3 -9 5l18 31
q15 -7 29 -15q1 6 1.5 18t0.5 18h-46v39h46v36h32zM115 134h-28q0 -30 -3 -52q5 -3 15.5 -8.5t15.5 -8.5v69z" />
    <glyph glyph-name="uni4E39" unicode="&#x4e39;" 
d="M187 98v-38h-20v-47q2 -37 -37 -38q-7 -1 -32 -1q-1 9 -4 26q-1 8 -2 12q10 -1 27 -1q18 -2 16 16v33h-71q-1 -51 -24 -93q-6 6 -18 15q-8 6 -11 9q19 28 22 69h-28v38h28v103h134v-103h20zM65 164v-66h70v66h-70zM99 158q10 -13 26 -38l-28 -16q-12 21 -24 39z" />
    <glyph glyph-name="uni4E3A" unicode="&#x4e3a;" 
d="M41 208q2 -3 8 -10q11 -15 18 -24l-25 -17h27q2 26 2 53h34q0 -19 -2 -53h76q-1 -17 -3 -69.5t-3 -70.5q-2 -41 -41 -42q-15 -1 -37 -1q-1 6 -3 17q-3 15 -5 23q13 -1 35 -1q20 -2 20 19q0 12 1 41q1 34 2 46h-45q-1 -17 -4 -32l16 11q2 -2 5 -6q14 -17 25 -32l-28 -22
q-1 2 -4 7q-12 18 -18 25q-14 -55 -64 -100q-15 21 -24 30q58 49 62 119h-56v38h26q-6 12 -21 33z" />
    <glyph glyph-name="uni4E3B" unicode="&#x4e3b;" 
d="M107 210l6 -21q3 -10 5 -17l-29 -5h87v-39h-63v-35h54v-39h-54v-37h70v-38h-175v38h72v37h-54v39h54v35h-63v39h66l-3 12q-1 5 -7 25z" />
    <glyph glyph-name="uni4E3D" unicode="&#x4e3d;" 
d="M179 150v-151q1 -26 -20 -26h-23q-1 3 -2 10q-2 13 -4 19q5 -1 14.5 -1t8.5 8v28l-16 -4q-5 21 -11 36v-99h-25v180h78zM90 150v-150q1 -28 -21 -26q-7 -1 -22 -1q-1 4 -2 12q-2 15 -4 20h15.5t8.5 8v25l-17 -4q-1 6 -6 21q-1 6 -2 9v-94h-26v180h76zM186 199v-36h-180
v36h180zM52 96q7 -18 13 -36v54h-25v-22zM141 98l12 -36v52h-27v-20z" />
    <glyph glyph-name="uni4E3E" unicode="&#x4e3e;" 
d="M185 156v-34h-43q17 -30 48 -42q-2 -4 -5 -11q-8 -16 -10 -22q-21 14 -30 24v-16h-34v-18h69v-33h-69v-34h-30v34h-69v33h69v18h-34v15q-12 -13 -28 -25l-6 12q-3 4 -11 19q31 17 48 46h-43v34h30q-5 17 -17 43l30 6q5 -9 15 -34q2 -5 3 -8l-30 -7h81q14 28 21 49l34 -11
q-3 -6 -10 -17q-9 -15 -13 -21h34zM103 208q10 -29 14 -45l-30 -5q0 1 -1 2q-7 25 -14 44zM111 112v-26h20q-11 17 -19 36h-30q-10 -19 -21 -36h20v26h30z" />
    <glyph glyph-name="uni4E3F" unicode="&#x4e3f;" 
d="M127 209q0 -56 -1 -73q-1 -72 -14.5 -104t-56.5 -64q-6 7 -17 19q-6 7 -9 10q39 29 50 56q13 26 13 85v71h35z" />
    <glyph glyph-name="uni4E43" unicode="&#x4e43;" 
d="M165 199v-35l-23 -42h41q-1 -16 -2 -46q-2 -41 -3 -60q-2 -41 -38 -41q-24 -2 -41 -2q-1 6 -3.5 20t-3.5 20q11 -1 35 -1q19 -1 19 17q3 28 3 57h-46v34l23 41h-48q0 -8 -1 -22v-14q0 -100 -50 -156q-4 4 -13 13.5t-13 14.5q44 44 43 127q1 19 1 37h-33v38h153z" />
    <glyph glyph-name="uni4E45" unicode="&#x4e45;" 
d="M59 209l35 -2q-5 -18 -11 -34h63v-36q-10 -33 -23 -58q21 -49 66 -73q-14 -21 -21 -35q-42 30 -64 74q-29 -44 -80 -76q-11 20 -21 32q82 52 105 133h-42q-13 -25 -31 -48q-12 13 -24 25q33 44 48 98z" />
    <glyph glyph-name="uni4E47" unicode="&#x4e47;" 
d="M183 119l2 -40l-85 -6v-47q-1 -14 13 -13h22q12 -1 14 14t3 32q17 -7 31 -10q-1 -5 -2 -14q-2 -19 -4 -28q-5 -32 -36 -31h-35q-39 0 -39 38v56l-60 -4l-1 40l61 5v41q-24 -1 -44 -3q-1 6 -4 20t-5 19q83 5 149 14l11 -38q-17 -2 -55 -7q-13 -1 -19 -2v-42z" />
    <glyph glyph-name="uni4E48" unicode="&#x4e48;" 
d="M130 174l34 -19q-58 -92 -98 -136q22 1 65 5q-4 9 -13 26l-6 12l28 14q24 -44 48 -87l-31 -16q-2 3 -5 10l-3 6q-17 -1 -52 -4q-27 -2 -39 -3q-16 -2 -27 -5l-21 36q17 11 27 23q41 49 93 138zM75 206l33 -19q-38 -62 -78 -106q-14 16 -28 28q42 41 73 97z" />
    <glyph glyph-name="uni4E49" unicode="&#x4e49;" 
d="M138 192l33 -9q-20 -94 -51 -137q22 -21 68 -38q-11 -18 -19 -37q-45 20 -73 47q-27 -26 -71 -49q-2 3 -6 10q-9 14 -17 25q46 20 70 45q-30 46 -52 127l31 12q19 -75 44 -113q28 40 43 117zM100 207q8 -20 21 -60l-31 -9q-10 36 -20 61z" />
    <glyph glyph-name="uni4E4B" unicode="&#x4e4b;" 
d="M108 209q3 -19 6 -42h60v-41q-47 -61 -104 -101q10 -11 25 -11q31 -1 92 1q-1 -5 -3 -14q-4 -15 -5 -25q-61 0 -93 1q-28 1 -45 32q-12 -18 -25 -38l-14 41q10 15 26 33q10 11 14.5 10.5t7.5 -2.5q39 30 80 75h-113v39h63q-2 8 -6 26q-2 9 -3 13z" />
    <glyph glyph-name="uni4E4C" unicode="&#x4e4c;" 
d="M166 188q0 -14 -2 -46q0 -34 -31 -34h-43q-1 5 -2 15l-3 18q11 -1 36 -1q13 -2 13 14h-78v-55h126q0 -5 -1 -16q-1 -47 -3 -70q2 -40 -40 -40q-11 -1 -39 -1q-1 8 -4 28q-1 6 -2 9h3q18 -2 35 -1q16 -1 16 15q1 10 2 29q1 9 1 14h-125v122h38q3 10 5 22l37 -1l-3 -9
q-4 -8 -5 -12h69zM140 53v-34h-135v34h135z" />
    <glyph glyph-name="uni4E4D" unicode="&#x4e4d;" 
d="M180 57v-39h-80v-47h-33v169h-7q-15 -30 -33 -55q-14 14 -26 27q33 42 48 98l35 -2q-4 -16 -9 -30h109v-38h-84v-22h74v-38h-74v-23h80z" />
    <glyph glyph-name="uni4E4E" unicode="&#x4e4e;" 
d="M185 90v-37h-72v-45q2 -32 -33 -35h-7q-18 -1 -26 -1q-3 24 -8 39q10 -1 28 -1q15 -1 14 17v26h-74v37h74v69q-9 0 -29 -0.5t-30 -0.5q-4 24 -8 36q78 1 154 7l9 -37q-31 -1 -64 -3v-71h72zM150 159l28 -18q-19 -28 -34 -48l-27 21q19 24 33 45zM44 155q20 -23 34 -40
l-29 -21q-6 11 -32 42z" />
    <glyph glyph-name="uni4E4F" unicode="&#x4e4f;" 
d="M41 48q3 0 8 -3q0 -1 1 -1q44 22 76 45h-106v35h62q-4 13 -9 29l33 1q2 -6 5 -18l3 -12h57v-42q-49 -41 -100 -64q9 -6 21 -6q72 0 95 1q-1 -6 -3 -16q-3 -15 -5 -22q-31 0 -92 2q-30 -3 -47 29q-6 -7 -20 -28q-3 -5 -4 -7l-13 39q14 20 24 30q8 8 14 8zM175 202l5 -37
q-82 -6 -161 -7q-1 10 -4 32q2 -14 -1 5q97 1 161 7z" />
    <glyph glyph-name="uni4E50" unicode="&#x4e50;" 
d="M116 150v-40h63v-37h-63v-66q1 -32 -26 -35q-10 -1 -33 -1q-4 24 -8 40q15 -1 25.5 -1.5t9.5 13.5v50h-70l10 122q73 0 137 9l13 -37q-58 -7 -122 -9l-3 -48h35v40h32zM41 68l29 -14q-26 -51 -40 -71q-16 12 -28 19q18 25 39 66zM148 68q11 -16 34 -55q5 -9 7 -13
l-31 -15q-9 17 -37 69z" />
    <glyph glyph-name="uni4E52" unicode="&#x4e52;" 
d="M187 67v-37h-111l18 -15q-21 -18 -58 -47q-14 18 -23 27q29 18 47 35h-55v37h26v128q88 3 131 12l13 -37q-47 -7 -113 -10v-21h118v-36h-34v-36h41zM62 103v-36h54v36h-54z" />
    <glyph glyph-name="uni4E53" unicode="&#x4e53;" 
d="M186 68v-37h-60q6 -4 19 -13q23 -15 34 -22l-25 -29q-27 24 -58 43l20 21h-109v37h24v127q88 3 131 12l12 -37q-46 -7 -112 -10v-21h117v-36h-33v-35h40zM62 103v-35h53v35h-53z" />
    <glyph glyph-name="uni4E54" unicode="&#x4e54;" 
d="M180 144v-35h-60q15 -29 70 -39q-1 -2 -2 -6q-6 -13 -11 -31q-21 7 -34 14v-74h-30v82h16q-20 13 -32 37q-11 -22 -34 -37h18q-1 -8 -1 -22q-2 -42 -36 -66q-4 4 -12.5 11.5t-13.5 11.5q32 15 32 45q0 2 0.5 6t0.5 6q-13 -7 -33 -15q-2 7 -11 25q-3 6 -4 9q54 17 69 43
h-60v35h69q1 9 1 20h-27q-20 -1 -32 -1q-1 18 -6 35q79 0 152 6l7 -36q-34 -1 -62 -3q0 -3 -0.5 -10t-1.5 -11h68z" />
    <glyph glyph-name="uni4E56" unicode="&#x4e56;" 
d="M186 152v-32h-76v-151h-29v151h-75v32h75v13h-29q-22 -1 -33 -1q-1 10 -4 28q2 -12 -1 4q80 0 158 5l5 -31q-11 0 -32 -2q-23 -1 -35 -2v-14h76zM146 112v-22q13 8 25 18l19 -25q-22 -14 -44 -27v-16q0 -7 8 -7h3q6 0 7 6q1 3 1.5 10.5t0.5 11.5q5 -2 15 -5q5 -1 7 -2
q-2 -21 -5 -35q-4 -19 -23 -19h-14q-26 0 -26 29v83h26zM71 112v-113h-26v19q-17 -4 -36 -11l-5 34q21 6 41 10v16h-36v30h36v15h26z" />
    <glyph glyph-name="uni4E58" unicode="&#x4e58;" 
d="M173 204l6 -29q-26 -1 -69 -3v-11h74v-30h-74v-50q20 -55 80 -76q-9 -11 -18 -32q-45 26 -62 54v-58h-29v59q-17 -28 -60 -56q-2 3 -5 8q-4 7 -14 22q35 17 54 38h-13v8q-5 -1 -15 -4.5t-15 -5.5l-8 30q3 1 9 2q19 4 29 7v8h-31v30h31v11h25v-71q7 12 13 26v50h-73v30h73
v11q-23 -1 -63 -1q-4 24 -5 29q61 -1 160 4zM148 126v-14q13 5 27 13l13 -24q-11 -5 -30 -12q-7 -3 -10 -4v-7q0 -8 7 -8h6q7 0 7 7q1 2 1.5 7.5t0.5 7.5q10 -3 19 -6q-1 -15 -3 -26q-3 -17 -22 -18h-16q-25 1 -25 28v56h25z" />
    <glyph glyph-name="uni4E59" unicode="&#x4e59;" 
d="M156 198v-40q-69 -69 -96 -101q-14 -15 -14 -27q-1 -15 24 -14h51q27 -2 27 24q3 15 4 40q17 -6 33 -11q-3 -34 -7 -56q-3 -36 -53 -34h-63q-53 0 -53 47q-1 29 27 59q39 43 70 72h-90v41h140z" />
    <glyph glyph-name="uni4E5C" unicode="&#x4e5c;" 
d="M65 210v-55l104 30q-1 -35 -3 -87q0 4 0 -8q-1 -21 -9 -31q16 -4 31 -9q-3 -25 -7 -45q-6 -28 -41 -27h-60q-49 -1 -48 46v80l-24 -6l-4 40l28 8v64h33zM135 134l-70 -20v-82q-1 -19 21 -18h49q16 -1 18 15q0 2 1 5q2 17 2 25q-8 -10 -28 -11h-14q-12 -1 -20 -1
q-3 21 -7 41q14 -1 33 -1q15 0 14 15q1 11 1 32z" />
    <glyph glyph-name="uni4E5D" unicode="&#x4e5d;" 
d="M86 209q0 -33 -1 -50h60v-135q-1 -9 6 -8q6 -1 7 10q2 19 2 46q7 -3 24 -9q3 -1 4 -1q-1 -40 -4 -58q-2 -30 -31 -29h-13q-30 -1 -29 33v112h-27q1 -100 -56 -151q-4 4 -13 13.5t-13 14.5q51 44 49 123h-42v39h42q1 18 1 50h34z" />
    <glyph glyph-name="uni4E5E" unicode="&#x4e5e;" 
d="M145 121v-37q-43 -23 -80 -58q-7 -8 -7 -11q-1 -6 17 -6h54q22 -1 22 19q1 7 2 23q1 6 1 10q9 -3 25 -8q5 -1 7 -2q-3 -25 -6 -43q-2 -35 -46 -32h-72q-40 1 -41 30q0 18 10 32q18 21 56 47h-51v36h109zM47 209l37 -4q-5 -12 -11 -24h107v-37h-128q-11 -18 -26 -34
q-8 12 -23 29q28 29 44 70z" />
    <glyph glyph-name="uni4E5F" unicode="&#x4e5f;" 
d="M111 210v-54l62 18q-2 -68 -3 -95q-2 -19 -6 -24q13 -4 25 -7q0 -3 -1 -9q-4 -26 -7 -37q-5 -27 -39 -26h-73q-46 -1 -45 43v74l-16 -5l-4 38l20 6v51h31v-43l25 8v62h31zM119 42q-3 16 -8 34v-52h-31v86l-25 -8v-69q-2 -24 20 -21h63q15 0 17 14q0 3 1 9q1 8 1 12
q-4 -3 -12 -4q-10 -1 -26 -1zM142 128l-31 -9v-40q6 0 18.5 -0.5t11.5 12.5q1 10 1 37z" />
    <glyph glyph-name="uni4E60" unicode="&#x4e60;" 
d="M178 196q-1 -36 -3 -114q-2 -48 -2 -66q2 -42 -43 -42q-9 -1 -37 -1q0 2 -1 6q-2 13 -6 35q6 0 19 -1h16q20 -1 19 18q0 6 1 19q2 74 2 105h-129v41h164zM132 104q0 -5 1 -22t1 -23q-70 -34 -113 -57l-16 42q66 29 127 60zM59 151q24 -20 47 -44l-29 -25q-17 21 -44 47z
" />
    <glyph glyph-name="uni4E61" unicode="&#x4e61;" 
d="M152 125l33 -7q-3 -15 -8 -38q-2 -8 -3 -11q-13 -78 -153 -100q0 1 -1 3q-8 26 -13 34q97 13 121 47q-30 -3 -77 -8q-16 -3 -19 -4l-14 37q16 6 29 14q15 12 32 24q-7 0 -21 -1h-10q-13 -2 -21 -4l-13 34q14 6 20 11q25 22 53 54l35 -17q-36 -32 -50 -44q8 0 30 1
q11 1 17 1q18 17 33 32l34 -18q-46 -42 -97 -81q8 0 24 2q20 1 30 2q6 19 9 37z" />
    <glyph glyph-name="uni4E66" unicode="&#x4e66;" 
d="M147 204q13 -11 38 -34q-3 2 5 -5l-24 -26q-4 5 -9 9l-3 -52h28q0 -12 0 -8q-2 -47 -3 -63q0 -34 -33 -35h-29q-1 5 -3 18t-3 18q13 -1 25.5 -1.5t11.5 14.5q1 12 1 19h-54v-88h-32v88h-57v38h57v34h-46v37h46v42h32v-42h42l-9 9l-5 5zM125 130h-30v-34h28z" />
    <glyph glyph-name="uni4E69" unicode="&#x4e69;" 
d="M64 208v-36h36v-35h-36v-35h32v-125h-28v15h-30v-16h-28v126h24v106h30zM141 208v-190q0 -8 7 -8h3q6 1 6 9q2 20 3 45q12 -4 28 -8q-1 -28 -4 -52q-4 -32 -30 -31h-14q-30 0 -30 31v204h31zM38 67v-43h30v43h-30z" />
    <glyph glyph-name="uni4E70" unicode="&#x4e70;" 
d="M185 75v-37h-61v-2q-1 -1 -1 -2q15 -7 42 -20q14 -7 21 -10l-21 -32q-3 2 -10 6q-28 17 -49 25q-21 -21 -83 -34q-2 6 -7 18.5t-8 17.5q71 9 81 33h-82v37h42q-18 12 -37 24l21 25q24 -14 48 -31l-15 -18h33q1 11 1 23q1 15 0 10q2 40 2 49h31q0 -14 -2 -62
q0 -4 -0.5 -10.5t-0.5 -9.5h55zM181 200v-34l-11 -61l-29 8l9 50h-98q21 -10 44 -27l-21 -26q-23 18 -47 32l18 21h-34v37h169z" />
    <glyph glyph-name="uni4E71" unicode="&#x4e71;" 
d="M104 144v-35h-34v-23h30v-111h-28v14h-34v-14h-28v111h30v23h-34v35h34v19q-4 0 -13.5 -0.5t-14.5 -0.5q-2 7 -5 29q0 -2 -1 6q37 1 88 6l9 -35h-3q-15 -2 -30 -2v-22h34zM142 208v-190q0 -8 6 -8h3q6 0 7 7.5t1.5 23t0.5 23.5q16 -5 28 -8q-1 -15 -3 -38q-1 -10 -1 -15
q-3 -31 -30 -30h-16q-26 1 -26 29v206h30zM38 52v-30h34v30h-34z" />
    <glyph glyph-name="uni4E73" unicode="&#x4e73;" 
d="M7 22l-2 37q7 0 20 0.5t20 1.5v8l19 16h-50v34h89v-32l-25 -24q8 0 27 2q-13 -2 3 0q-1 -16 -1 -37q-5 0 -16 -0.5t-17 -0.5v-25q1 -25 -23 -27q-7 -1 -29 -1q0 3 -1 9q-3 16 -5 24h20q10 -1 9 9v9q-18 -1 -38 -3zM144 207v-188q0 -8 6 -8h2q6 -1 6.5 10.5t2.5 55.5
q14 -5 26 -7q-2 -44 -4 -66q-2 -30 -27 -29h-13q-30 -1 -29 32v200h30zM104 204l6 -33q-48 -5 -98 -7q-1 3 -2 9.5t-5 24.5q59 1 99 6zM85 164l25 -7q-6 -16 -14 -37l-24 7q10 25 13 37zM65 163q4 -17 7 -35l-24 -3q-1 15 -7 36zM31 159q1 -2 2 -5l7 -28l-25 -4q-2 15 -8 33
z" />
    <glyph glyph-name="uni4E7E" unicode="&#x4e7e;" 
d="M90 31v-31h-28v-29h-26v29h-31v31h31v13h-26v105h26v12h-30v32h30v16h26v-16h29v-32h-29v-12h24q13 25 23 60l32 -3q-1 -3 -3 -10q-3 -9 -5 -13h52v-37h-66q-1 -4 -4.5 -11.5t-5.5 -11.5h64v-36q-28 -29 -47 -65q-6 -12 4 -13q8 -1 17 0q13 -1 13 16q2 15 2 31
q4 -1 12 -4q10 -2 14 -4q-1 -28 -4 -43q-3 -28 -31 -30q-17 -2 -35 0q-37 11 -18 61q11 21 33 51h-33v36q-2 2 -6 5.5t-7 4.5v-89h-25v-13h28zM33 72h31v12h-31v-12zM64 121h-31v-13h31v13z" />
    <glyph glyph-name="uni4E86" unicode="&#x4e86;" 
d="M179 199v-45l-63 -58v-87q2 -34 -33 -35q-4 0 -19 -0.5t-20 -0.5q-3 21 -7 40h15q14 -1 18 -1q15 0 13 16v86l53 47h-123v38h166z" />
    <glyph glyph-name="uni4E88" unicode="&#x4e88;" 
d="M171 200v-43l-53 -48h66v-36l-17 -58q-4 1 -14 5l-18 6l16 46h-38v-64q2 -32 -33 -35q-8 -1 -33 -1q-1 9 -5 25q-2 7 -3 12q12 0 27.5 -0.5t14.5 15.5v48h-74v37h68l-40 34l20 20h-35v37h151zM128 163h-66l34 -30z" />
    </font>
</defs>
</svg>
